<?xml version="1.0" encoding="utf-8"?>
<!-- Generator: Adobe Illustrator 22.0.1, SVG Export Plug-In . SVG Version: 6.00 Build 0)  -->
<!DOCTYPE svg PUBLIC "-//W3C//DTD SVG 1.1//EN" "http://www.w3.org/Graphics/SVG/1.1/DTD/svg11.dtd">
<svg version="1.1" id="Layer_1" xmlns="http://www.w3.org/2000/svg" xmlns:xlink="http://www.w3.org/1999/xlink" x="0px" y="0px"
	 width="276px" height="56.9px" viewBox="0 0 276 56.9" style="enable-background:new 0 0 276 56.9;" xml:space="preserve">
<style type="text/css">
	.st0{fill:#FFFFFF;}
	.st1{fill:#231F20;}
	.st2{fill:#F15F24;}
	.st3{clip-path:url(#SVGID_2_);fill:#010101;}
	.st4{clip-path:url(#SVGID_2_);fill:#F26922;}
	.st5{clip-path:url(#SVGID_2_);fill:#BE4F1C;}
	.st6{clip-path:url(#SVGID_4_);fill:#BE4F1C;}
	.st7{clip-path:url(#SVGID_4_);}
	.st8{clip-path:url(#SVGID_6_);}
</style>
<path class="st0" d="M80.2,8h159.1H80.2z"/>
<rect x="80.2" y="7.6" class="st1" width="159.1" height="0.8"/>
<path class="st0" d="M33.2,48.4H180H33.2z"/>
<rect x="33.2" y="48" class="st1" width="146.8" height="0.8"/>
<polygon class="st2" points="125.9,13.8 125.9,13.8 125.4,13.2 "/>
<g>
	<defs>
		<rect id="SVGID_1_" x="33.2" y="1" width="211.2" height="54.3"/>
	</defs>
	<clipPath id="SVGID_2_">
		<use xlink:href="#SVGID_1_"  style="overflow:visible;"/>
	</clipPath>
	<path class="st3" d="M33.2,1.1h3.3c0.9,0,1.6,0.3,2.1,0.7c0.4,0.4,0.6,1,0.6,1.6v0c0,1.1-0.6,1.9-1.5,2.2l1.7,2.5h-1.8L36,6h-1.2
		v2.3h-1.6V1.1z M36.4,4.6c0.8,0,1.2-0.4,1.2-1v0c0-0.7-0.5-1-1.2-1h-1.6v2H36.4z"/>
	<path class="st3" d="M43,1.1h1.4l3,7.2h-1.6l-0.7-1.6h-3l-0.6,1.6h-1.6L43,1.1z M44.6,5.3L43.7,3l-0.9,2.3H44.6z"/>
	<rect x="48.7" y="1.1" class="st3" width="1.6" height="7.1"/>
	<path class="st3" d="M51.5,7.2l0.9-1.1C53.1,6.6,53.7,7,54.6,7c0.6,0,1-0.3,1-0.7v0c0-0.4-0.2-0.6-1.4-0.9
		c-1.4-0.4-2.4-0.8-2.4-2.2v0c0-1.3,1-2.1,2.5-2.1c1,0,1.9,0.3,2.6,0.9l-0.8,1.2c-0.6-0.4-1.3-0.7-1.8-0.7c-0.6,0-0.9,0.3-0.9,0.6v0
		c0,0.5,0.3,0.6,1.5,0.9c1.4,0.4,2.3,0.9,2.3,2.1v0c0,1.4-1.1,2.2-2.6,2.2C53.5,8.3,52.4,8,51.5,7.2"/>
	<rect x="58.6" y="1.1" class="st3" width="1.6" height="7.1"/>
	<polygon class="st3" points="61.9,1.1 63.4,1.1 66.7,5.5 66.7,1.1 68.2,1.1 68.2,8.2 66.9,8.2 63.5,3.7 63.5,8.2 61.9,8.2 	"/>
	<path class="st3" d="M69.6,4.7L69.6,4.7c0-2,1.6-3.7,3.7-3.7c1.3,0,2.1,0.3,2.8,1l-1,1.2c-0.6-0.5-1-0.7-1.9-0.7c-1.1,0-2,1-2,2.2
		v0c0,1.3,0.9,2.3,2.2,2.3c0.6,0,1.1-0.1,1.5-0.4v-1h-1.6V4.1h3.1v3.1c-0.7,0.6-1.7,1.1-3,1.1C71.2,8.4,69.6,6.8,69.6,4.7"/>
	<polygon class="st3" points="183.8,48.1 185.3,48.1 185.3,53.8 188.9,53.8 188.9,55.2 183.8,55.2 	"/>
	<polygon class="st3" points="190.1,48.1 195.4,48.1 195.4,49.5 191.6,49.5 191.6,50.9 195,50.9 195,52.3 191.6,52.3 191.6,53.8 
		195.5,53.8 195.5,55.2 190.1,55.2 	"/>
	<path class="st3" d="M199.3,48.1h1.4l3,7.2h-1.6l-0.7-1.6h-3l-0.7,1.6h-1.6L199.3,48.1z M200.9,52.2l-0.9-2.3l-0.9,2.3H200.9z"/>
	<path class="st3" d="M204.9,48.1h3.3c0.9,0,1.6,0.3,2.1,0.7c0.4,0.4,0.6,1,0.6,1.6v0c0,1.1-0.6,1.9-1.5,2.2l1.7,2.5h-1.8l-1.5-2.3
		h-1.2v2.3h-1.6V48.1z M208,51.6c0.8,0,1.2-0.4,1.2-1v0c0-0.7-0.5-1-1.2-1h-1.6v2H208z"/>
	<polygon class="st3" points="212.2,48.1 213.7,48.1 217,52.5 217,48.1 218.6,48.1 218.6,55.2 217.2,55.2 213.8,50.7 213.8,55.2 
		212.2,55.2 	"/>
	<polygon class="st3" points="220.3,48.1 225.6,48.1 225.6,49.5 221.8,49.5 221.8,50.9 225.2,50.9 225.2,52.3 221.8,52.3 
		221.8,53.8 225.7,53.8 225.7,55.2 220.3,55.2 	"/>
	<path class="st3" d="M227.1,48.1h3.3c0.9,0,1.6,0.3,2.1,0.7c0.4,0.4,0.6,1,0.6,1.6v0c0,1.1-0.6,1.9-1.5,2.2l1.7,2.5h-1.8l-1.5-2.3
		h-1.2v2.3h-1.6V48.1z M230.2,51.6c0.8,0,1.2-0.4,1.2-1v0c0-0.7-0.5-1-1.2-1h-1.6v2H230.2z"/>
	<path class="st3" d="M233.9,54.2l0.9-1.1c0.6,0.5,1.3,0.9,2.1,0.9c0.6,0,1-0.3,1-0.7v0c0-0.4-0.2-0.6-1.4-0.9
		c-1.4-0.4-2.4-0.8-2.4-2.2v0c0-1.3,1-2.1,2.5-2.1c1,0,1.9,0.3,2.6,0.9l-0.8,1.2c-0.6-0.4-1.3-0.7-1.9-0.7s-0.9,0.3-0.9,0.6v0
		c0,0.5,0.3,0.6,1.5,0.9c1.4,0.4,2.3,0.9,2.3,2.1v0c0,1.4-1.1,2.2-2.6,2.2C235.9,55.3,234.8,55,233.9,54.2"/>
	<polygon class="st4" points="137.4,29 137.4,29 137.4,29 125.7,14 125.3,13.4 117.6,13.4 117.6,16.3 117.6,42.9 125.7,42.9 
		125.7,26.7 125.7,26.7 137.4,41.7 137.4,41.7 138.4,42.9 145.5,42.9 145.5,39.4 145.5,13.4 137.4,13.4 	"/>
	<path class="st4" d="M53.8,27.5c2.6-1.1,4.6-3.2,4.6-6.6v-0.1c0-2-0.7-3.6-1.9-4.8c-1.7-1.7-4.3-2.6-8.1-2.6h-7.2h-8V20v5.2v5.7
		v5.4v6.6h8h7.3c7,0,11.2-3.1,11.2-8.1v-0.1C59.6,30.7,57.3,28.7,53.8,27.5 M41.2,20h5.4c2.4,0,3.7,0.9,3.7,2.5v0.1
		c0,1.7-1.4,2.6-3.9,2.6h-5.2V20z M51.4,33.6c0,1.7-1.4,2.7-3.9,2.7h-6.3v-5.4h6.2C50.2,30.9,51.4,31.9,51.4,33.6L51.4,33.6z"/>
	<polygon class="st4" points="71.6,35.6 71.6,13.4 63.4,13.4 63.4,35.7 63.4,42.9 71.6,42.9 85.9,42.9 85.9,35.7 71.6,35.7 	"/>
	<polygon class="st4" points="97.5,31.3 111.7,31.3 111.7,24.8 97.5,24.8 97.5,20.3 113.2,20.3 113.2,13.4 97.5,13.4 89.4,13.4 
		89.4,20.3 89.4,24.8 89.4,31.3 89.4,36 89.4,42.9 97.5,42.9 113.4,42.9 113.4,36 97.5,36 	"/>
	<path class="st4" d="M162.2,13.4h-3.3h-8.2v7.2v15.1v7.3h8.2h3.1c10.6,0,16.8-6.3,16.8-14.9V28C178.8,19.5,172.7,13.4,162.2,13.4
		 M170.5,28.2c0,4.8-3.3,7.5-8.2,7.5h-3.3V20.6h3.3C167.2,20.6,170.5,23.4,170.5,28.2L170.5,28.2z"/>
	<polygon class="st4" points="191.2,31.3 205.4,31.3 205.4,24.8 191.2,24.8 191.2,20.3 206.8,20.3 206.8,13.4 191.2,13.4 
		183.1,13.4 183.1,20.3 183.1,24.8 183.1,31.3 183.1,36 183.1,42.9 191.2,42.9 207,42.9 207,36 191.2,36 	"/>
	<path class="st4" d="M222.7,13.4h-3.3h-8.2v7.2v15.1v7.3h8.2h3.1c10.6,0,16.8-6.3,16.8-14.9V28C239.3,19.5,233.2,13.4,222.7,13.4
		 M231,28.2c0,4.8-3.3,7.5-8.2,7.5h-3.3V20.6h3.3C227.7,20.6,231,23.4,231,28.2L231,28.2z"/>
	<rect x="33.2" y="36.3" class="st5" width="8" height="6.6"/>
	<rect x="33.2" y="13.4" class="st5" width="8" height="6.6"/>
	<rect x="33.2" y="25.1" class="st5" width="8" height="5.7"/>
	<rect x="63.4" y="35.7" class="st5" width="8.2" height="7.2"/>
	<rect x="89.4" y="13.4" class="st5" width="8.1" height="6.9"/>
	<polygon class="st5" points="125.7,14 125.3,13.4 117.6,13.4 117.6,16.3 125.7,26.7 	"/>
	<rect x="150.7" y="13.4" class="st5" width="8.2" height="7.2"/>
	<rect x="150.7" y="35.7" class="st5" width="8.2" height="7.3"/>
	<rect x="183.1" y="13.4" class="st5" width="8.1" height="6.9"/>
	<rect x="211.3" y="13.4" class="st5" width="8.2" height="7.2"/>
	<rect x="211.3" y="35.7" class="st5" width="8.2" height="7.3"/>
	<rect x="89.4" y="24.8" class="st5" width="8.1" height="6.5"/>
	<rect x="89.4" y="36" class="st5" width="8.1" height="7"/>
	<polygon class="st5" points="137.4,41.7 138.4,42.9 145.5,42.9 145.5,39.4 137.4,29 	"/>
	<rect x="183.1" y="24.8" class="st5" width="8.1" height="6.5"/>
</g>
<g>
	<defs>
		<rect id="SVGID_3_" x="33.2" y="1" width="211.2" height="54.3"/>
	</defs>
	<clipPath id="SVGID_4_">
		<use xlink:href="#SVGID_3_"  style="overflow:visible;"/>
	</clipPath>
	<rect x="183.1" y="36" class="st6" width="8.1" height="7"/>
	<path class="st7" d="M241.7,49.3L241.7,49.3c0-0.7,0.6-1.4,1.3-1.4c0.8,0,1.3,0.6,1.3,1.3v0c0,0.7-0.6,1.4-1.3,1.4
		C242.3,50.7,241.7,50.1,241.7,49.3 M244.2,49.3L244.2,49.3c0-0.7-0.5-1.2-1.2-1.2c-0.7,0-1.2,0.6-1.2,1.2v0c0,0.7,0.5,1.2,1.2,1.2
		C243.7,50.5,244.2,50,244.2,49.3 M242.4,48.6h0.7c0.3,0,0.6,0.1,0.6,0.5c0,0.2-0.1,0.4-0.3,0.4l0.3,0.5h-0.5l-0.3-0.4h-0.2V50h-0.4
		V48.6z M243.1,49.3c0.1,0,0.2-0.1,0.2-0.2c0-0.1-0.1-0.2-0.2-0.2h-0.3v0.3H243.1z"/>
</g>
<g>
	<defs>
		<rect id="SVGID_5_" x="33.2" y="1" width="211.2" height="54.3"/>
	</defs>
	<clipPath id="SVGID_6_">
		<use xlink:href="#SVGID_5_"  style="overflow:visible;"/>
	</clipPath>
	<path class="st8" d="M34.6,51.9h0.7l1.4,3.3h-0.7l-0.3-0.7h-1.4l-0.3,0.7h-0.7L34.6,51.9z M35.4,53.8l-0.4-1.1l-0.4,1.1H35.4z"/>
	<path class="st8" d="M38.6,52h1.5c0.4,0,0.7,0.1,1,0.3c0.2,0.2,0.3,0.4,0.3,0.7v0c0,0.5-0.3,0.9-0.7,1l0.8,1.2h-0.8l-0.7-1h-0.6v1
		h-0.7V52z M40,53.5c0.3,0,0.6-0.2,0.6-0.5v0c0-0.3-0.2-0.5-0.6-0.5h-0.7v0.9H40z"/>
	<path class="st8" d="M43.1,51.9h0.7l1.4,3.3h-0.7l-0.3-0.7h-1.4l-0.3,0.7h-0.7L43.1,51.9z M43.8,53.8l-0.4-1.1l-0.4,1.1H43.8z"/>
	<rect x="45.7" y="52" class="st8" width="0.7" height="3.3"/>
	<path class="st8" d="M47,54.7l0.4-0.5c0.3,0.2,0.6,0.4,1,0.4c0.3,0,0.5-0.1,0.5-0.3v0c0-0.2-0.1-0.3-0.7-0.4
		c-0.7-0.2-1.1-0.3-1.1-1v0c0-0.6,0.5-1,1.1-1c0.5,0,0.9,0.1,1.2,0.4l-0.4,0.5c-0.3-0.2-0.6-0.3-0.8-0.3c-0.3,0-0.4,0.1-0.4,0.3v0
		c0,0.2,0.1,0.3,0.7,0.4c0.7,0.2,1,0.4,1,1v0c0,0.6-0.5,1-1.2,1C47.8,55.3,47.4,55.1,47,54.7"/>
	<polygon class="st8" points="50.2,52 52.6,52 52.6,52.6 50.9,52.6 50.9,53.3 52.4,53.3 52.4,53.9 50.9,53.9 50.9,54.6 52.6,54.6 
		52.6,55.2 50.2,55.2 	"/>
	<polygon class="st8" points="55.6,53.9 54.3,52 55.2,52 56,53.3 56.8,52 57.6,52 56.3,53.9 56.3,55.2 55.6,55.2 	"/>
	<path class="st8" d="M57.6,53.6L57.6,53.6c0-0.9,0.7-1.7,1.7-1.7c1,0,1.7,0.7,1.7,1.7v0c0,0.9-0.7,1.7-1.7,1.7
		C58.3,55.3,57.6,54.5,57.6,53.6 M60.3,53.6L60.3,53.6c0-0.6-0.4-1-1-1c-0.6,0-1,0.5-1,1v0c0,0.6,0.4,1,1,1
		C59.9,54.6,60.3,54.2,60.3,53.6"/>
	<path class="st8" d="M61.6,53.8V52h0.7v1.8c0,0.5,0.3,0.8,0.7,0.8c0.4,0,0.7-0.3,0.7-0.8V52h0.7v1.8c0,1-0.6,1.5-1.4,1.5
		S61.6,54.8,61.6,53.8"/>
	<path class="st8" d="M65.2,52h1.5c0.4,0,0.7,0.1,0.9,0.3c0.2,0.2,0.3,0.4,0.3,0.7v0c0,0.5-0.3,0.9-0.7,1l0.8,1.2h-0.8l-0.7-1h-0.6
		v1h-0.7V52z M66.7,53.5c0.3,0,0.5-0.2,0.5-0.5v0c0-0.3-0.2-0.5-0.6-0.5h-0.7v0.9H66.7z"/>
	<polygon class="st8" points="70,52 70.7,52 70.7,53.2 72,53.2 72,52 72.7,52 72.7,55.2 72,55.2 72,53.9 70.7,53.9 70.7,55.2 
		70,55.2 	"/>
	<path class="st8" d="M74.6,51.9h0.7l1.4,3.3h-0.7l-0.3-0.7h-1.4L74,55.2h-0.7L74.6,51.9z M75.4,53.8L75,52.8l-0.4,1.1H75.4z"/>
	<polygon class="st8" points="77.2,52 77.9,52 79.4,54 79.4,52 80.1,52 80.1,55.2 79.5,55.2 77.9,53.1 77.9,55.2 77.2,55.2 	"/>
	<path class="st8" d="M80.9,52h1.3c1,0,1.7,0.7,1.7,1.6v0c0,0.9-0.7,1.6-1.7,1.6h-1.3V52z M81.6,52.6v2h0.6c0.6,0,1-0.4,1-1v0
		c0-0.6-0.4-1-1-1H81.6z"/>
	<polygon class="st8" points="86.7,52.6 85.7,52.6 85.7,52 88.4,52 88.4,52.6 87.4,52.6 87.4,55.2 86.7,55.2 	"/>
	<polygon class="st8" points="88.9,52 91.4,52 91.4,52.6 89.7,52.6 89.7,53.3 91.2,53.3 91.2,53.9 89.7,53.9 89.7,54.6 91.4,54.6 
		91.4,55.2 88.9,55.2 	"/>
	<polygon class="st8" points="94.9,52 93.8,53.5 94.9,55.2 94.1,55.2 93.4,54.1 92.6,55.2 91.8,55.2 93,53.6 91.9,52 92.7,52 
		93.4,53 94.1,52 	"/>
	<path class="st8" d="M96.5,51.9h0.7l1.4,3.3h-0.7l-0.3-0.7h-1.4l-0.3,0.7h-0.7L96.5,51.9z M97.3,53.8l-0.4-1.1l-0.4,1.1H97.3z"/>
	<path class="st8" d="M98.8,54.7l0.4-0.5c0.3,0.2,0.6,0.4,1,0.4c0.3,0,0.5-0.1,0.5-0.3v0c0-0.2-0.1-0.3-0.7-0.4
		c-0.7-0.2-1.1-0.3-1.1-1v0c0-0.6,0.5-1,1.1-1c0.5,0,0.9,0.1,1.2,0.4l-0.4,0.5c-0.3-0.2-0.6-0.3-0.8-0.3c-0.3,0-0.4,0.1-0.4,0.3v0
		c0,0.2,0.1,0.3,0.7,0.4c0.7,0.2,1,0.4,1,1v0c0,0.6-0.5,1-1.2,1C99.7,55.3,99.2,55.1,98.8,54.7"/>
	<path class="st8" d="M101.6,52.7L101.6,52.7c0-0.4,0.4-0.8,0.8-0.8c0.5,0,0.8,0.4,0.8,0.8v0c0,0.4-0.4,0.8-0.8,0.8
		C102,53.5,101.6,53.2,101.6,52.7 M103.2,52.7L103.2,52.7c0-0.4-0.3-0.7-0.7-0.7c-0.4,0-0.7,0.3-0.7,0.7v0c0,0.4,0.3,0.7,0.7,0.7
		C102.9,53.4,103.2,53.1,103.2,52.7 M102.1,52.3h0.4c0.2,0,0.4,0.1,0.4,0.3c0,0.1-0.1,0.2-0.2,0.3l0.2,0.3h-0.3l-0.2-0.3h-0.1v0.3
		h-0.2V52.3z M102.5,52.7c0.1,0,0.1,0,0.1-0.1c0-0.1,0-0.1-0.1-0.1h-0.2v0.2H102.5z"/>
	<polygon class="st8" points="105.1,52 107.6,52 107.6,52.6 105.8,52.6 105.8,53.3 107.4,53.3 107.4,54 105.8,54 105.8,55.2 
		105.1,55.2 	"/>
	<path class="st8" d="M108,53.6L108,53.6c0-0.9,0.7-1.7,1.7-1.7c1,0,1.7,0.7,1.7,1.7v0c0,0.9-0.7,1.7-1.7,1.7
		C108.7,55.3,108,54.5,108,53.6 M110.7,53.6L110.7,53.6c0-0.6-0.4-1-1-1c-0.6,0-1,0.5-1,1v0c0,0.6,0.4,1,1,1
		C110.3,54.6,110.7,54.2,110.7,53.6"/>
	<path class="st8" d="M112.1,53.8V52h0.7v1.8c0,0.5,0.3,0.8,0.7,0.8s0.7-0.3,0.7-0.8V52h0.7v1.8c0,1-0.6,1.5-1.4,1.5
		C112.6,55.3,112.1,54.8,112.1,53.8"/>
	<polygon class="st8" points="115.6,52 116.3,52 117.8,54 117.8,52 118.5,52 118.5,55.2 117.9,55.2 116.3,53.1 116.3,55.2 
		115.6,55.2 	"/>
	<path class="st8" d="M119.3,52h1.3c1,0,1.7,0.7,1.7,1.6v0c0,0.9-0.7,1.6-1.7,1.6h-1.3V52z M120,52.6v2h0.6c0.6,0,1-0.4,1-1v0
		c0-0.6-0.4-1-1-1H120z"/>
	<path class="st8" d="M123.8,51.9h0.7l1.4,3.3h-0.8l-0.3-0.7h-1.4l-0.3,0.7h-0.7L123.8,51.9z M124.6,53.8l-0.4-1.1l-0.4,1.1H124.6z"
		/>
	<polygon class="st8" points="126.8,52.6 125.8,52.6 125.8,52 128.5,52 128.5,52.6 127.5,52.6 127.5,55.2 126.8,55.2 	"/>
	<rect x="129" y="52" class="st8" width="0.7" height="3.3"/>
	<path class="st8" d="M130.4,53.6L130.4,53.6c0-0.9,0.7-1.7,1.7-1.7c1,0,1.7,0.7,1.7,1.7v0c0,0.9-0.7,1.7-1.7,1.7
		C131.2,55.3,130.4,54.5,130.4,53.6 M133.1,53.6L133.1,53.6c0-0.6-0.4-1-1-1c-0.6,0-1,0.5-1,1v0c0,0.6,0.4,1,1,1
		C132.7,54.6,133.1,54.2,133.1,53.6"/>
	<polygon class="st8" points="134.5,52 135.2,52 136.7,54 136.7,52 137.4,52 137.4,55.2 136.8,55.2 135.2,53.1 135.2,55.2 
		134.5,55.2 	"/>
	<rect x="139.6" y="52" class="st8" width="0.7" height="3.3"/>
	<polygon class="st8" points="141.2,52 141.8,52 143.4,54 143.4,52 144.1,52 144.1,55.2 143.5,55.2 141.9,53.1 141.9,55.2 
		141.2,55.2 	"/>
	<rect x="144.9" y="52" class="st8" width="0.7" height="3.3"/>
	<polygon class="st8" points="147.2,52.6 146.2,52.6 146.2,52 148.9,52 148.9,52.6 147.9,52.6 147.9,55.2 147.2,55.2 	"/>
	<rect x="149.5" y="52" class="st8" width="0.7" height="3.3"/>
	<path class="st8" d="M152.1,51.9h0.7l1.4,3.3h-0.8l-0.3-0.7h-1.4l-0.3,0.7h-0.7L152.1,51.9z M152.9,53.8l-0.4-1.1l-0.4,1.1H152.9z"
		/>
	<polygon class="st8" points="155,52.6 154,52.6 154,52 156.7,52 156.7,52.6 155.7,52.6 155.7,55.2 155,55.2 	"/>
	<rect x="157.3" y="52" class="st8" width="0.7" height="3.3"/>
	<polygon class="st8" points="158.6,52 159.4,52 160.2,54.2 161.1,52 161.8,52 160.5,55.2 159.9,55.2 	"/>
	<polygon class="st8" points="162.3,52 164.8,52 164.8,52.6 163.1,52.6 163.1,53.3 164.6,53.3 164.6,53.9 163.1,53.9 163.1,54.6 
		164.8,54.6 164.8,55.2 162.3,55.2 	"/>
</g>
</svg>
