<?xml version="1.0" encoding="utf-8"?>
<!-- Generator: Adobe Illustrator 22.0.1, SVG Export Plug-In . SVG Version: 6.00 Build 0)  -->
<!DOCTYPE svg PUBLIC "-//W3C//DTD SVG 1.1//EN" "http://www.w3.org/Graphics/SVG/1.1/DTD/svg11.dtd">
<svg version="1.1" id="Layer_1" xmlns="http://www.w3.org/2000/svg" xmlns:xlink="http://www.w3.org/1999/xlink" x="0px" y="0px"
	 width="276px" height="56.9px" viewBox="0 0 276 56.9" style="enable-background:new 0 0 276 56.9;" xml:space="preserve">
<style type="text/css">
	.st0{fill:#231F20;}
	.st1{clip-path:url(#SVGID_2_);fill:#231F20;}
	.st2{clip-path:url(#SVGID_4_);fill:#231F20;}
	.st3{clip-path:url(#SVGID_6_);fill:#F16A22;}
	.st4{clip-path:url(#SVGID_6_);fill:#231F20;}
	.st5{clip-path:url(#SVGID_8_);fill:#231F20;}
	.st6{clip-path:url(#SVGID_10_);fill:#231F20;}
	.st7{clip-path:url(#SVGID_12_);fill:#231F20;}
	.st8{clip-path:url(#SVGID_14_);fill:#231F20;}
	.st9{clip-path:url(#SVGID_16_);fill:#231F20;}
	.st10{clip-path:url(#SVGID_18_);fill:#231F20;}
</style>
<polygon class="st0" points="78.8,11.3 93.4,11.3 93.4,15.1 83,15.1 83,19.2 92.2,19.2 92.2,23.1 83,23.1 83,30.5 78.8,30.5 "/>
<path class="st0" d="M101.2,11.2h3.9l8.2,19.3h-4.4l-1.8-4.3H99l-1.8,4.3h-4.3L101.2,11.2z M105.6,22.5l-2.5-6.2l-2.5,6.2H105.6z"/>
<polygon class="st0" points="116.2,11.3 120.8,11.3 125.8,19.4 130.9,11.3 135.4,11.3 135.4,30.5 131.2,30.5 131.2,18 125.8,26.2 
	125.7,26.2 120.4,18.1 120.4,30.5 116.2,30.5 "/>
<rect x="140.2" y="11.3" class="st0" width="4.2" height="19.2"/>
<polygon class="st0" points="149.2,11.3 153.4,11.3 153.4,26.7 163,26.7 163,30.5 149.2,30.5 "/>
<polygon class="st0" points="168,22.9 160.6,11.3 165.5,11.3 170.1,19 174.8,11.3 179.6,11.3 172.2,22.9 172.2,30.5 168,30.5 "/>
<g>
	<defs>
		<rect id="SVGID_1_" x="32.3" y="0.9" width="214.2" height="55.1"/>
	</defs>
	<clipPath id="SVGID_2_">
		<use xlink:href="#SVGID_1_"  style="overflow:visible;"/>
	</clipPath>
	<path class="st1" d="M78.8,1h3.3c0.9,0,1.7,0.3,2.1,0.7c0.4,0.4,0.6,1,0.6,1.6v0c0,1.2-0.7,1.9-1.8,2.2l2,2.8h-1.5l-1.8-2.6h-1.6
		v2.6h-1.3V1z M82,4.7c0.9,0,1.5-0.5,1.5-1.2v0c0-0.8-0.6-1.2-1.5-1.2h-1.9v2.5H82z"/>
	<path class="st1" d="M89.3,0.9h1.2l3.3,7.5h-1.4l-0.8-1.8h-3.5l-0.8,1.8h-1.3L89.3,0.9z M91.2,5.5l-1.3-3l-1.3,3H91.2z"/>
	<rect x="95.3" y="1" class="st1" width="1.3" height="7.4"/>
	<path class="st1" d="M98.3,7.3l0.8-0.9c0.7,0.6,1.4,1,2.3,1c0.8,0,1.3-0.4,1.3-0.9v0c0-0.5-0.3-0.8-1.7-1.1
		c-1.6-0.4-2.5-0.8-2.5-2.2v0c0-1.3,1.1-2.1,2.5-2.1c1.1,0,1.9,0.3,2.7,0.9l-0.7,1c-0.7-0.5-1.3-0.8-2-0.8c-0.8,0-1.2,0.4-1.2,0.9v0
		c0,0.6,0.3,0.8,1.8,1.2c1.6,0.4,2.4,0.9,2.4,2.2v0c0,1.4-1.1,2.2-2.6,2.2C100.3,8.5,99.2,8.1,98.3,7.3"/>
	<rect x="105.9" y="1" class="st1" width="1.3" height="7.4"/>
</g>
<g>
	<defs>
		<rect id="SVGID_3_" x="50.7" y="0.9" width="177.4" height="55.1"/>
	</defs>
	<clipPath id="SVGID_4_">
		<use xlink:href="#SVGID_3_"  style="overflow:visible;"/>
	</clipPath>
	<polygon class="st2" points="109.4,1 110.6,1 114.5,6.1 114.5,1 115.8,1 115.8,8.4 114.7,8.4 110.6,3.1 110.6,8.4 109.4,8.4 	"/>
	<path class="st2" d="M117.6,4.7L117.6,4.7c0-2.1,1.6-3.9,3.8-3.9c1.3,0,2.1,0.4,2.8,1l-0.8,1c-0.6-0.5-1.1-0.8-2.1-0.8
		c-1.4,0-2.4,1.2-2.4,2.6v0c0,1.5,1,2.6,2.5,2.6c0.7,0,1.3-0.2,1.8-0.6V5.4h-1.9V4.3h3.2v3.1c-0.7,0.6-1.8,1.2-3.1,1.2
		C119.1,8.5,117.6,6.9,117.6,4.7"/>
</g>
<g>
	<defs>
		<rect id="SVGID_5_" x="32.3" y="0.9" width="214.2" height="55.1"/>
	</defs>
	<clipPath id="SVGID_6_">
		<use xlink:href="#SVGID_5_"  style="overflow:visible;"/>
	</clipPath>
	<path class="st3" d="M90.7,39.6L90.7,39.6c0-3.1-2.2-5.3-5.8-5.3h-6.2v15.1h3.3v-4.5h2.5C88,44.9,90.7,43.1,90.7,39.6 M87.4,39.7
		c0,1.3-1,2.3-2.6,2.3h-2.6v-4.6h2.6C86.4,37.3,87.4,38.1,87.4,39.7L87.4,39.7z"/>
	<path class="st3" d="M117.8,39.4L117.8,39.4c0-1.5-0.5-2.7-1.3-3.5c-1-1-2.5-1.5-4.4-1.5h-6.9v11.7h-2.5l-5-11.9h-3.1l-6.5,15.2
		h3.4l1.4-3.4h6.4l1.4,3.4h1h2.5h1.1h3.3v-3.4v-1.5h2.6l3.2,4.8h3.9l-3.7-5.4C116.5,43.3,117.8,41.8,117.8,39.4 M94,43.1l2-4.9
		l2,4.9H94z M114.4,39.5c0,1.3-0.9,2.1-2.5,2.1h-3.4v-4.3h3.3C113.4,37.3,114.4,38.1,114.4,39.5L114.4,39.5z"/>
	<path class="st3" d="M166.2,39.4L166.2,39.4c0-1.5-0.5-2.7-1.3-3.5c-1-1-2.5-1.5-4.4-1.5h-3.8h-3.1h-1.1h-7.3h-1h-1.9h-1.4v9.3
		l-7.1-9.3h-2.2h-0.9h-5.9h-6.6h-2.1c0.4,0.2,0.8,0.5,1.1,0.8c0.6,0.6,1,1.4,1.3,2.2h4.3v12h3.3v-12h4.6v12h3.3v-9.6l7.3,9.6h2.8
		V37.3h1h7.3h1.1v12.1h3.3v-4.8h2.6l3.2,4.8h3.9l-3.7-5.4C164.8,43.3,166.2,41.8,166.2,39.4 M162.8,39.5c0,1.3-0.9,2.1-2.5,2.1h-3.4
		v-4.3h3.3C161.8,37.3,162.8,38.1,162.8,39.5L162.8,39.5z"/>
	<path class="st3" d="M173.8,40.4c-2.6-0.7-3.3-1-3.3-2v0c0-0.7,0.7-1.3,1.9-1.3c1.3,0,2.6,0.6,3.9,1.5l1.7-2.5
		c-1.5-1.2-3.4-1.9-5.6-1.9c-3.1,0-5.3,1.8-5.3,4.6v0c0,3,2,3.8,5,4.6c2.5,0.6,3,1.1,3,1.9v0c0,0.9-0.8,1.4-2.2,1.4
		c-1.7,0-3.1-0.7-4.5-1.8l-2,2.3c1.8,1.6,4.1,2.4,6.4,2.4c3.3,0,5.5-1.7,5.5-4.7v0C178.6,42.3,176.8,41.2,173.8,40.4"/>
	<polygon class="st3" points="189,40.3 182.9,40.3 182.9,34.3 179.6,34.3 179.6,49.4 182.9,49.4 182.9,43.4 189,43.4 189,49.4 
		192.4,49.4 192.4,34.3 189,34.3 	"/>
	<rect x="194.4" y="34.4" class="st3" width="3.3" height="15.1"/>
	<path class="st3" d="M205.9,34.4h-6.2v15.1h3.3v-4.5h2.5c3.4,0,6.1-1.8,6.1-5.3v0C211.7,36.5,209.5,34.4,205.9,34.4 M208.3,39.7
		c0,1.3-1,2.3-2.6,2.3H203v-4.6h2.6C207.3,37.3,208.3,38.1,208.3,39.7L208.3,39.7z"/>
	<path class="st3" d="M219.2,40.4c-2.6-0.7-3.3-1-3.3-2v0c0-0.7,0.7-1.3,1.9-1.3c1.3,0,2.6,0.6,3.9,1.5l1.7-2.5
		c-1.5-1.2-3.4-1.9-5.6-1.9c-3.1,0-5.3,1.8-5.3,4.6v0c0,3,2,3.8,5,4.6c2.5,0.6,3,1.1,3,1.9v0c0,0.9-0.8,1.4-2.2,1.4
		c-1.7,0-3.1-0.7-4.5-1.8l-2,2.3c1.8,1.6,4.1,2.4,6.4,2.4c3.3,0,5.5-1.7,5.5-4.7v0C224,42.3,222.3,41.2,219.2,40.4"/>
	<rect x="145.1" y="46.5" class="st3" width="7.4" height="3"/>
	<rect x="145.1" y="40.4" class="st3" width="5.5" height="3"/>
	<polygon class="st4" points="63.7,49.4 76.3,30.5 76.3,11.3 50.7,49.4 	"/>
	<polygon class="st3" points="76.3,49.4 76.3,34.3 76.3,34.4 66.2,49.4 	"/>
	<path class="st4" d="M80.5,52.3h0.7l1.5,3.6h-0.8l-0.3-0.8h-1.5l-0.3,0.8h-0.8L80.5,52.3z M81.3,54.4l-0.5-1.2l-0.5,1.2H81.3z"/>
	<path class="st4" d="M84.8,52.3h1.6c0.5,0,0.8,0.1,1,0.4c0.2,0.2,0.3,0.5,0.3,0.8v0c0,0.6-0.3,0.9-0.8,1.1l0.9,1.3H87l-0.8-1.1
		h-0.6v1.1h-0.8V52.3z M86.4,54c0.4,0,0.6-0.2,0.6-0.5v0c0-0.3-0.2-0.5-0.6-0.5h-0.8v1H86.4z"/>
	<path class="st4" d="M89.7,52.3h0.7l1.5,3.6h-0.8l-0.3-0.8h-1.5L89,55.9h-0.8L89.7,52.3z M90.6,54.4l-0.5-1.2l-0.5,1.2H90.6z"/>
	<rect x="92.6" y="52.3" class="st4" width="0.8" height="3.6"/>
	<path class="st4" d="M94,55.4l0.5-0.6c0.3,0.3,0.7,0.4,1.1,0.4c0.3,0,0.5-0.1,0.5-0.3v0c0-0.2-0.1-0.3-0.7-0.5
		c-0.7-0.2-1.2-0.4-1.2-1.1v0c0-0.7,0.5-1.1,1.3-1.1c0.5,0,1,0.2,1.3,0.5l-0.4,0.6c-0.3-0.2-0.6-0.4-0.9-0.4c-0.3,0-0.5,0.1-0.5,0.3
		v0c0,0.2,0.2,0.3,0.8,0.5c0.7,0.2,1.1,0.4,1.1,1.1v0c0,0.7-0.5,1.1-1.3,1.1C95,55.9,94.5,55.8,94,55.4"/>
	<polygon class="st4" points="97.5,52.3 100.3,52.3 100.3,53 98.3,53 98.3,53.7 100,53.7 100,54.4 98.3,54.4 98.3,55.2 100.3,55.2 
		100.3,55.9 97.5,55.9 	"/>
</g>
<g>
	<defs>
		<rect id="SVGID_7_" x="50.7" y="0.9" width="177.4" height="55.1"/>
	</defs>
	<clipPath id="SVGID_8_">
		<use xlink:href="#SVGID_7_"  style="overflow:visible;"/>
	</clipPath>
	<polygon class="st5" points="103.5,54.5 102.1,52.3 103.1,52.3 103.9,53.7 104.8,52.3 105.7,52.3 104.3,54.5 104.3,55.9 
		103.5,55.9 	"/>
	<path class="st5" d="M105.7,54.1L105.7,54.1c0-1,0.8-1.9,1.9-1.9c1.1,0,1.9,0.8,1.9,1.8v0c0,1-0.8,1.9-1.9,1.9
		C106.5,56,105.7,55.1,105.7,54.1 M108.7,54.1L108.7,54.1c0-0.6-0.5-1.1-1.1-1.1c-0.6,0-1.1,0.5-1.1,1.1v0c0,0.6,0.5,1.1,1.1,1.1
		C108.3,55.2,108.7,54.7,108.7,54.1"/>
</g>
<g>
	<defs>
		<rect id="SVGID_9_" x="32.3" y="0.9" width="214.2" height="55.1"/>
	</defs>
	<clipPath id="SVGID_10_">
		<use xlink:href="#SVGID_9_"  style="overflow:visible;"/>
	</clipPath>
	<path class="st6" d="M110.2,54.4v-2h0.8v2c0,0.6,0.3,0.9,0.8,0.9c0.5,0,0.8-0.3,0.8-0.9v-2.1h0.8v2c0,1.1-0.6,1.6-1.6,1.6
		C110.8,55.9,110.2,55.4,110.2,54.4"/>
	<path class="st6" d="M114.1,52.3h1.6c0.5,0,0.8,0.1,1,0.4c0.2,0.2,0.3,0.5,0.3,0.8v0c0,0.6-0.3,0.9-0.8,1.1l0.9,1.3h-0.9l-0.8-1.1
		h-0.6v1.1h-0.8V52.3z M115.7,54c0.4,0,0.6-0.2,0.6-0.5v0c0-0.3-0.2-0.5-0.6-0.5h-0.8v1H115.7z"/>
	<polygon class="st6" points="119.3,52.3 120.1,52.3 120.1,53.7 121.6,53.7 121.6,52.3 122.4,52.3 122.4,55.9 121.6,55.9 
		121.6,54.5 120.1,54.5 120.1,55.9 119.3,55.9 	"/>
	<path class="st6" d="M124.4,52.3h0.7l1.5,3.6h-0.8l-0.3-0.8H124l-0.3,0.8h-0.8L124.4,52.3z M125.3,54.4l-0.5-1.2l-0.5,1.2H125.3z"
		/>
	<polygon class="st6" points="127.3,52.3 128,52.3 129.7,54.5 129.7,52.3 130.4,52.3 130.4,55.9 129.8,55.9 128,53.6 128,55.9 
		127.3,55.9 	"/>
	<path class="st6" d="M131.3,52.3h1.4c1.1,0,1.9,0.8,1.9,1.8v0c0,1-0.8,1.8-1.9,1.8h-1.4V52.3z M132.1,53v2.2h0.6
		c0.6,0,1.1-0.4,1.1-1.1v0c0-0.6-0.4-1.1-1.1-1.1H132.1z"/>
	<polygon class="st6" points="137.7,53 136.6,53 136.6,52.3 139.5,52.3 139.5,53 138.5,53 138.5,55.9 137.7,55.9 	"/>
	<polygon class="st6" points="140.1,52.3 142.8,52.3 142.8,53 140.9,53 140.9,53.7 142.6,53.7 142.6,54.4 140.9,54.4 140.9,55.2 
		142.9,55.2 142.9,55.9 140.1,55.9 	"/>
	<polygon class="st6" points="146.7,52.3 145.5,54.1 146.7,55.9 145.8,55.9 145,54.7 144.2,55.9 143.3,55.9 144.6,54.1 143.4,52.3 
		144.3,52.3 145,53.5 145.8,52.3 	"/>
	<path class="st6" d="M148.4,52.3h0.7l1.5,3.6h-0.8l-0.3-0.8H148l-0.3,0.8h-0.8L148.4,52.3z M149.3,54.4l-0.5-1.2l-0.5,1.2H149.3z"
		/>
	<path class="st6" d="M151,55.4l0.5-0.6c0.3,0.3,0.7,0.4,1.1,0.4c0.3,0,0.5-0.1,0.5-0.3v0c0-0.2-0.1-0.3-0.7-0.5
		c-0.7-0.2-1.2-0.4-1.2-1.1v0c0-0.7,0.5-1.1,1.3-1.1c0.5,0,1,0.2,1.3,0.5l-0.4,0.6c-0.3-0.2-0.6-0.4-0.9-0.4c-0.3,0-0.5,0.1-0.5,0.3
		v0c0,0.2,0.2,0.3,0.8,0.5c0.7,0.2,1.1,0.4,1.1,1.1v0c0,0.7-0.5,1.1-1.3,1.1C151.9,55.9,151.4,55.8,151,55.4"/>
	<path class="st6" d="M154.1,53.2L154.1,53.2c0-0.5,0.4-0.9,0.9-0.9c0.5,0,0.9,0.4,0.9,0.9v0c0,0.5-0.4,0.9-0.9,0.9
		C154.5,54,154.1,53.6,154.1,53.2 M155.8,53.1L155.8,53.1c0-0.4-0.3-0.8-0.8-0.8c-0.4,0-0.8,0.4-0.8,0.8v0c0,0.4,0.3,0.8,0.8,0.8
		C155.4,53.9,155.8,53.6,155.8,53.1 M154.6,52.7h0.5c0.2,0,0.4,0.1,0.4,0.3c0,0.1-0.1,0.3-0.2,0.3l0.2,0.3h-0.3l-0.2-0.3h-0.1v0.3
		h-0.3V52.7z M155,53.1c0.1,0,0.1,0,0.1-0.1c0-0.1-0.1-0.1-0.1-0.1h-0.2v0.2H155z"/>
</g>
<g>
	<defs>
		<rect id="SVGID_11_" x="50.7" y="0.9" width="177.4" height="55.1"/>
	</defs>
	<clipPath id="SVGID_12_">
		<use xlink:href="#SVGID_11_"  style="overflow:visible;"/>
	</clipPath>
	<polygon class="st7" points="157.9,52.3 160.6,52.3 160.6,53 158.7,53 158.7,53.8 160.4,53.8 160.4,54.5 158.7,54.5 158.7,55.9 
		157.9,55.9 	"/>
	<path class="st7" d="M161.1,54.1L161.1,54.1c0-1,0.8-1.9,1.9-1.9c1.1,0,1.9,0.8,1.9,1.8v0c0,1-0.8,1.9-1.9,1.9
		C161.9,56,161.1,55.1,161.1,54.1 M164.1,54.1L164.1,54.1c0-0.6-0.5-1.1-1.1-1.1c-0.6,0-1.1,0.5-1.1,1.1v0c0,0.6,0.5,1.1,1.1,1.1
		C163.6,55.2,164.1,54.7,164.1,54.1"/>
</g>
<g>
	<defs>
		<rect id="SVGID_13_" x="32.3" y="0.9" width="214.2" height="55.1"/>
	</defs>
	<clipPath id="SVGID_14_">
		<use xlink:href="#SVGID_13_"  style="overflow:visible;"/>
	</clipPath>
	<path class="st8" d="M165.5,54.4v-2h0.8v2c0,0.6,0.3,0.9,0.8,0.9c0.5,0,0.8-0.3,0.8-0.9v-2.1h0.8v2c0,1.1-0.6,1.6-1.6,1.6
		C166.1,55.9,165.5,55.4,165.5,54.4"/>
	<polygon class="st8" points="169.5,52.3 170.2,52.3 171.9,54.5 171.9,52.3 172.7,52.3 172.7,55.9 172,55.9 170.3,53.6 170.3,55.9 
		169.5,55.9 	"/>
	<path class="st8" d="M173.5,52.3h1.4c1.1,0,1.9,0.8,1.9,1.8v0c0,1-0.8,1.8-1.9,1.8h-1.4V52.3z M174.3,53v2.2h0.6
		c0.6,0,1.1-0.4,1.1-1.1v0c0-0.6-0.4-1.1-1.1-1.1H174.3z"/>
	<path class="st8" d="M178.5,52.3h0.7l1.5,3.6h-0.8l-0.3-0.8h-1.5l-0.3,0.8H177L178.5,52.3z M179.3,54.4l-0.5-1.2l-0.5,1.2H179.3z"
		/>
	<polygon class="st8" points="181.7,53 180.6,53 180.6,52.3 183.6,52.3 183.6,53 182.5,53 182.5,55.9 181.7,55.9 	"/>
</g>
<g>
	<defs>
		<rect id="SVGID_15_" x="50.7" y="0.9" width="177.4" height="55.1"/>
	</defs>
	<clipPath id="SVGID_16_">
		<use xlink:href="#SVGID_15_"  style="overflow:visible;"/>
	</clipPath>
	<rect x="184.2" y="52.3" class="st9" width="0.8" height="3.6"/>
	<path class="st9" d="M185.7,54.1L185.7,54.1c0-1,0.8-1.9,1.9-1.9c1.1,0,1.9,0.8,1.9,1.8v0c0,1-0.8,1.9-1.9,1.9
		C186.5,56,185.7,55.1,185.7,54.1 M188.7,54.1L188.7,54.1c0-0.6-0.5-1.1-1.1-1.1c-0.6,0-1.1,0.5-1.1,1.1v0c0,0.6,0.4,1.1,1.1,1.1
		C188.3,55.2,188.7,54.7,188.7,54.1"/>
</g>
<g>
	<defs>
		<rect id="SVGID_17_" x="32.3" y="0.9" width="214.2" height="55.1"/>
	</defs>
	<clipPath id="SVGID_18_">
		<use xlink:href="#SVGID_17_"  style="overflow:visible;"/>
	</clipPath>
	<polygon class="st10" points="190.2,52.3 191,52.3 192.6,54.5 192.6,52.3 193.4,52.3 193.4,55.9 192.7,55.9 191,53.6 191,55.9 
		190.2,55.9 	"/>
	<rect x="195.8" y="52.3" class="st10" width="0.8" height="3.6"/>
	<polygon class="st10" points="197.5,52.3 198.3,52.3 199.9,54.5 199.9,52.3 200.7,52.3 200.7,55.9 200,55.9 198.3,53.6 198.3,55.9 
		197.5,55.9 	"/>
	<rect x="201.6" y="52.3" class="st10" width="0.8" height="3.6"/>
	<polygon class="st10" points="204.1,53 203,53 203,52.3 206,52.3 206,53 204.9,53 204.9,55.9 204.1,55.9 	"/>
	<rect x="206.6" y="52.3" class="st10" width="0.8" height="3.6"/>
	<path class="st10" d="M209.6,52.3h0.7l1.5,3.6H211l-0.3-0.8h-1.5l-0.3,0.8H208L209.6,52.3z M210.4,54.4l-0.5-1.2l-0.5,1.2H210.4z"
		/>
	<polygon class="st10" points="212.7,53 211.6,53 211.6,52.3 214.6,52.3 214.6,53 213.5,53 213.5,55.9 212.7,55.9 	"/>
	<rect x="215.3" y="52.3" class="st10" width="0.8" height="3.6"/>
	<polygon class="st10" points="216.6,52.3 217.5,52.3 218.4,54.8 219.4,52.3 220.2,52.3 218.8,55.9 218.1,55.9 	"/>
	<polygon class="st10" points="220.8,52.3 223.5,52.3 223.5,53 221.6,53 221.6,53.7 223.2,53.7 223.2,54.4 221.6,54.4 221.6,55.2 
		223.5,55.2 223.5,55.9 220.8,55.9 	"/>
	<path class="st10" d="M224.7,35.8l0.2-0.2c0.2,0.1,0.3,0.2,0.6,0.2c0.2,0,0.3-0.1,0.3-0.2v0c0-0.1-0.1-0.2-0.4-0.3
		c-0.4-0.1-0.6-0.2-0.6-0.5v0c0-0.3,0.2-0.5,0.6-0.5c0.3,0,0.5,0.1,0.6,0.2l-0.2,0.2c-0.2-0.1-0.3-0.2-0.5-0.2
		c-0.2,0-0.3,0.1-0.3,0.2v0c0,0.1,0.1,0.2,0.4,0.3c0.4,0.1,0.6,0.2,0.6,0.5v0c0,0.3-0.3,0.5-0.6,0.5C225.2,36.1,224.9,36,224.7,35.8
		"/>
	<polygon class="st10" points="226.4,34.3 226.7,34.3 227.3,35.2 227.8,34.3 228.1,34.3 228.1,36.1 227.8,36.1 227.8,34.8 
		227.3,35.7 227.3,35.7 226.7,34.8 226.7,36.1 226.4,36.1 	"/>
</g>
</svg>
