<?xml version="1.0" encoding="utf-8"?>
<!-- Generator: Adobe Illustrator 22.0.1, SVG Export Plug-In . SVG Version: 6.00 Build 0)  -->
<!DOCTYPE svg PUBLIC "-//W3C//DTD SVG 1.1//EN" "http://www.w3.org/Graphics/SVG/1.1/DTD/svg11.dtd">
<svg version="1.1" id="Layer_1" xmlns="http://www.w3.org/2000/svg" xmlns:xlink="http://www.w3.org/1999/xlink" x="0px" y="0px"
	 width="276px" height="56.9px" viewBox="0 0 276 56.9" style="enable-background:new 0 0 276 56.9;" xml:space="preserve">
<style type="text/css">
	.st0{clip-path:url(#SVGID_2_);fill:#231F20;}
	.st1{clip-path:url(#SVGID_2_);fill:#F05E24;}
	.st2{clip-path:url(#SVGID_2_);fill:#010101;}
	.st3{clip-path:url(#SVGID_2_);fill:#211E1F;}
</style>
<g>
	<defs>
		<rect id="SVGID_1_" x="31" y="0.4" width="215.8" height="55.5"/>
	</defs>
	<clipPath id="SVGID_2_">
		<use xlink:href="#SVGID_1_"  style="overflow:visible;"/>
	</clipPath>
	<path class="st0" d="M240.6,14.7l0.2-0.3c0.2,0.2,0.4,0.3,0.6,0.3c0.2,0,0.4-0.1,0.4-0.3v0c0-0.1-0.1-0.2-0.5-0.3
		c-0.4-0.1-0.7-0.2-0.7-0.6v0c0-0.3,0.3-0.6,0.7-0.6c0.3,0,0.5,0.1,0.7,0.3l-0.2,0.3c-0.2-0.1-0.4-0.2-0.6-0.2
		c-0.2,0-0.3,0.1-0.3,0.2v0c0,0.2,0.1,0.2,0.5,0.3c0.4,0.1,0.7,0.3,0.7,0.6v0c0,0.4-0.3,0.6-0.7,0.6
		C241.1,15.1,240.8,14.9,240.6,14.7"/>
	<polygon class="st0" points="242.6,13 242.9,13 243.6,14 244.2,13 244.6,13 244.6,15 244.2,15 244.2,13.6 243.6,14.5 243.6,14.5 
		242.9,13.6 242.9,15 242.6,15 	"/>
	<polygon class="st1" points="40.9,38.1 43.6,12.9 38.6,12.9 36.7,12.9 34.7,12.9 35.5,14.2 36.4,15.4 33.3,44.4 56,44.4 56.6,38.1 
			"/>
	<path class="st2" d="M179.5,31.6l0.3-3.3c-3,1.1-6,2.2-9.2,3.3H179.5z"/>
	<path class="st1" d="M226.6,13h-0.4C226.4,13,226.5,13,226.6,13L226.6,13z"/>
	<polygon class="st1" points="63.4,12.9 61.4,12.9 62.3,14.2 63.1,15.4 60.1,44.4 84.1,44.4 84.7,38.3 67.6,38.3 68.3,31.6 
		83.1,31.6 83.8,25.5 68.9,25.5 69.6,19.1 86.5,19.1 87.1,12.9 65.4,12.9 	"/>
	<path class="st1" d="M112.1,43.1c1.8-0.2,4.2-0.4,7-0.8l-9.4-29.4h-6.5v0h-1h-2l0.9,1.2l0.8,1.2L86.4,44.4h7.1l3.6-7.1h13.3
		L112.1,43.1z M100.2,31.2l5.3-10.2l3.1,10.2H100.2z"/>
	<path class="st2" d="M112.5,44.2l0.1,0.2h7.2l-0.3-1C116.7,43.8,114.3,44,112.5,44.2"/>
	<path class="st1" d="M126.6,15.4l-2.8,26.2c7.5-1.1,17.1-2.7,27.6-5.3c1.5-2.3,2.5-4.9,2.8-7.7l0-0.1c0.9-8.9-5.2-15.7-15.1-15.7
		h-10.3h-2h-2l0.9,1.2L126.6,15.4z M133.1,19.2h5.4c5.7,0,9.1,3.9,8.5,9.5l0,0.1c-0.6,5.6-4.8,9.4-10.5,9.4h-5.4L133.1,19.2z"/>
	<path class="st2" d="M123.7,42.8l-0.2,1.6h12.3c6.1,0,11.2-2.6,14.5-6.6C140.2,40.2,131,41.8,123.7,42.8"/>
	<path class="st1" d="M159.5,15.4l-2,19.4c2.3-0.6,4.7-1.3,7.1-2l0.1-1.1h3.5c3.9-1.3,7.8-2.6,11.8-4.2l0.2-2h-14.8l0.7-6.4h16.9
		l0.6-6.2h-21.8h-2h-2l0.9,1.2L159.5,15.4z"/>
	<path class="st2" d="M164.4,34c-2.4,0.7-4.8,1.4-7.1,2l-0.9,8.4h24l0.6-6.2H164L164.4,34z"/>
	<path class="st1" d="M187.4,15.4l-1,9.4c2.5-1.1,4.9-2.2,7.3-3.4l0.2-2.3h4.1c3.1-1.7,6.2-3.5,9.2-5.4c-1.5-0.5-3.2-0.8-5.2-0.8
		h-12.4h-2h-2l0.9,1.2L187.4,15.4z"/>
	<path class="st1" d="M207.6,14.9c0.3-0.2,0.6-0.4,1-0.6c0,0,0,0,0,0C208.2,14.5,207.9,14.7,207.6,14.9"/>
	<path class="st2" d="M210.9,16.1c-0.6-0.7-1.4-1.3-2.4-1.8c-0.3,0.2-0.6,0.4-1,0.6c-2.3,1.5-4.7,2.9-7.1,4.3h0.4
		c3.4,0,5.3,1.5,5,4.5l0,0.1c-0.3,2.7-2.4,4.5-5.8,4.5h-7l0.6-5.4c-2.4,1.2-4.8,2.3-7.3,3.3l-1.9,18.3h6.9l1.1-10.1h5.4l5.7,10.1
		h8.1l-6.5-11.2c4.2-1.5,7.2-4.7,7.8-9.8l0-0.1C213.2,20.4,212.5,17.9,210.9,16.1"/>
	<path class="st2" d="M78.5,4.8h-45c-0.1,0-0.2-0.1-0.2-0.2s0.1-0.2,0.2-0.2h45c0.1,0,0.2,0.1,0.2,0.2S78.6,4.8,78.5,4.8"/>
	<path class="st2" d="M238.8,4.8h-45.4c-0.1,0-0.2-0.1-0.2-0.2c0-0.1,0.1-0.2,0.2-0.2h45.4c0.1,0,0.2,0.1,0.2,0.2
		C239.1,4.7,239,4.8,238.8,4.8"/>
	<path class="st2" d="M84.2,0.5h3.1c0.9,0,1.6,0.3,2,0.7C89.7,1.6,90,2.1,90,2.8v0c0,1.2-0.7,1.9-1.7,2.1l1.9,2.7h-1.5L87,5.1h-1.6
		v2.5h-1.2V0.5z M87.2,4c0.9,0,1.5-0.5,1.5-1.2v0c0-0.8-0.5-1.2-1.5-1.2h-1.8V4H87.2z"/>
	<path class="st2" d="M95,0.5h1.1l3.1,7.1h-1.3l-0.7-1.7h-3.3l-0.7,1.7h-1.3L95,0.5z M96.8,4.8L95.5,2l-1.2,2.8H96.8z"/>
	<rect x="101.5" y="0.5" class="st2" width="1.2" height="7.1"/>
	<path class="st2" d="M105.2,6.6l0.7-0.9c0.7,0.6,1.4,0.9,2.2,0.9c0.8,0,1.2-0.4,1.2-0.9v0c0-0.5-0.3-0.8-1.6-1.1
		c-1.5-0.4-2.3-0.8-2.3-2.1v0c0-1.2,1-2,2.4-2c1,0,1.8,0.3,2.6,0.9l-0.7,0.9c-0.6-0.5-1.3-0.7-1.9-0.7c-0.7,0-1.1,0.4-1.1,0.8v0
		c0,0.5,0.3,0.8,1.7,1.1c1.5,0.4,2.3,0.9,2.3,2.1v0c0,1.3-1,2.1-2.5,2.1C107.1,7.7,106,7.3,105.2,6.6"/>
	<rect x="113.2" y="0.5" class="st2" width="1.2" height="7.1"/>
	<polygon class="st2" points="117.3,0.5 118.5,0.5 122.3,5.4 122.3,0.5 123.5,0.5 123.5,7.6 122.4,7.6 118.5,2.6 118.5,7.6 
		117.3,7.6 	"/>
	<path class="st2" d="M126,4.1L126,4.1c0-2,1.5-3.7,3.6-3.7c1.2,0,2,0.3,2.7,1l-0.8,0.9c-0.5-0.5-1.1-0.8-2-0.8
		c-1.3,0-2.3,1.1-2.3,2.5v0c0,1.5,1,2.5,2.4,2.5c0.7,0,1.3-0.2,1.7-0.5V4.7h-1.8V3.6h3v3c-0.7,0.6-1.7,1.1-2.9,1.1
		C127.4,7.7,126,6.1,126,4.1"/>
	<path class="st2" d="M139.8,6.6l0.7-0.9c0.7,0.6,1.4,0.9,2.2,0.9c0.8,0,1.2-0.4,1.2-0.9v0c0-0.5-0.3-0.8-1.6-1.1
		c-1.5-0.4-2.3-0.8-2.3-2.1v0c0-1.2,1-2,2.4-2c1,0,1.8,0.3,2.6,0.9l-0.7,0.9c-0.6-0.5-1.3-0.7-1.9-0.7c-0.7,0-1.1,0.4-1.1,0.8v0
		c0,0.5,0.3,0.8,1.7,1.1c1.5,0.4,2.3,0.9,2.3,2.1v0c0,1.3-1,2.1-2.5,2.1C141.6,7.7,140.6,7.3,139.8,6.6"/>
	<path class="st2" d="M147.4,4.1L147.4,4.1c0-2,1.5-3.7,3.6-3.7c1.3,0,2.1,0.5,2.8,1.1L153,2.4c-0.6-0.5-1.2-0.9-2-0.9
		c-1.3,0-2.3,1.1-2.3,2.5v0c0,1.4,1,2.5,2.3,2.5c0.9,0,1.4-0.3,2-0.9l0.8,0.8c-0.7,0.8-1.5,1.3-2.9,1.3
		C148.9,7.7,147.4,6.1,147.4,4.1"/>
	<polygon class="st2" points="156.2,0.5 157.4,0.5 157.4,3.5 160.8,3.5 160.8,0.5 162,0.5 162,7.6 160.8,7.6 160.8,4.6 157.4,4.6 
		157.4,7.6 156.2,7.6 	"/>
	<path class="st2" d="M164.5,4.1L164.5,4.1c0-2,1.5-3.7,3.7-3.7c2.2,0,3.7,1.6,3.7,3.6v0c0,2-1.5,3.6-3.7,3.6
		C166,7.7,164.5,6.1,164.5,4.1 M170.6,4.1L170.6,4.1c0-1.4-1-2.5-2.4-2.5c-1.4,0-2.4,1.1-2.4,2.5v0c0,1.4,1,2.5,2.4,2.5
		C169.6,6.6,170.6,5.4,170.6,4.1"/>
	<path class="st2" d="M174.1,4.1L174.1,4.1c0-2,1.5-3.7,3.7-3.7s3.7,1.6,3.7,3.6v0c0,2-1.5,3.6-3.7,3.6
		C175.6,7.7,174.1,6.1,174.1,4.1 M180.2,4.1L180.2,4.1c0-1.4-1-2.5-2.4-2.5c-1.4,0-2.4,1.1-2.4,2.5v0c0,1.4,1,2.5,2.4,2.5
		C179.2,6.6,180.2,5.4,180.2,4.1"/>
	<polygon class="st2" points="184,0.5 185.2,0.5 185.2,6.5 188.9,6.5 188.9,7.6 184,7.6 	"/>
	<path class="st2" d="M229.4,25.7c-5.3-1.4-6.6-2.1-6.3-4.1l0-0.1c0.2-1.5,1.7-2.7,4.3-2.7c2.6,0,5.3,1.2,7.8,3.1l4.1-5.2
		c-2.9-2.6-6.7-4-11.2-4c-6.4,0-11.4,3.8-12,9.5l0,0.1c-0.7,6.2,3.2,8,9.4,9.6c5.1,1.3,6.1,2.2,5.9,4l0,0.1c-0.2,1.8-2,3-4.8,3
		c-3.6,0-6.4-1.5-9-3.8l-4.6,4.9c3.4,3.4,8,5,12.8,5c6.8,0,11.9-3.5,12.6-9.7l0-0.1C238.9,29.6,235.6,27.3,229.4,25.7"/>
	<path class="st3" d="M53,51.7h0.8l1.8,4.1h-0.9l-0.4-0.9h-1.7l-0.4,0.9h-0.9L53,51.7z M53.9,54.1l-0.5-1.3l-0.5,1.3H53.9z"/>
	<path class="st3" d="M58,51.7h1.9c0.5,0,0.9,0.1,1.2,0.4c0.2,0.2,0.4,0.6,0.4,0.9v0c0,0.7-0.4,1.1-0.9,1.3l1,1.5h-1.1l-0.9-1.3
		h-0.7v1.3H58V51.7z M59.9,53.7c0.4,0,0.7-0.2,0.7-0.6v0c0-0.4-0.3-0.6-0.7-0.6h-0.9v1.2H59.9z"/>
	<path class="st3" d="M63.7,51.7h0.8l1.8,4.1h-0.9L65,54.9h-1.7l-0.4,0.9H62L63.7,51.7z M64.7,54.1l-0.5-1.3l-0.5,1.3H64.7z"/>
	<rect x="67.1" y="51.7" class="st3" width="0.9" height="4.1"/>
	<path class="st3" d="M68.8,55.2l0.5-0.6c0.4,0.3,0.8,0.5,1.2,0.5c0.4,0,0.6-0.1,0.6-0.4v0c0-0.2-0.1-0.3-0.8-0.5
		c-0.8-0.2-1.4-0.4-1.4-1.3v0c0-0.7,0.6-1.2,1.4-1.2c0.6,0,1.1,0.2,1.5,0.5l-0.5,0.7c-0.4-0.3-0.7-0.4-1.1-0.4
		c-0.3,0-0.5,0.2-0.5,0.4v0c0,0.3,0.2,0.4,0.9,0.5c0.8,0.2,1.3,0.5,1.3,1.2v0c0,0.8-0.6,1.3-1.5,1.3C69.9,55.9,69.3,55.7,68.8,55.2"
		/>
	<polygon class="st3" points="72.8,51.7 75.9,51.7 75.9,52.5 73.7,52.5 73.7,53.4 75.7,53.4 75.7,54.2 73.7,54.2 73.7,55 76,55 
		76,55.8 72.8,55.8 	"/>
	<polygon class="st3" points="79.8,54.2 78.2,51.7 79.3,51.7 80.2,53.4 81.2,51.7 82.3,51.7 80.7,54.2 80.7,55.8 79.8,55.8 	"/>
	<path class="st3" d="M82.3,53.8L82.3,53.8c0-1.2,0.9-2.1,2.2-2.1s2.2,0.9,2.2,2.1v0c0,1.2-0.9,2.1-2.2,2.1
		C83.3,55.9,82.3,55,82.3,53.8 M85.8,53.8L85.8,53.8c0-0.7-0.5-1.3-1.2-1.3c-0.7,0-1.2,0.6-1.2,1.3v0c0,0.7,0.5,1.3,1.2,1.3
		S85.8,54.5,85.8,53.8"/>
	<path class="st3" d="M87.5,54.1v-2.4h0.9V54c0,0.7,0.3,1,0.9,1c0.6,0,0.9-0.3,0.9-1v-2.4h0.9V54c0,1.2-0.7,1.9-1.8,1.9
		C88.2,55.9,87.5,55.3,87.5,54.1"/>
	<path class="st3" d="M92.1,51.7h1.9c0.5,0,0.9,0.1,1.2,0.4c0.2,0.2,0.4,0.6,0.4,0.9v0c0,0.7-0.4,1.1-0.9,1.3l1,1.5h-1.1l-0.9-1.3
		H93v1.3h-0.9V51.7z M93.9,53.7c0.4,0,0.7-0.2,0.7-0.6v0c0-0.4-0.3-0.6-0.7-0.6H93v1.2H93.9z"/>
	<polygon class="st3" points="98.2,51.7 99.1,51.7 99.1,53.3 100.7,53.3 100.7,51.7 101.6,51.7 101.6,55.8 100.7,55.8 100.7,54.2 
		99.1,54.2 99.1,55.8 98.2,55.8 	"/>
	<path class="st3" d="M104.1,51.7h0.8l1.8,4.1h-0.9l-0.4-0.9h-1.7l-0.4,0.9h-0.9L104.1,51.7z M105,54.1l-0.5-1.3l-0.5,1.3H105z"/>
	<polygon class="st3" points="107.3,51.7 108.2,51.7 110.1,54.2 110.1,51.7 111,51.7 111,55.8 110.2,55.8 108.2,53.2 108.2,55.8 
		107.3,55.8 	"/>
	<path class="st3" d="M112,51.7h1.6c1.3,0,2.2,0.9,2.2,2v0c0,1.2-0.9,2.1-2.2,2.1H112V51.7z M112.9,52.5V55h0.7
		c0.7,0,1.2-0.5,1.2-1.2v0c0-0.7-0.5-1.2-1.2-1.2H112.9z"/>
	<polygon class="st3" points="119.4,52.5 118.2,52.5 118.2,51.7 121.6,51.7 121.6,52.5 120.3,52.5 120.3,55.8 119.4,55.8 	"/>
	<polygon class="st3" points="122.3,51.7 125.4,51.7 125.4,52.5 123.2,52.5 123.2,53.4 125.2,53.4 125.2,54.2 123.2,54.2 123.2,55 
		125.5,55 125.5,55.8 122.3,55.8 	"/>
	<polygon class="st3" points="129.9,51.7 128.5,53.7 129.9,55.8 128.9,55.8 128,54.4 127,55.8 126,55.8 127.4,53.7 126.1,51.7 
		127.1,51.7 128,53 128.8,51.7 	"/>
	<path class="st3" d="M131.9,51.7h0.8l1.8,4.1h-0.9l-0.4-0.9h-1.7l-0.4,0.9h-0.9L131.9,51.7z M132.9,54.1l-0.5-1.3l-0.5,1.3H132.9z"
		/>
	<path class="st3" d="M134.9,55.2l0.5-0.6c0.4,0.3,0.8,0.5,1.2,0.5c0.4,0,0.6-0.1,0.6-0.4v0c0-0.2-0.1-0.3-0.8-0.5
		c-0.8-0.2-1.4-0.4-1.4-1.3v0c0-0.7,0.6-1.2,1.4-1.2c0.6,0,1.1,0.2,1.5,0.5l-0.5,0.7c-0.4-0.3-0.7-0.4-1.1-0.4
		c-0.3,0-0.5,0.2-0.5,0.4v0c0,0.3,0.2,0.4,0.9,0.5c0.8,0.2,1.3,0.5,1.3,1.2v0c0,0.8-0.6,1.3-1.5,1.3C136,55.9,135.4,55.7,134.9,55.2
		"/>
	<path class="st3" d="M138.5,52.7L138.5,52.7c0-0.6,0.5-1,1-1c0.6,0,1,0.5,1,1v0c0,0.6-0.5,1-1,1C139,53.7,138.5,53.2,138.5,52.7
		 M140.5,52.7L140.5,52.7c0-0.5-0.4-0.9-0.9-0.9c-0.5,0-0.9,0.4-0.9,0.9v0c0,0.5,0.4,0.9,0.9,0.9C140.1,53.6,140.5,53.2,140.5,52.7
		 M139.1,52.1h0.5c0.3,0,0.5,0.1,0.5,0.4c0,0.2-0.1,0.3-0.2,0.3l0.3,0.4h-0.4l-0.2-0.3h-0.1v0.3h-0.3V52.1z M139.6,52.6
		c0.1,0,0.2-0.1,0.2-0.1c0-0.1-0.1-0.1-0.2-0.1h-0.2v0.3H139.6z"/>
	<polygon class="st3" points="143,51.7 146.1,51.7 146.1,52.5 143.9,52.5 143.9,53.4 145.8,53.4 145.8,54.2 143.9,54.2 143.9,55.8 
		143,55.8 	"/>
	<path class="st3" d="M146.7,53.8L146.7,53.8c0-1.2,0.9-2.1,2.2-2.1s2.2,0.9,2.2,2.1v0c0,1.2-0.9,2.1-2.2,2.1
		C147.6,55.9,146.7,55,146.7,53.8 M150.1,53.8L150.1,53.8c0-0.7-0.5-1.3-1.2-1.3c-0.7,0-1.2,0.6-1.2,1.3v0c0,0.7,0.5,1.3,1.2,1.3
		C149.6,55.1,150.1,54.5,150.1,53.8"/>
	<path class="st3" d="M151.9,54.1v-2.4h0.9V54c0,0.7,0.3,1,0.9,1s0.9-0.3,0.9-1v-2.4h0.9V54c0,1.2-0.7,1.9-1.8,1.9
		C152.5,55.9,151.9,55.3,151.9,54.1"/>
	<polygon class="st3" points="156.4,51.7 157.2,51.7 159.2,54.2 159.2,51.7 160.1,51.7 160.1,55.8 159.3,55.8 157.3,53.2 
		157.3,55.8 156.4,55.8 	"/>
	<path class="st3" d="M161.1,51.7h1.6c1.3,0,2.2,0.9,2.2,2v0c0,1.2-0.9,2.1-2.2,2.1h-1.6V51.7z M162,52.5V55h0.7
		c0.7,0,1.2-0.5,1.2-1.2v0c0-0.7-0.5-1.2-1.2-1.2H162z"/>
	<path class="st3" d="M166.8,51.7h0.8l1.8,4.1h-0.9l-0.4-0.9h-1.7l-0.4,0.9h-0.9L166.8,51.7z M167.8,54.1l-0.5-1.3l-0.5,1.3H167.8z"
		/>
	<polygon class="st3" points="170.6,52.5 169.3,52.5 169.3,51.7 172.7,51.7 172.7,52.5 171.5,52.5 171.5,55.8 170.6,55.8 	"/>
	<rect x="173.5" y="51.7" class="st3" width="0.9" height="4.1"/>
	<path class="st3" d="M175.3,53.8L175.3,53.8c0-1.2,0.9-2.1,2.2-2.1s2.2,0.9,2.2,2.1v0c0,1.2-0.9,2.1-2.2,2.1
		C176.2,55.9,175.3,55,175.3,53.8 M178.7,53.8L178.7,53.8c0-0.7-0.5-1.3-1.2-1.3c-0.7,0-1.2,0.6-1.2,1.3v0c0,0.7,0.5,1.3,1.2,1.3
		C178.2,55.1,178.7,54.5,178.7,53.8"/>
	<polygon class="st3" points="180.5,51.7 181.3,51.7 183.3,54.2 183.3,51.7 184.2,51.7 184.2,55.8 183.4,55.8 181.4,53.2 
		181.4,55.8 180.5,55.8 	"/>
	<rect x="187" y="51.7" class="st3" width="0.9" height="4.1"/>
	<polygon class="st3" points="189,51.7 189.8,51.7 191.8,54.2 191.8,51.7 192.7,51.7 192.7,55.8 191.9,55.8 189.9,53.2 189.9,55.8 
		189,55.8 	"/>
	<rect x="193.7" y="51.7" class="st3" width="0.9" height="4.1"/>
	<polygon class="st3" points="196.7,52.5 195.4,52.5 195.4,51.7 198.8,51.7 198.8,52.5 197.6,52.5 197.6,55.8 196.7,55.8 	"/>
	<rect x="199.6" y="51.7" class="st3" width="0.9" height="4.1"/>
	<path class="st3" d="M203,51.7h0.8l1.8,4.1h-0.9l-0.4-0.9h-1.7l-0.4,0.9h-0.9L203,51.7z M203.9,54.1l-0.5-1.3l-0.5,1.3H203.9z"/>
	<polygon class="st3" points="206.7,52.5 205.4,52.5 205.4,51.7 208.9,51.7 208.9,52.5 207.6,52.5 207.6,55.8 206.7,55.8 	"/>
	<rect x="209.6" y="51.7" class="st3" width="0.9" height="4.1"/>
	<polygon class="st3" points="211.3,51.7 212.3,51.7 213.3,54.6 214.4,51.7 215.4,51.7 213.7,55.9 212.9,55.9 	"/>
	<polygon class="st3" points="216.1,51.7 219.2,51.7 219.2,52.5 217,52.5 217,53.4 218.9,53.4 218.9,54.2 217,54.2 217,55 219.2,55 
		219.2,55.8 216.1,55.8 	"/>
</g>
</svg>
