<?xml version="1.0" encoding="utf-8"?>
<!-- Generator: Adobe Illustrator 25.2.3, SVG Export Plug-In . SVG Version: 6.00 Build 0)  -->
<svg version="1.1" id="Layer_1" xmlns="http://www.w3.org/2000/svg" xmlns:xlink="http://www.w3.org/1999/xlink" x="0px" y="0px"
	 viewBox="0 0 786.77 207.02" style="enable-background:new 0 0 786.77 207.02;" xml:space="preserve">
<style type="text/css">
	.st0{fill:#F15C22;}
</style>
<g>
	<path d="M544.53,115.89l1.28-12.23c-11.07,4.26-22.44,8.34-34.08,12.23H544.53z"/>
	<path d="M294.99,162.56l0.26,0.87h26.95l-1.21-3.78C310.68,160.95,301.92,161.89,294.99,162.56z"/>
	<path d="M336.73,157.55l-0.62,5.88h45.7c22.53,0,41.75-9.62,54.12-24.61C398.23,147.82,363.81,153.74,336.73,157.55z"/>
	<path d="M488.35,124.74c-8.89,2.67-17.7,5.17-26.4,7.51l-3.28,31.19h89.23l2.41-22.93H486.7L488.35,124.74z"/>
	<path d="M168.51,15.86H0.88C0.39,15.86,0,15.46,0,14.98s0.39-0.88,0.88-0.88h167.63c0.49,0,0.88,0.39,0.88,0.88
		S168.99,15.86,168.51,15.86z"/>
	<path d="M765.23,15.98H596.16c-0.49,0-0.88-0.39-0.88-0.88c0-0.48,0.39-0.88,0.88-0.88h169.07c0.49,0,0.88,0.39,0.88,0.88
		C766.11,15.59,765.72,15.98,765.23,15.98z"/>
	<g>
		<path d="M189.78,0.1h11.7c3.3,0,5.88,0.97,7.57,2.62c1.39,1.43,2.17,3.37,2.17,5.66v0.07c0,4.31-2.59,6.9-6.22,7.95l7.09,9.93
			h-5.48l-6.45-9.15h-5.77v9.15h-4.61V0.1z M201.14,13.11c3.3,0,5.4-1.72,5.4-4.39V8.65c0-2.81-2.03-4.35-5.44-4.35h-6.71v8.81
			H201.14z"/>
		<path d="M229.95-0.09h4.27l11.55,26.43h-4.87l-2.66-6.34h-12.41l-2.7,6.34h-4.73L229.95-0.09z M236.55,15.92l-4.54-10.5l-4.5,10.5
			H236.55z"/>
		<path d="M254.3,0.1h4.61v26.25h-4.61V0.1z"/>
		<path d="M267.92,22.52l2.77-3.3c2.51,2.17,5.06,3.41,8.29,3.41c2.85,0,4.65-1.35,4.65-3.3v-0.08c0-1.87-1.05-2.89-5.92-4.01
			c-5.59-1.35-8.74-3-8.74-7.83V7.34c0-4.5,3.75-7.61,8.96-7.61c3.82,0,6.86,1.16,9.52,3.3l-2.47,3.49c-2.36-1.76-4.73-2.7-7.13-2.7
			c-2.7,0-4.27,1.39-4.27,3.11V7c0,2.03,1.2,2.92,6.26,4.12c5.55,1.35,8.4,3.34,8.4,7.69v0.07c0,4.91-3.86,7.84-9.37,7.84
			C274.85,26.72,271.07,25.33,267.92,22.52z"/>
		<path d="M297.7,0.1h4.61v26.25h-4.61V0.1z"/>
		<path d="M313.08,0.1h4.28l14.06,18.15V0.1h4.54v26.25h-3.86L317.62,7.67v18.67h-4.54V0.1z"/>
		<path d="M345.31,13.3v-0.07c0-7.35,5.62-13.58,13.53-13.58c4.57,0,7.39,1.28,10.09,3.56L366,6.7c-2.02-1.72-4.01-2.81-7.35-2.81
			c-4.84,0-8.51,4.24-8.51,9.26v0.08c0,5.4,3.56,9.37,8.92,9.37c2.48,0,4.72-0.79,6.34-1.99V15.7h-6.71v-4.01h11.17v11.02
			c-2.59,2.21-6.3,4.09-10.95,4.09C350.7,26.8,345.31,20.95,345.31,13.3z"/>
		<path d="M396.63,22.52l2.77-3.3c2.51,2.17,5.06,3.41,8.29,3.41c2.85,0,4.65-1.35,4.65-3.3v-0.08c0-1.87-1.05-2.89-5.92-4.01
			c-5.59-1.35-8.73-3-8.73-7.83V7.34c0-4.5,3.75-7.61,8.96-7.61c3.82,0,6.86,1.16,9.52,3.3l-2.47,3.49c-2.36-1.76-4.73-2.7-7.13-2.7
			c-2.7,0-4.27,1.39-4.27,3.11V7c0,2.03,1.2,2.92,6.26,4.12c5.55,1.35,8.4,3.34,8.4,7.69v0.07c0,4.91-3.86,7.84-9.37,7.84
			C403.56,26.72,399.78,25.33,396.63,22.52z"/>
		<path d="M424.99,13.3v-0.07c0-7.46,5.59-13.58,13.53-13.58c4.84,0,7.76,1.69,10.27,4.09l-2.96,3.41c-2.1-1.95-4.35-3.26-7.35-3.26
			c-4.99,0-8.66,4.13-8.66,9.26v0.08c0,5.14,3.64,9.3,8.66,9.3c3.22,0,5.29-1.28,7.54-3.37l2.96,3c-2.74,2.85-5.74,4.65-10.65,4.65
			C430.68,26.8,424.99,20.84,424.99,13.3z"/>
		<path d="M457.58,0.1h4.61v10.91h12.52V0.1h4.61v26.25h-4.61V15.29H462.2v11.06h-4.61V0.1z"/>
		<path d="M488.68,13.3v-0.07c0-7.39,5.7-13.58,13.76-13.58s13.69,6.11,13.69,13.5v0.08c0,7.39-5.7,13.57-13.76,13.57
			C494.31,26.8,488.68,20.68,488.68,13.3z M511.29,13.3v-0.07c0-5.1-3.71-9.34-8.93-9.34c-5.21,0-8.85,4.16-8.85,9.26v0.08
			c0,5.1,3.71,9.3,8.92,9.3S511.29,18.4,511.29,13.3z"/>
		<path d="M524.32,13.3v-0.07c0-7.39,5.7-13.58,13.76-13.58c8.06,0,13.69,6.11,13.69,13.5v0.08c0,7.39-5.7,13.57-13.76,13.57
			C529.95,26.8,524.32,20.68,524.32,13.3z M546.93,13.3v-0.07c0-5.1-3.71-9.34-8.93-9.34c-5.21,0-8.85,4.16-8.85,9.26v0.08
			c0,5.1,3.71,9.3,8.92,9.3C543.29,22.52,546.93,18.4,546.93,13.3z"/>
		<path d="M561.12,0.1h4.61v22.05h13.8v4.2h-18.41V0.1z"/>
	</g>
	<path d="M730,93.68c-19.65-5.17-24.4-7.68-23.59-15.36l0.04-0.33c0.6-5.68,6.24-10.19,16.09-10.19c9.85,0,19.58,4.34,29.17,11.52
		l15.39-19.36c-10.85-9.52-24.81-14.86-41.84-14.86c-23.87,0-42.37,14.02-44.6,35.22l-0.04,0.33
		c-2.44,23.21,12.07,29.72,34.98,35.72c19,5.01,22.66,8.35,21.97,14.86l-0.04,0.33c-0.72,6.85-7.5,11.02-18.02,11.02
		c-13.36,0-23.79-5.51-33.4-14.19l-17.1,18.2c12.71,12.52,29.92,18.7,47.62,18.7c25.21,0,44.27-13.02,46.71-36.23l0.03-0.33
		C765.51,108.37,753.05,99.86,730,93.68z"/>
	<path d="M73.59,190.46h3.11l6.56,15.42h-3.52l-1.4-3.43h-6.48l-1.4,3.43h-3.43L73.59,190.46z M77.13,199.47l-2.03-4.97l-2.03,4.97
		H77.13z"/>
	<path d="M92.49,190.57h7c1.95,0,3.46,0.55,4.46,1.55c0.85,0.85,1.31,2.06,1.31,3.5v0.04c0,2.47-1.33,4.03-3.28,4.75l3.74,5.47
		h-3.94l-3.28-4.9h-2.65v4.9h-3.37V190.57z M99.27,198c1.64,0,2.58-0.88,2.58-2.17v-0.04c0-1.44-1.01-2.19-2.65-2.19h-3.35v4.4
		H99.27z"/>
	<path d="M113.71,190.46h3.11l6.56,15.42h-3.52l-1.4-3.43h-6.48l-1.4,3.43h-3.43L113.71,190.46z M117.26,199.47l-2.03-4.97
		l-2.03,4.97H117.26z"/>
	<path d="M126.06,190.57h3.37v15.31h-3.37V190.57z"/>
	<path d="M132.36,203.65l1.99-2.39c1.38,1.14,2.82,1.86,4.57,1.86c1.38,0,2.21-0.55,2.21-1.44v-0.04c0-0.85-0.52-1.29-3.08-1.95
		c-3.08-0.79-5.08-1.64-5.08-4.68v-0.04c0-2.78,2.23-4.61,5.36-4.61c2.23,0,4.13,0.7,5.69,1.95l-1.75,2.54
		c-1.36-0.94-2.69-1.51-3.98-1.51c-1.29,0-1.97,0.59-1.97,1.33v0.04c0,1.01,0.66,1.33,3.3,2.01c3.11,0.81,4.86,1.93,4.86,4.59v0.04
		c0,3.04-2.32,4.75-5.62,4.75C136.54,206.1,134.19,205.29,132.36,203.65z"/>
	<path d="M147.56,190.57h11.55v3h-8.2v3.11h7.22v3h-7.22v3.22h8.31v3h-11.66V190.57z"/>
	<path d="M173.4,199.84l-5.88-9.28h3.94l3.65,6.15l3.72-6.15h3.83l-5.88,9.21v6.1h-3.37V199.84z"/>
	<path d="M182.92,198.27v-0.04c0-4.35,3.43-7.92,8.16-7.92s8.12,3.52,8.12,7.88v0.04c0,4.35-3.43,7.92-8.16,7.92
		C186.31,206.14,182.92,202.62,182.92,198.27z M195.67,198.27v-0.04c0-2.63-1.93-4.81-4.64-4.81c-2.71,0-4.59,2.14-4.59,4.77v0.04
		c0,2.62,1.93,4.81,4.64,4.81C193.79,203.03,195.67,200.89,195.67,198.27z"/>
	<path d="M202.11,199.32v-8.75h3.37v8.66c0,2.49,1.25,3.78,3.3,3.78c2.06,0,3.3-1.25,3.3-3.68v-8.77h3.37v8.64
		c0,4.64-2.6,6.91-6.72,6.91C204.62,206.12,202.11,203.82,202.11,199.32z"/>
	<path d="M219.04,190.57h7c1.95,0,3.46,0.55,4.46,1.55c0.85,0.85,1.31,2.06,1.31,3.5v0.04c0,2.47-1.33,4.03-3.28,4.75l3.74,5.47
		h-3.94l-3.28-4.9h-2.65v4.9h-3.37V190.57z M225.82,198c1.64,0,2.58-0.88,2.58-2.17v-0.04c0-1.44-1.01-2.19-2.65-2.19h-3.35v4.4
		H225.82z"/>
	<path d="M241.73,190.57h3.37v6.06h6.21v-6.06h3.37v15.31h-3.37v-6.15h-6.21v6.15h-3.37V190.57z"/>
	<path d="M263.76,190.46h3.11l6.56,15.42h-3.52l-1.4-3.43h-6.48l-1.4,3.43h-3.43L263.76,190.46z M267.31,199.47l-2.04-4.97
		l-2.03,4.97H267.31z"/>
	<path d="M275.95,190.57h3.11l7.18,9.43v-9.43h3.33v15.31h-2.87l-7.42-9.73v9.73h-3.33V190.57z"/>
	<path d="M293.39,190.57h5.97c4.81,0,8.14,3.3,8.14,7.61v0.04c0,4.31-3.33,7.66-8.14,7.66h-5.97V190.57z M296.76,193.61v9.23h2.6
		c2.76,0,4.62-1.86,4.62-4.57v-0.04c0-2.71-1.86-4.62-4.62-4.62H296.76z"/>
	<path d="M320.93,193.67h-4.66v-3.11h12.69v3.11h-4.66v12.21h-3.37V193.67z"/>
	<path d="M331.7,190.57h11.55v3h-8.2v3.11h7.22v3h-7.22v3.22h8.31v3H331.7V190.57z"/>
	<path d="M359.79,190.57l-5.12,7.48l5.34,7.83h-3.94l-3.43-5.25l-3.46,5.25h-3.83l5.34-7.79l-5.12-7.53h3.94l3.19,4.97l3.26-4.97
		H359.79z"/>
	<path d="M367.49,190.46h3.11l6.56,15.42h-3.52l-1.4-3.43h-6.48l-1.4,3.43h-3.43L367.49,190.46z M371.04,199.47L369,194.5
		l-2.03,4.97H371.04z"/>
	<path d="M378.41,203.65l1.99-2.39c1.38,1.14,2.82,1.86,4.57,1.86c1.38,0,2.21-0.55,2.21-1.44v-0.04c0-0.85-0.53-1.29-3.08-1.95
		c-3.08-0.79-5.08-1.64-5.08-4.68v-0.04c0-2.78,2.23-4.61,5.36-4.61c2.23,0,4.14,0.7,5.69,1.95l-1.75,2.54
		c-1.36-0.94-2.69-1.51-3.98-1.51c-1.29,0-1.97,0.59-1.97,1.33v0.04c0,1.01,0.66,1.33,3.3,2.01c3.11,0.81,4.86,1.93,4.86,4.59v0.04
		c0,3.04-2.32,4.75-5.62,4.75C382.59,206.1,380.25,205.29,378.41,203.65z"/>
	<path d="M392,194.2v-0.02c0-2.08,1.69-3.83,3.81-3.83c2.14,0,3.81,1.73,3.81,3.81v0.02c0,2.08-1.69,3.83-3.81,3.83
		C393.66,198,392,196.28,392,194.2z M399.17,194.18v-0.02c0-1.86-1.44-3.39-3.37-3.39c-1.9,0-3.37,1.55-3.37,3.41v0.02
		c0,1.86,1.44,3.39,3.37,3.39C397.71,197.59,399.17,196.03,399.17,194.18z M394.14,192.1h1.92c0.98,0,1.68,0.41,1.68,1.36
		c0,0.63-0.33,1.07-0.83,1.27l0.96,1.4h-1.31l-0.81-1.2h-0.48v1.2h-1.14V192.1z M396,194.02c0.39,0,0.61-0.2,0.61-0.48
		c0-0.31-0.22-0.48-0.61-0.48h-0.72v0.96H396z"/>
	<path d="M408.54,190.57h11.66v3.06h-8.29v3.26h7.31v3.06h-7.31v5.93h-3.37V190.57z"/>
	<path d="M422.37,198.27v-0.04c0-4.35,3.44-7.92,8.16-7.92c4.73,0,8.11,3.52,8.11,7.88v0.04c0,4.35-3.43,7.92-8.16,7.92
		S422.37,202.62,422.37,198.27z M435.12,198.27v-0.04c0-2.63-1.92-4.81-4.64-4.81s-4.59,2.14-4.59,4.77v0.04
		c0,2.62,1.92,4.81,4.64,4.81C433.24,203.03,435.12,200.89,435.12,198.27z"/>
	<path d="M441.56,199.32v-8.75h3.37v8.66c0,2.49,1.25,3.78,3.3,3.78c2.06,0,3.3-1.25,3.3-3.68v-8.77h3.37v8.64
		c0,4.64-2.6,6.91-6.72,6.91C444.07,206.12,441.56,203.82,441.56,199.32z"/>
	<path d="M458.49,190.57h3.11l7.18,9.43v-9.43h3.33v15.31h-2.87l-7.42-9.73v9.73h-3.33V190.57z"/>
	<path d="M475.93,190.57h5.97c4.81,0,8.14,3.3,8.14,7.61v0.04c0,4.31-3.33,7.66-8.14,7.66h-5.97V190.57z M479.3,193.61v9.23h2.6
		c2.76,0,4.62-1.86,4.62-4.57v-0.04c0-2.71-1.86-4.62-4.62-4.62H479.3z"/>
	<path d="M497.35,190.46h3.11l6.56,15.42h-3.52l-1.4-3.43h-6.48l-1.4,3.43h-3.43L497.35,190.46z M500.89,199.47l-2.03-4.97
		l-2.03,4.97H500.89z"/>
	<path d="M511.13,193.67h-4.66v-3.11h12.69v3.11h-4.66v12.21h-3.37V193.67z"/>
	<path d="M522.05,190.57h3.37v15.31h-3.37V190.57z"/>
	<path d="M528.72,198.27v-0.04c0-4.35,3.44-7.92,8.16-7.92c4.73,0,8.11,3.52,8.11,7.88v0.04c0,4.35-3.43,7.92-8.16,7.92
		S528.72,202.62,528.72,198.27z M541.48,198.27v-0.04c0-2.63-1.92-4.81-4.64-4.81s-4.59,2.14-4.59,4.77v0.04
		c0,2.62,1.92,4.81,4.64,4.81C539.59,203.03,541.48,200.89,541.48,198.27z"/>
	<path d="M548.15,190.57h3.11l7.18,9.43v-9.43h3.33v15.31h-2.87l-7.42-9.73v9.73h-3.33V190.57z"/>
	<path d="M572.46,190.57h3.37v15.31h-3.37V190.57z"/>
	<path d="M579.81,190.57h3.11l7.18,9.43v-9.43h3.33v15.31h-2.87l-7.42-9.73v9.73h-3.33V190.57z"/>
	<path d="M597.4,190.57h3.37v15.31h-3.37V190.57z"/>
	<path d="M608.32,193.67h-4.66v-3.11h12.69v3.11h-4.66v12.21h-3.37V193.67z"/>
	<path d="M619.24,190.57h3.37v15.31h-3.37V190.57z"/>
	<path d="M631.84,190.46h3.11l6.56,15.42h-3.52l-1.4-3.43h-6.48l-1.4,3.43h-3.43L631.84,190.46z M635.39,199.47l-2.04-4.97
		l-2.03,4.97H635.39z"/>
	<path d="M645.63,193.67h-4.66v-3.11h12.69v3.11h-4.66v12.21h-3.37V193.67z"/>
	<path d="M656.54,190.57h3.37v15.31h-3.37V190.57z"/>
	<path d="M662.58,190.57h3.72l4,10.78l4-10.78h3.63l-6.19,15.42h-2.98L662.58,190.57z"/>
	<path d="M680.46,190.57h11.55v3h-8.2v3.11h7.22v3h-7.22v3.22h8.31v3h-11.66V190.57z"/>
	<g>
		<path class="st0" d="M28.84,139.99l9.85-93.75H20.24h-7.33H5.58l3.18,4.63l3.18,4.63L0.6,163.43H84.8l2.46-23.44H28.84z"/>
		<polygon class="st0" points="112.36,46.25 105.03,46.25 108.21,50.88 111.39,55.5 100.05,163.43 189.27,163.43 191.68,140.5 
			128.07,140.5 130.66,115.89 185.9,115.89 188.31,92.95 133.07,92.95 135.57,69.18 198.34,69.18 200.75,46.25 119.69,46.25 		"/>
		<path class="st0" d="M293.73,158.38c6.84-0.65,15.6-1.59,25.94-2.87L284.59,46.04h-24.31l0,0.01h-3.9h-7.33l3.18,4.63l3.16,4.6
			l-57.4,108.16h26.28l13.48-26.28h49.55L293.73,158.38z M249.35,114.38l19.56-38l11.58,38H249.35z"/>
		<path class="st0" d="M347.46,55.5l-10.26,97.66c28-3.97,63.72-10.17,102.74-19.69c5.59-8.41,9.22-18.14,10.32-28.63l0.04-0.33
			c3.47-32.98-19.32-58.26-56.15-58.26h-38.37h-7.33h-7.33l3.18,4.63L347.46,55.5z M371.77,69.52h19.92
			c21.09,0,33.79,14.57,31.61,35.32l-0.04,0.34c-2.18,20.76-17.91,34.99-39,34.99h-19.92L371.77,69.52z"/>
		<path class="st0" d="M470.02,55.5l-7.59,72.19c8.7-2.35,17.52-4.87,26.41-7.56l0.45-4.24h13.14c14.52-4.67,29.16-9.82,43.73-15.5
			l0.78-7.44h-55.24l2.5-23.77h62.77l2.41-22.93h-81.06h-7.33h-7.33l3.18,4.63L470.02,55.5z"/>
		<g>
			<path class="st0" d="M573.82,55.5l-3.68,35c9.13-3.97,18.17-8.18,27.1-12.61l0.88-8.38h15.31c11.7-6.31,23.12-13.04,34.15-20.25
				c-5.45-1.97-11.86-3.02-19.23-3.02h-46.24h-7.33h-7.33l3.18,4.63L573.82,55.5z"/>
			<path d="M668.49,84.92l-0.03,0.33c-1.98,18.92-13.45,30.8-28.94,36.33l24.24,41.86h-30.15l-21.17-37.51h-20.25l-3.93,37.51
				h-25.78l7.15-68.05c9.1-3.93,18.15-8.07,27.08-12.45l-2.13,20.22h26.1c12.56,0,20.49-6.68,21.52-16.58l0.03-0.33
				c1.15-11.06-5.94-16.73-18.5-16.73h-1.42c9.05-5.05,17.91-10.35,26.55-15.96c1.12-0.74,3.43-2.25,3.43-2.25s0.09,0.03,0.15,0.06
				c3.43,1.8,6.41,4.05,8.84,6.77C667.1,64.68,669.64,73.87,668.49,84.92z"/>
		</g>
	</g>
	<path d="M779.69,53.18c0.75,0,1.17-0.37,1.17-0.91c0-0.58-0.42-0.91-1.17-0.91h-1.37v1.82H779.69L779.69,53.18z M776.17,49.53h3.65
		c1.86,0,3.19,0.79,3.19,2.57c0,1.2-0.62,2.03-1.57,2.4l1.82,2.65h-2.49l-1.53-2.28h-0.91v2.28h-2.16V49.53L776.17,49.53z
		 M785.7,53.47v-0.04c0-3.53-2.73-6.43-6.38-6.43c-3.61,0-6.39,2.94-6.39,6.47v0.04c0,3.53,2.73,6.43,6.39,6.43
		C782.93,59.94,785.7,56.99,785.7,53.47L785.7,53.47z M772.1,53.51v-0.04c0-3.94,3.19-7.26,7.22-7.26c4.06,0,7.21,3.28,7.21,7.22
		v0.04c0,3.94-3.19,7.25-7.21,7.25C775.26,60.72,772.1,57.45,772.1,53.51L772.1,53.51z"/>
</g>
</svg>
