<?xml version="1.0" encoding="utf-8"?>
<!-- Generator: Adobe Illustrator 25.2.3, SVG Export Plug-In . SVG Version: 6.00 Build 0)  -->
<svg version="1.1" id="Layer_1" xmlns="http://www.w3.org/2000/svg" xmlns:xlink="http://www.w3.org/1999/xlink" x="0px" y="0px"
	 viewBox="0 0 786.77 202" style="enable-background:new 0 0 786.77 202;" xml:space="preserve">
<style type="text/css">
	.st0{fill:#F15C22;}
	.st1{fill:#211E1F;}
	.st2{fill:#030303;}
</style>
<g>
	<path class="st0" d="M96.88,66.26l75.98,0.08l-0.02,19.71l-53.96-0.06l-0.02,20.43l47.49,0.05l-0.02,19.72l-47.49-0.05l-0.02,21.15
		l54.68,0.06l-0.02,19.71l-76.7-0.09L96.88,66.26z"/>
	<path class="st0" d="M292.42,117.13l0-0.29C292.45,88.2,314.06,64.77,345,64.8c19,0.02,30.36,6.37,39.7,15.59l-14.12,16.25
		c-7.76-7.06-15.67-11.39-25.74-11.4c-16.98-0.02-29.23,14.07-29.25,31.34l0,0.29c-0.02,17.27,11.91,31.67,29.18,31.69
		c11.51,0.01,18.57-4.58,26.49-11.77l14.09,14.26c-10.37,11.07-21.89,17.96-41.32,17.94C314.38,168.96,292.38,146.05,292.42,117.13z
		"/>
	<path class="st0" d="M399.55,66.59l22.16,0.02l-0.04,39.86l40.87,0.05l0.04-39.86l22.16,0.02l-0.11,100.73l-22.16-0.02l0.05-40.44
		l-40.87-0.05l-0.05,40.44l-22.16-0.02L399.55,66.59z"/>
	<path class="st0" d="M505.34,66.71l75.98,0.08l-0.02,19.71l-53.96-0.06l-0.02,20.43l47.49,0.05l-0.02,19.72l-47.49-0.05
		l-0.02,21.15l54.68,0.06l-0.02,19.71l-76.7-0.09L505.34,66.71z"/>
	<path class="st0" d="M598.17,66.81l46.05,0.05c12.81,0.01,22.73,3.62,29.35,10.25c5.61,5.62,8.62,13.54,8.61,23.03l0,0.29
		c-0.02,16.26-8.81,26.47-21.62,31.2l24.56,36l-25.9-0.03l-21.55-32.26l-17.41-0.02l-0.04,32.23l-22.16-0.02L598.17,66.81z
		 M642.72,115.79c10.79,0.01,16.99-5.74,17-14.23l0-0.29c0.01-9.5-6.61-14.4-17.4-14.41l-22.02-0.02l-0.03,28.92L642.72,115.79z"/>
	<path class="st0" d="M691.62,152.97l13.11-15.67c9.06,7.49,18.55,12.25,30.06,12.27c9.07,0.01,14.54-3.58,14.55-9.48l0-0.29
		c0.01-5.61-3.44-8.49-20.27-12.83c-20.29-5.2-33.37-10.83-33.35-30.83l0-0.29c0.02-18.28,14.71-30.35,35.29-30.32
		c14.68,0.02,27.19,4.64,37.4,12.85l-11.53,16.68c-8.91-6.2-17.69-9.95-26.18-9.96c-8.49-0.01-12.95,3.87-12.96,8.76l0,0.29
		c-0.01,6.62,4.31,8.78,21.72,13.26c20.43,5.35,31.93,12.7,31.91,30.26l0,0.29c-0.02,20-15.29,31.21-37.02,31.19
		C719.09,169.12,703.7,163.78,691.62,152.97z"/>
	<polygon class="st0" points="41.76,66.19 0.02,66.15 0.01,75.5 0,86.58 30.65,86.62 30.56,166.91 41.64,166.93 52.72,166.94 
		52.81,86.64 83.47,86.67 83.48,75.6 83.49,66.24 	"/>
	<path class="st0" d="M248.28,65.7l-20.43-0.02l-43.29,101.4l22.59,0.03l9.24-22.58l42.6,0.05l9.18,22.6l23.17,0.03L248.28,65.7z
		 M249.41,126.82l-11.4-8.3l-11.42,8.28l4.37-13.41l-11.4-8.3l14.1,0.02l4.37-13.41l4.34,13.42l14.1,0.02l-11.42,8.28L249.41,126.82
		z"/>
	<path class="st1" d="M104.46,187.27h2.92l6.16,14.48h-3.31l-1.31-3.22h-6.08l-1.31,3.22H98.3L104.46,187.27z M107.79,195.73
		l-1.91-4.66l-1.91,4.66H107.79z"/>
	<path class="st1" d="M122.21,187.37h6.57c1.83,0,3.25,0.51,4.19,1.46c0.8,0.8,1.23,1.93,1.23,3.29v0.04c0,2.32-1.25,3.78-3.08,4.46
		l3.51,5.14h-3.7l-3.08-4.6h-2.49v4.6h-3.16V187.37z M128.58,194.36c1.54,0,2.42-0.82,2.42-2.03v-0.04c0-1.36-0.94-2.05-2.49-2.05
		h-3.14v4.13H128.58z"/>
	<path class="st1" d="M142.14,187.27h2.92l6.16,14.48h-3.31l-1.31-3.22h-6.08l-1.31,3.22h-3.22L142.14,187.27z M145.47,195.73
		l-1.91-4.66l-1.91,4.66H145.47z"/>
	<path class="st1" d="M153.73,187.37h3.16v14.38h-3.16V187.37z"/>
	<path class="st1" d="M159.65,199.66l1.87-2.24c1.29,1.07,2.65,1.75,4.29,1.75c1.29,0,2.07-0.51,2.07-1.36v-0.04
		c0-0.8-0.49-1.21-2.9-1.83c-2.9-0.74-4.77-1.54-4.77-4.4v-0.04c0-2.61,2.1-4.33,5.03-4.33c2.1,0,3.88,0.66,5.34,1.83l-1.64,2.38
		c-1.27-0.88-2.53-1.42-3.74-1.42c-1.21,0-1.85,0.55-1.85,1.25v0.04c0,0.95,0.62,1.25,3.1,1.89c2.92,0.76,4.56,1.81,4.56,4.31v0.04
		c0,2.86-2.18,4.46-5.28,4.46C163.57,201.96,161.37,201.2,159.65,199.66z"/>
	<path class="st1" d="M173.93,187.37h10.85v2.81h-7.7v2.92h6.78v2.81h-6.78v3.02h7.81v2.81h-10.95V187.37z"/>
	<path class="st1" d="M198.19,196.08l-5.53-8.71h3.7l3.43,5.77l3.49-5.77h3.6l-5.53,8.65v5.73h-3.16V196.08z"/>
	<path class="st1" d="M207.13,194.6v-0.04c0-4.09,3.22-7.44,7.66-7.44c4.44,0,7.62,3.31,7.62,7.4v0.04c0,4.09-3.22,7.44-7.66,7.44
		C210.31,202,207.13,198.69,207.13,194.6z M219.11,194.6v-0.04c0-2.47-1.81-4.52-4.35-4.52s-4.31,2.01-4.31,4.48v0.04
		c0,2.47,1.81,4.52,4.35,4.52C217.34,199.08,219.11,197.07,219.11,194.6z"/>
	<path class="st1" d="M225.15,195.59v-8.22h3.16v8.13c0,2.34,1.17,3.55,3.1,3.55c1.93,0,3.1-1.17,3.1-3.45v-8.24h3.16v8.11
		c0,4.35-2.44,6.49-6.31,6.49C227.51,201.98,225.15,199.82,225.15,195.59z"/>
	<path class="st1" d="M241.05,187.37h6.57c1.83,0,3.25,0.51,4.19,1.46c0.8,0.8,1.23,1.93,1.23,3.29v0.04c0,2.32-1.25,3.78-3.08,4.46
		l3.51,5.14h-3.7l-3.08-4.6h-2.49v4.6h-3.16V187.37z M247.42,194.36c1.54,0,2.42-0.82,2.42-2.03v-0.04c0-1.36-0.94-2.05-2.49-2.05
		h-3.14v4.13H247.42z"/>
	<path class="st1" d="M262.36,187.37h3.16v5.69h5.84v-5.69h3.16v14.38h-3.16v-5.77h-5.84v5.77h-3.16V187.37z"/>
	<path class="st1" d="M283.05,187.27h2.92l6.16,14.48h-3.31l-1.31-3.22h-6.08l-1.31,3.22h-3.22L283.05,187.27z M286.38,195.73
		l-1.91-4.66l-1.91,4.66H286.38z"/>
	<path class="st1" d="M294.49,187.37h2.92l6.74,8.85v-8.85h3.12v14.38h-2.69l-6.96-9.14v9.14h-3.12V187.37z"/>
	<path class="st1" d="M310.87,187.37h5.61c4.52,0,7.64,3.1,7.64,7.15v0.04c0,4.05-3.12,7.19-7.64,7.19h-5.61V187.37z M314.03,190.23
		v8.67h2.44c2.59,0,4.33-1.75,4.33-4.29v-0.04c0-2.55-1.75-4.33-4.33-4.33H314.03z"/>
	<path class="st1" d="M336.73,190.29h-4.38v-2.92h11.91v2.92h-4.38v11.46h-3.16V190.29z"/>
	<path class="st1" d="M346.84,187.37h10.85v2.81h-7.7v2.92h6.78v2.81h-6.78v3.02h7.81v2.81h-10.95V187.37z"/>
	<path class="st1" d="M373.22,187.37l-4.81,7.03l5.01,7.35h-3.7l-3.22-4.93l-3.25,4.93h-3.59l5.01-7.31l-4.81-7.07h3.7l3,4.66
		l3.06-4.66H373.22z"/>
	<path class="st1" d="M380.45,187.27h2.92l6.16,14.48h-3.31l-1.31-3.22h-6.08l-1.31,3.22h-3.22L380.45,187.27z M383.78,195.73
		l-1.91-4.66l-1.91,4.66H383.78z"/>
	<path class="st1" d="M390.71,199.66l1.87-2.24c1.29,1.07,2.65,1.75,4.29,1.75c1.29,0,2.07-0.51,2.07-1.36v-0.04
		c0-0.8-0.49-1.21-2.9-1.83c-2.9-0.74-4.77-1.54-4.77-4.4v-0.04c0-2.61,2.09-4.33,5.03-4.33c2.1,0,3.88,0.66,5.34,1.83l-1.64,2.38
		c-1.27-0.88-2.53-1.42-3.74-1.42c-1.21,0-1.85,0.55-1.85,1.25v0.04c0,0.95,0.62,1.25,3.1,1.89c2.92,0.76,4.56,1.81,4.56,4.31v0.04
		c0,2.86-2.18,4.46-5.28,4.46C394.63,201.96,392.44,201.2,390.71,199.66z"/>
	<path class="st1" d="M403.47,190.78v-0.02c0-1.95,1.58-3.59,3.57-3.59c2.01,0,3.57,1.62,3.57,3.57v0.02c0,1.95-1.58,3.6-3.57,3.6
		C405.03,194.36,403.47,192.73,403.47,190.78z M410.21,190.76v-0.02c0-1.75-1.36-3.18-3.16-3.18c-1.79,0-3.16,1.46-3.16,3.2v0.02
		c0,1.75,1.36,3.18,3.16,3.18C408.83,193.96,410.21,192.51,410.21,190.76z M405.48,188.81h1.81c0.92,0,1.58,0.39,1.58,1.27
		c0,0.6-0.31,1.01-0.78,1.19l0.9,1.31h-1.23l-0.76-1.13h-0.45v1.13h-1.07V188.81z M407.23,190.62c0.37,0,0.58-0.19,0.58-0.45
		c0-0.29-0.2-0.45-0.58-0.45h-0.68v0.91H407.23z"/>
	<path class="st1" d="M419,187.37h10.95v2.88h-7.78v3.06h6.86v2.88h-6.86v5.57H419V187.37z"/>
	<path class="st1" d="M431.99,194.6v-0.04c0-4.09,3.23-7.44,7.66-7.44s7.62,3.31,7.62,7.4v0.04c0,4.09-3.22,7.44-7.66,7.44
		C435.17,202,431.99,198.69,431.99,194.6z M443.96,194.6v-0.04c0-2.47-1.81-4.52-4.35-4.52s-4.31,2.01-4.31,4.48v0.04
		c0,2.47,1.81,4.52,4.36,4.52C442.2,199.08,443.96,197.07,443.96,194.6z"/>
	<path class="st1" d="M450.01,195.59v-8.22h3.16v8.13c0,2.34,1.17,3.55,3.1,3.55c1.93,0,3.1-1.17,3.1-3.45v-8.24h3.16v8.11
		c0,4.35-2.44,6.49-6.31,6.49C452.37,201.98,450.01,199.82,450.01,195.59z"/>
	<path class="st1" d="M465.91,187.37h2.92l6.74,8.85v-8.85h3.12v14.38h-2.69l-6.96-9.14v9.14h-3.12V187.37z"/>
	<path class="st1" d="M482.28,187.37h5.61c4.52,0,7.64,3.1,7.64,7.15v0.04c0,4.05-3.12,7.19-7.64,7.19h-5.61V187.37z M485.45,190.23
		v8.67h2.44c2.59,0,4.33-1.75,4.33-4.29v-0.04c0-2.55-1.75-4.33-4.33-4.33H485.45z"/>
	<path class="st1" d="M502.4,187.27h2.92l6.16,14.48h-3.31l-1.31-3.22h-6.08l-1.31,3.22h-3.22L502.4,187.27z M505.72,195.73
		l-1.91-4.66l-1.91,4.66H505.72z"/>
	<path class="st1" d="M515.34,190.29h-4.38v-2.92h11.91v2.92h-4.38v11.46h-3.16V190.29z"/>
	<path class="st1" d="M525.59,187.37h3.16v14.38h-3.16V187.37z"/>
	<path class="st1" d="M531.86,194.6v-0.04c0-4.09,3.23-7.44,7.66-7.44s7.62,3.31,7.62,7.4v0.04c0,4.09-3.22,7.44-7.66,7.44
		S531.86,198.69,531.86,194.6z M543.84,194.6v-0.04c0-2.47-1.81-4.52-4.35-4.52c-2.55,0-4.31,2.01-4.31,4.48v0.04
		c0,2.47,1.81,4.52,4.36,4.52C542.07,199.08,543.84,197.07,543.84,194.6z"/>
	<path class="st1" d="M550.1,187.37h2.92l6.74,8.85v-8.85h3.12v14.38h-2.69l-6.96-9.14v9.14h-3.12V187.37z"/>
	<path class="st1" d="M572.93,187.37h3.16v14.38h-3.16V187.37z"/>
	<path class="st1" d="M579.84,187.37h2.92l6.74,8.85v-8.85h3.12v14.38h-2.69l-6.96-9.14v9.14h-3.12V187.37z"/>
	<path class="st1" d="M596.35,187.37h3.16v14.38h-3.16V187.37z"/>
	<path class="st1" d="M606.61,190.29h-4.38v-2.92h11.91v2.92h-4.38v11.46h-3.16V190.29z"/>
	<path class="st1" d="M616.86,187.37h3.16v14.38h-3.16V187.37z"/>
	<path class="st1" d="M628.69,187.27h2.92l6.16,14.48h-3.31l-1.31-3.22h-6.08l-1.31,3.22h-3.22L628.69,187.27z M632.02,195.73
		l-1.91-4.66l-1.91,4.66H632.02z"/>
	<path class="st1" d="M641.64,190.29h-4.38v-2.92h11.92v2.92h-4.38v11.46h-3.16V190.29z"/>
	<path class="st1" d="M651.89,187.37h3.16v14.38h-3.16V187.37z"/>
	<path class="st1" d="M657.56,187.37h3.49l3.76,10.13l3.76-10.13h3.41l-5.81,14.48h-2.79L657.56,187.37z"/>
	<path class="st1" d="M674.35,187.37h10.85v2.81h-7.7v2.92h6.78v2.81h-6.78v3.02h7.81v2.81h-10.95V187.37z"/>
	<path d="M102.44,45.88l-0.52-14.94l11.91-0.42l11.59,14.44c1.91-0.07,3.83-0.14,5.77-0.21l-12.32-15.25
		c6.51-1.42,11.13-5.64,10.89-12.55l0-0.12c-0.12-3.28-1.41-6.15-3.5-8.1c-2.71-2.53-6.88-3.93-12-3.75L96.32,5.61l1.42,40.47
		C99.3,46.01,100.86,45.95,102.44,45.88z M114.04,9.34c6.73-0.24,10.77,2.72,10.95,7.84l0,0.12c0.19,5.36-4.16,8.73-10.42,8.95
		l-12.8,0.45l-0.59-16.91L114.04,9.34z"/>
	<path d="M155.57,34.36l22.7-0.61l4.5,9.46c1.68-0.04,3.37-0.08,5.06-0.13L168.38,3l-4.41,0.12l-17.28,41.11
		c1.6-0.05,3.21-0.1,4.83-0.15L155.57,34.36z M166.26,8.55l10.05,20.96l-19.01,0.51L166.26,8.55z"/>
	<path d="M210.7,42.56l-0.84-40.24l-4.71,0.1l0.84,40.24C207.56,42.63,209.13,42.59,210.7,42.56z"/>
	<path d="M246.3,39.75c-5.78,0.09-9.98-1.81-14.4-5.67l-2.86,3.5c2.25,1.94,4.58,3.41,7.04,4.47c6.18-0.14,12.44-0.27,18.78-0.4
		c3.4-2.09,5.45-5.46,5.38-9.7l0-0.12c-0.1-6.38-4.45-9.7-13.77-11.58c-9.21-1.82-11.39-3.99-11.45-7.92l0-0.12
		c-0.06-3.75,3.35-6.79,8.77-6.88c4.29-0.07,8.19,1.24,12.11,4.34l2.68-3.68c-4.29-3.33-8.66-4.99-14.74-4.89
		c-7.93,0.13-13.63,5.05-13.52,11.6l0,0.12c0.11,6.85,4.57,9.88,14.2,11.81c8.79,1.71,10.91,3.88,10.97,7.75l0,0.12
		C255.55,36.62,251.9,39.66,246.3,39.75z"/>
	<path d="M284.01,41.14l-0.44-39.98l-4.71,0.05l0.44,40C280.87,41.19,282.44,41.16,284.01,41.14z"/>
	<path d="M309.65,40.8l-0.18-32.37l25.59,32.13c1.76-0.01,3.51-0.03,5.28-0.04l-0.22-39.76l-4.59,0.02l0.19,33.43L309.25,0.92
		l-4.41,0.02l0.22,39.91C306.58,40.83,308.11,40.81,309.65,40.8z"/>
	<path d="M369.53,40.38c5.31-0.01,10.63-0.02,15.99-0.02c2.08,0,4.15,0,6.22,0c2.05-1.03,3.92-2.23,5.43-3.57l0.02-16.63
		l-17.22-0.02l0,4.23l12.69,0.02l-0.01,10.37c-2.86,2.32-7.27,4.16-12.04,4.16c-10.13-0.01-16.5-7.41-16.48-17.36v-0.12
		c0.01-9.3,6.64-17.09,15.87-17.08c5.9,0.01,9.47,1.98,12.69,4.78l3.04-3.57c-4.17-3.52-8.51-5.55-15.55-5.56
		c-12.51-0.02-20.93,10.1-20.94,21.55v0.12C359.21,29.77,363.01,36.72,369.53,40.38z"/>
	<path d="M454.47,40.72c1.59,0.02,3.18,0.03,4.77,0.05l0.39-35.2l14,0.15l0.05-4.35L440.9,1.01l-0.05,4.35l14,0.15L454.47,40.72z"/>
	<path d="M521.39,41.75l0.04-2.2l-25.74-0.43l0.24-14.6l22.76,0.38l0.07-4.29L496,20.23l0.23-14.24l25.44,0.42l0.07-4.29l-30.15-0.5
		l-0.66,39.58C501.26,41.36,511.42,41.55,521.39,41.75z"/>
	<path d="M538.14,42.12c1.81,0.04,3.61,0.08,5.4,0.13l12.19-15.67l11.51,16.28c1.88,0.05,3.74,0.1,5.6,0.16l-14.06-19.65
		l15.84-20.09l-5.48-0.13L556,20.02L543.64,2.57l-5.54-0.13L553,23.23L538.14,42.12z"/>
	<path d="M593.63,43.63l4.37-9.01l22.69,0.67l3.84,9.4c1.7,0.06,3.39,0.13,5.06,0.19L612.55,4.06l-4.41-0.13l-19.32,39.55
		C590.43,43.53,592.04,43.58,593.63,43.63z M610.13,9.47l8.84,21.48l-19-0.56L610.13,9.47z"/>
	<path d="M661.15,44.04c-5.78-0.21-9.88-2.32-14.08-6.41l-3.04,3.35c2.11,2.02,4.32,3.58,6.67,4.75c6.39,0.27,12.58,0.54,18.55,0.82
		c3.69-1.88,6.06-5.21,6.22-9.58l0-0.12c0.23-6.37-3.94-9.92-13.16-12.28c-9.1-2.29-11.17-4.57-11.03-8.5l0-0.12
		c0.13-3.75,3.69-6.61,9.11-6.41c4.29,0.15,8.11,1.66,11.87,4.96l2.87-3.53c-4.11-3.55-8.39-5.43-14.47-5.65
		c-7.92-0.28-13.87,4.33-14.1,10.89l0,0.12c-0.24,6.85,4.05,10.1,13.56,12.53c8.69,2.16,10.69,4.44,10.56,8.31l0,0.12
		C670.55,41.39,666.75,44.24,661.15,44.04z"/>
	<path class="st2" d="M771.49,59.17C752,55.02,584.89,45.71,385.52,45.71S19.5,55.02,0.03,59.17c84.26-3.47,227.01-5.73,385.49-5.73
		S687.23,55.71,771.49,59.17z"/>
	<path d="M779.96,72.43c0.74,0,1.16-0.37,1.16-0.91c0-0.58-0.42-0.91-1.16-0.91h-1.36v1.81H779.96L779.96,72.43z M776.45,68.8h3.63
		c1.85,0,3.18,0.79,3.18,2.56c0,1.2-0.62,2.02-1.57,2.39l1.81,2.64h-2.47l-1.53-2.27h-0.91v2.27h-2.15V68.8L776.45,68.8z
		 M785.95,72.72v-0.04c0-3.51-2.72-6.4-6.35-6.4c-3.59,0-6.36,2.93-6.36,6.44v0.04c0,3.51,2.72,6.4,6.36,6.4
		C783.18,79.16,785.95,76.23,785.95,72.72L785.95,72.72z M772.41,72.76v-0.04c0-3.92,3.18-7.22,7.19-7.22
		c4.04,0,7.18,3.26,7.18,7.18v0.04c0,3.92-3.18,7.22-7.18,7.22C775.55,79.94,772.41,76.68,772.41,72.76L772.41,72.76z"/>
</g>
</svg>
