<?xml version="1.0" encoding="utf-8"?>
<!-- Generator: Adobe Illustrator 22.0.1, SVG Export Plug-In . SVG Version: 6.00 Build 0)  -->
<!DOCTYPE svg PUBLIC "-//W3C//DTD SVG 1.1//EN" "http://www.w3.org/Graphics/SVG/1.1/DTD/svg11.dtd">
<svg version="1.1" id="Layer_1" xmlns="http://www.w3.org/2000/svg" xmlns:xlink="http://www.w3.org/1999/xlink" x="0px" y="0px"
	 width="276px" height="56.9px" viewBox="0 0 276 56.9" style="enable-background:new 0 0 276 56.9;" xml:space="preserve">
<style type="text/css">
	.st0{fill:#F16A22;}
	.st1{clip-path:url(#SVGID_2_);fill:#F16A22;}
	.st2{clip-path:url(#SVGID_2_);fill:#221F1F;}
	.st3{clip-path:url(#SVGID_2_);fill:#010101;}
	.st4{clip-path:url(#SVGID_4_);fill:#010101;}
	.st5{clip-path:url(#SVGID_6_);fill:#010101;}
	.st6{clip-path:url(#SVGID_6_);fill:#040303;}
</style>
<polygon class="st0" points="58.6,18.8 79.3,18.9 79.3,24.2 64.6,24.2 64.6,29.7 77.5,29.8 77.5,35.1 64.6,35.1 64.6,40.8 
	79.4,40.9 79.4,46.2 58.6,46.2 "/>
<g>
	<defs>
		<rect id="SVGID_1_" x="32.3" y="0.8" width="213.7" height="55"/>
	</defs>
	<clipPath id="SVGID_2_">
		<use xlink:href="#SVGID_1_"  style="overflow:visible;"/>
	</clipPath>
	<path class="st1" d="M111.7,32.6L111.7,32.6c0-7.9,5.9-14.2,14.3-14.2c5.2,0,8.2,1.7,10.8,4.2l-3.8,4.4c-2.1-1.9-4.3-3.1-7-3.1
		c-4.6,0-7.9,3.8-7.9,8.5v0.1c0,4.7,3.2,8.6,7.9,8.6c3.1,0,5-1.2,7.2-3.2l3.8,3.9c-2.8,3-5.9,4.9-11.2,4.9
		C117.7,46.7,111.7,40.5,111.7,32.6"/>
	<polygon class="st1" points="140.8,18.9 146.8,18.9 146.8,29.8 157.9,29.8 157.9,18.9 164,18.9 163.9,46.3 157.9,46.3 157.9,35.3 
		146.8,35.3 146.8,46.3 140.8,46.3 	"/>
	<polygon class="st1" points="169.6,19 190.2,19 190.2,24.3 175.5,24.3 175.5,29.9 188.4,29.9 188.4,35.2 175.5,35.2 175.5,41 
		190.4,41 190.4,46.3 169.5,46.3 	"/>
	<path class="st1" d="M194.8,19l12.5,0c3.5,0,6.2,1,8,2.8c1.5,1.5,2.3,3.7,2.3,6.3l0,0.1c0,4.4-2.4,7.2-5.9,8.5l6.7,9.8l-7,0
		l-5.9-8.8l-4.7,0l0,8.8l-6,0L194.8,19z M206.9,32.3c2.9,0,4.6-1.6,4.6-3.9v-0.1c0-2.6-1.8-3.9-4.7-3.9l-6,0l0,7.9L206.9,32.3z"/>
	<path class="st1" d="M220.1,42.4l3.6-4.3c2.5,2,5,3.3,8.2,3.3c2.5,0,3.9-1,4-2.6v-0.1c0-1.5-0.9-2.3-5.5-3.5
		c-5.5-1.4-9.1-2.9-9.1-8.4v-0.1c0-5,4-8.2,9.6-8.2c4,0,7.4,1.3,10.2,3.5l-3.1,4.5c-2.4-1.7-4.8-2.7-7.1-2.7c-2.3,0-3.5,1.1-3.5,2.4
		v0.1c0,1.8,1.2,2.4,5.9,3.6c5.5,1.5,8.7,3.4,8.7,8.2v0.1c0,5.4-4.2,8.5-10.1,8.5C227.6,46.8,223.4,45.3,220.1,42.4"/>
	<polygon class="st1" points="43.7,18.8 32.3,18.8 32.3,21.3 32.3,24.3 40.6,24.4 40.6,46.2 43.6,46.2 46.6,46.2 46.7,24.4 55,24.4 
		55,21.4 55,18.8 	"/>
	<path class="st1" d="M99.8,18.7l-5.5,0L82.4,46.2l6.1,0l2.5-6.1l11.6,0l2.5,6.1l6.3,0L99.8,18.7z M100.1,35.3L97,33l-3.1,2.2
		l1.2-3.6l-3.1-2.3l3.8,0l1.2-3.6l1.2,3.6l3.8,0l-3.1,2.2L100.1,35.3z"/>
	<path class="st2" d="M60.7,51.7h0.8l1.7,3.9h-0.9l-0.4-0.9h-1.7l-0.4,0.9H59L60.7,51.7z M61.6,54l-0.5-1.3L60.6,54H61.6z"/>
	<path class="st2" d="M65.5,51.7h1.8c0.5,0,0.9,0.1,1.1,0.4c0.2,0.2,0.3,0.5,0.3,0.9v0c0,0.6-0.3,1-0.8,1.2l1,1.4h-1L67,54.4h-0.7
		v1.2h-0.9V51.7z M67.2,53.6c0.4,0,0.7-0.2,0.7-0.6v0c0-0.4-0.3-0.6-0.7-0.6h-0.9v1.1H67.2z"/>
	<path class="st2" d="M70.9,51.7h0.8l1.7,3.9h-0.9l-0.4-0.9h-1.7l-0.4,0.9h-0.9L70.9,51.7z M71.8,54l-0.5-1.3L70.8,54H71.8z"/>
	<rect x="74.1" y="51.7" class="st2" width="0.9" height="3.9"/>
	<path class="st2" d="M75.7,55.1l0.5-0.6c0.3,0.3,0.7,0.5,1.2,0.5c0.4,0,0.6-0.1,0.6-0.4v0c0-0.2-0.1-0.3-0.8-0.5
		c-0.8-0.2-1.3-0.4-1.3-1.2v0c0-0.7,0.6-1.2,1.4-1.2c0.6,0,1.1,0.2,1.5,0.5l-0.4,0.6c-0.3-0.2-0.7-0.4-1-0.4c-0.3,0-0.5,0.2-0.5,0.3
		v0c0,0.3,0.2,0.3,0.8,0.5c0.8,0.2,1.2,0.5,1.2,1.2v0c0,0.8-0.6,1.2-1.4,1.2C76.7,55.7,76.1,55.5,75.7,55.1"/>
	<polygon class="st2" points="79.6,51.7 82.5,51.7 82.5,52.5 80.4,52.5 80.4,53.3 82.3,53.3 82.3,54 80.4,54 80.4,54.9 82.5,54.9 
		82.5,55.6 79.6,55.6 	"/>
	<polygon class="st2" points="86.1,54.1 84.6,51.7 85.7,51.7 86.6,53.3 87.5,51.7 88.5,51.7 87,54.1 87,55.6 86.1,55.6 	"/>
	<path class="st2" d="M88.6,53.7L88.6,53.7c0-1.1,0.9-2,2.1-2c1.2,0,2.1,0.9,2.1,2v0c0,1.1-0.9,2-2.1,2
		C89.4,55.7,88.6,54.8,88.6,53.7 M91.8,53.7L91.8,53.7c0-0.7-0.5-1.2-1.2-1.2c-0.7,0-1.2,0.5-1.2,1.2v0c0,0.7,0.5,1.2,1.2,1.2
		C91.3,54.9,91.8,54.4,91.8,53.7"/>
	<path class="st2" d="M93.5,54v-2.2h0.9v2.2c0,0.6,0.3,1,0.8,1S96,54.6,96,54v-2.2h0.9v2.2c0,1.2-0.7,1.8-1.7,1.8
		C94.1,55.7,93.5,55.1,93.5,54"/>
	<path class="st2" d="M97.8,51.7h1.8c0.5,0,0.9,0.1,1.1,0.4c0.2,0.2,0.3,0.5,0.3,0.9v0c0,0.6-0.3,1-0.8,1.2l1,1.4h-1l-0.8-1.2h-0.7
		v1.2h-0.9V51.7z M99.5,53.6c0.4,0,0.7-0.2,0.7-0.6v0c0-0.4-0.3-0.6-0.7-0.6h-0.9v1.1H99.5z"/>
	<polygon class="st2" points="103.6,51.7 104.4,51.7 104.4,53.3 106,53.3 106,51.7 106.9,51.7 106.9,55.6 106,55.6 106,54.1 
		104.4,54.1 104.4,55.6 103.6,55.6 	"/>
	<path class="st2" d="M109.2,51.7h0.8l1.7,3.9h-0.9l-0.4-0.9h-1.7l-0.4,0.9h-0.9L109.2,51.7z M110.1,54l-0.5-1.3l-0.5,1.3H110.1z"/>
	<polygon class="st2" points="112.3,51.7 113.1,51.7 114.9,54.1 114.9,51.7 115.8,51.7 115.8,55.6 115,55.6 113.1,53.1 113.1,55.6 
		112.3,55.6 	"/>
	<path class="st2" d="M116.7,51.7h1.5c1.2,0,2.1,0.8,2.1,1.9v0c0,1.1-0.8,2-2.1,2h-1.5V51.7z M117.6,52.5v2.4h0.7
		c0.7,0,1.2-0.5,1.2-1.2v0c0-0.7-0.5-1.2-1.2-1.2H117.6z"/>
	<polygon class="st2" points="123.8,52.5 122.6,52.5 122.6,51.7 125.8,51.7 125.8,52.5 124.6,52.5 124.6,55.6 123.8,55.6 	"/>
	<polygon class="st2" points="126.5,51.7 129.5,51.7 129.5,52.5 127.4,52.5 127.4,53.3 129.2,53.3 129.2,54 127.4,54 127.4,54.9 
		129.5,54.9 129.5,55.6 126.5,55.6 	"/>
	<polygon class="st2" points="133.7,51.7 132.4,53.6 133.7,55.6 132.7,55.6 131.9,54.3 131,55.6 130,55.6 131.4,53.6 130.1,51.7 
		131.1,51.7 131.9,53 132.7,51.7 	"/>
	<path class="st2" d="M135.6,51.7h0.8l1.7,3.9h-0.9l-0.4-0.9h-1.7l-0.4,0.9H134L135.6,51.7z M136.5,54l-0.5-1.3l-0.5,1.3H136.5z"/>
	<path class="st2" d="M138.4,55.1l0.5-0.6c0.4,0.3,0.7,0.5,1.2,0.5c0.4,0,0.6-0.1,0.6-0.4v0c0-0.2-0.1-0.3-0.8-0.5
		c-0.8-0.2-1.3-0.4-1.3-1.2v0c0-0.7,0.6-1.2,1.4-1.2c0.6,0,1.1,0.2,1.5,0.5l-0.4,0.6c-0.3-0.2-0.7-0.4-1-0.4c-0.3,0-0.5,0.2-0.5,0.3
		v0c0,0.3,0.2,0.3,0.8,0.5c0.8,0.2,1.2,0.5,1.2,1.2v0c0,0.8-0.6,1.2-1.4,1.2C139.5,55.7,138.9,55.5,138.4,55.1"/>
	<path class="st2" d="M141.9,52.6L141.9,52.6c0-0.5,0.4-1,1-1c0.5,0,1,0.4,1,1v0c0,0.5-0.4,1-1,1C142.3,53.6,141.9,53.2,141.9,52.6
		 M143.7,52.6L143.7,52.6c0-0.5-0.4-0.9-0.9-0.9c-0.5,0-0.9,0.4-0.9,0.9v0c0,0.5,0.4,0.9,0.9,0.9C143.3,53.5,143.7,53.1,143.7,52.6
		 M142.4,52.1h0.5c0.2,0,0.4,0.1,0.4,0.3c0,0.2-0.1,0.3-0.2,0.3l0.2,0.4h-0.3l-0.2-0.3h-0.1v0.3h-0.3V52.1z M142.9,52.6
		c0.1,0,0.2-0.1,0.2-0.1c0-0.1-0.1-0.1-0.2-0.1h-0.2v0.2H142.9z"/>
	<polygon class="st2" points="146.1,51.7 149.1,51.7 149.1,52.5 147,52.5 147,53.3 148.8,53.3 148.8,54.1 147,54.1 147,55.6 
		146.1,55.6 	"/>
	<path class="st2" d="M149.6,53.7L149.6,53.7c0-1.1,0.9-2,2.1-2c1.2,0,2.1,0.9,2.1,2v0c0,1.1-0.9,2-2.1,2
		C150.5,55.7,149.6,54.8,149.6,53.7 M152.9,53.7L152.9,53.7c0-0.7-0.5-1.2-1.2-1.2c-0.7,0-1.2,0.5-1.2,1.2v0c0,0.7,0.5,1.2,1.2,1.2
		C152.4,54.9,152.9,54.4,152.9,53.7"/>
	<path class="st2" d="M154.5,54v-2.2h0.9v2.2c0,0.6,0.3,1,0.8,1c0.5,0,0.8-0.3,0.8-0.9v-2.2h0.9v2.2c0,1.2-0.7,1.8-1.7,1.8
		C155.2,55.7,154.5,55.1,154.5,54"/>
	<polygon class="st2" points="158.9,51.7 159.6,51.7 161.5,54.1 161.5,51.7 162.3,51.7 162.3,55.6 161.6,55.6 159.7,53.1 
		159.7,55.6 158.9,55.6 	"/>
	<path class="st2" d="M163.3,51.7h1.5c1.2,0,2.1,0.8,2.1,1.9v0c0,1.1-0.8,2-2.1,2h-1.5V51.7z M164.2,52.5v2.4h0.7
		c0.7,0,1.2-0.5,1.2-1.2v0c0-0.7-0.5-1.2-1.2-1.2H164.2z"/>
	<path class="st2" d="M168.8,51.7h0.8l1.7,3.9h-0.9l-0.4-0.9h-1.7l-0.4,0.9h-0.9L168.8,51.7z M169.7,54l-0.5-1.3l-0.5,1.3H169.7z"/>
	<polygon class="st2" points="172.3,52.5 171.1,52.5 171.1,51.7 174.3,51.7 174.3,52.5 173.1,52.5 173.1,55.6 172.3,55.6 	"/>
	<rect x="175.1" y="51.7" class="st2" width="0.9" height="3.9"/>
	<path class="st2" d="M176.8,53.7L176.8,53.7c0-1.1,0.9-2,2.1-2c1.2,0,2.1,0.9,2.1,2v0c0,1.1-0.9,2-2.1,2
		C177.6,55.7,176.8,54.8,176.8,53.7 M180,53.7L180,53.7c0-0.7-0.5-1.2-1.2-1.2c-0.7,0-1.2,0.5-1.2,1.2v0c0,0.7,0.5,1.2,1.2,1.2
		C179.5,54.9,180,54.4,180,53.7"/>
	<polygon class="st2" points="181.7,51.7 182.5,51.7 184.3,54.1 184.3,51.7 185.2,51.7 185.2,55.6 184.5,55.6 182.6,53.1 
		182.6,55.6 181.7,55.6 	"/>
	<rect x="187.9" y="51.7" class="st2" width="0.9" height="3.9"/>
	<polygon class="st2" points="189.8,51.7 190.6,51.7 192.4,54.1 192.4,51.7 193.3,51.7 193.3,55.6 192.5,55.6 190.6,53.1 
		190.6,55.6 189.8,55.6 	"/>
	<rect x="194.3" y="51.7" class="st2" width="0.9" height="3.9"/>
	<polygon class="st2" points="197.1,52.5 195.9,52.5 195.9,51.7 199.1,51.7 199.1,52.5 197.9,52.5 197.9,55.6 197.1,55.6 	"/>
	<rect x="199.8" y="51.7" class="st2" width="0.9" height="3.9"/>
	<path class="st2" d="M203.1,51.7h0.8l1.7,3.9h-0.9l-0.4-0.9h-1.7l-0.4,0.9h-0.9L203.1,51.7z M204,54l-0.5-1.3l-0.5,1.3H204z"/>
	<polygon class="st2" points="206.6,52.5 205.4,52.5 205.4,51.7 208.6,51.7 208.6,52.5 207.4,52.5 207.4,55.6 206.6,55.6 	"/>
	<rect x="209.4" y="51.7" class="st2" width="0.9" height="3.9"/>
	<polygon class="st2" points="210.9,51.7 211.8,51.7 212.9,54.5 213.9,51.7 214.8,51.7 213.2,55.7 212.5,55.7 	"/>
	<polygon class="st2" points="215.5,51.7 218.4,51.7 218.4,52.5 216.3,52.5 216.3,53.3 218.2,53.3 218.2,54 216.3,54 216.3,54.9 
		218.4,54.9 218.4,55.6 215.5,55.6 	"/>
	<path class="st3" d="M60.1,13.3L60,9.2l3.2-0.1l3.1,3.9c0.5,0,1,0,1.6-0.1l-3.3-4.1c1.8-0.4,3-1.5,3-3.4l0,0c0-0.9-0.4-1.7-1-2.2
		c-0.7-0.7-1.9-1.1-3.3-1l-4.9,0.2l0.4,11C59.3,13.3,59.7,13.3,60.1,13.3 M63.3,3.4c1.8-0.1,2.9,0.7,3,2.1v0C66.3,7,65.1,7.9,63.4,8
		L60,8.1l-0.2-4.6L63.3,3.4z"/>
	<path class="st3" d="M74.6,10.2l6.2-0.2l1.2,2.6c0.5,0,0.9,0,1.4,0L78,1.7l-1.2,0l-4.7,11.2c0.4,0,0.9,0,1.3,0L74.6,10.2z
		 M77.5,3.2l2.7,5.7L75,9L77.5,3.2z"/>
	<path class="st3" d="M89.5,12.4L89.3,1.5l-1.3,0l0.2,10.9C88.7,12.4,89.1,12.4,89.5,12.4"/>
	<path class="st3" d="M99.2,11.6c-1.6,0-2.7-0.5-3.9-1.5l-0.8,1c0.6,0.5,1.2,0.9,1.9,1.2c1.7,0,3.4-0.1,5.1-0.1
		c0.9-0.6,1.5-1.5,1.5-2.6v0c0-1.7-1.2-2.6-3.7-3.1c-2.5-0.5-3.1-1.1-3.1-2.2v0c0-1,0.9-1.8,2.4-1.9c1.2,0,2.2,0.3,3.3,1.2l0.7-1
		c-1.2-0.9-2.4-1.4-4-1.3c-2.2,0-3.7,1.4-3.7,3.1v0c0,1.9,1.2,2.7,3.9,3.2c2.4,0.5,3,1.1,3,2.1l0,0C101.7,10.8,100.7,11.6,99.2,11.6
		"/>
	<path class="st3" d="M109.5,12l-0.1-10.9l-1.3,0l0.1,10.9C108.6,12,109,12,109.5,12"/>
</g>
<g>
	<defs>
		<rect id="SVGID_3_" x="32.3" y="0.8" width="213.7" height="54.9"/>
	</defs>
	<clipPath id="SVGID_4_">
		<use xlink:href="#SVGID_3_"  style="overflow:visible;"/>
	</clipPath>
	<path class="st4" d="M116.4,11.9l0-8.8l6.9,8.7c0.5,0,1,0,1.4,0L124.7,1l-1.2,0l0,9.1l-7.2-9l-1.2,0l0.1,10.8
		C115.6,11.9,116,11.9,116.4,11.9"/>
	<path class="st4" d="M132.7,11.8c1.4,0,2.9,0,4.3,0c0.6,0,1.1,0,1.7,0c0.6-0.3,1.1-0.6,1.5-1l0-4.5l-4.7,0l0,1.2l3.4,0l0,2.8
		c-0.8,0.6-2,1.1-3.3,1.1c-2.8,0-4.5-2-4.5-4.7v0c0-2.5,1.8-4.6,4.3-4.6c1.6,0,2.6,0.5,3.4,1.3l0.8-1c-1.1-1-2.3-1.5-4.2-1.5
		c-3.4,0-5.7,2.7-5.7,5.9v0C129.9,8.9,130.9,10.8,132.7,11.8"/>
</g>
<g>
	<defs>
		<rect id="SVGID_5_" x="32.3" y="0.8" width="213.7" height="55"/>
	</defs>
	<clipPath id="SVGID_6_">
		<use xlink:href="#SVGID_5_"  style="overflow:visible;"/>
	</clipPath>
	<path class="st5" d="M155.7,11.9c0.4,0,0.9,0,1.3,0l0.1-9.6l3.8,0l0-1.2l-8.9-0.1l0,1.2l3.8,0L155.7,11.9z"/>
	<path class="st5" d="M173.9,12.2l0-0.6l-7-0.1l0.1-4l6.2,0.1l0-1.2L167,6.3l0.1-3.9l6.9,0.1l0-1.2l-8.2-0.1L165.6,12
		C168.5,12.1,171.2,12.1,173.9,12.2"/>
	<path class="st5" d="M178.5,12.3c0.5,0,1,0,1.5,0l3.3-4.3l3.1,4.4c0.5,0,1,0,1.5,0l-3.8-5.3l4.3-5.5l-1.5,0l-3.6,4.6L180,1.5
		l-1.5,0l4,5.6L178.5,12.3z"/>
	<path class="st5" d="M193.5,12.7l1.2-2.4l6.2,0.2l1,2.6c0.5,0,0.9,0,1.4,0.1l-4.6-11.1l-1.2,0l-5.2,10.7
		C192.7,12.7,193.1,12.7,193.5,12.7 M198,3.4l2.4,5.8l-5.2-0.2L198,3.4z"/>
	<path class="st5" d="M211.9,12.8c-1.6-0.1-2.7-0.6-3.8-1.7l-0.8,0.9c0.6,0.5,1.2,1,1.8,1.3c1.7,0.1,3.4,0.1,5,0.2
		c1-0.5,1.6-1.4,1.7-2.6v0c0.1-1.7-1.1-2.7-3.6-3.3c-2.5-0.6-3-1.2-3-2.3l0,0c0-1,1-1.8,2.5-1.7c1.2,0,2.2,0.5,3.2,1.3l0.8-1
		c-1.1-1-2.3-1.5-3.9-1.5c-2.2-0.1-3.8,1.2-3.8,3v0c-0.1,1.9,1.1,2.7,3.7,3.4c2.4,0.6,2.9,1.2,2.9,2.3l0,0
		C214.4,12.1,213.4,12.9,211.9,12.8"/>
	<path class="st6" d="M241.8,16.9c-5.3-1.1-50.7-3.7-104.8-3.7c-54.1,0-99.4,2.5-104.7,3.7C55.2,16,94,15.3,137,15.3
		C180.1,15.3,219,16,241.8,16.9"/>
	<path class="st5" d="M241.8,20.6l0.2-0.3c0.2,0.2,0.4,0.3,0.7,0.3c0.2,0,0.4-0.1,0.4-0.3v0c0-0.2-0.1-0.2-0.5-0.3
		c-0.5-0.1-0.7-0.2-0.7-0.6v0c0-0.4,0.3-0.6,0.7-0.6c0.3,0,0.6,0.1,0.8,0.3l-0.2,0.3c-0.2-0.1-0.4-0.2-0.6-0.2
		c-0.2,0-0.3,0.1-0.3,0.3v0c0,0.2,0.1,0.2,0.5,0.3c0.5,0.1,0.7,0.3,0.7,0.6v0c0,0.4-0.3,0.6-0.8,0.6
		C242.4,20.9,242.1,20.8,241.8,20.6"/>
	<polygon class="st5" points="243.9,18.7 244.3,18.7 244.9,19.8 245.6,18.7 246,18.7 246,20.9 245.6,20.9 245.6,19.4 244.9,20.4 
		244.9,20.4 244.3,19.4 244.3,20.9 243.9,20.9 	"/>
</g>
</svg>
