<?xml version="1.0" encoding="utf-8"?>
<!-- Generator: Adobe Illustrator 22.0.1, SVG Export Plug-In . SVG Version: 6.00 Build 0)  -->
<!DOCTYPE svg PUBLIC "-//W3C//DTD SVG 1.1//EN" "http://www.w3.org/Graphics/SVG/1.1/DTD/svg11.dtd">
<svg version="1.1" id="Layer_1" xmlns="http://www.w3.org/2000/svg" xmlns:xlink="http://www.w3.org/1999/xlink" x="0px" y="0px"
	 viewBox="0 0 431.3 173.9" style="enable-background:new 0 0 431.3 173.9;" xml:space="preserve">
<style type="text/css">
	.st0{fill:#F15C22;}
	.st1{fill:#FFFFFF;}
</style>
<rect class="st0" width="431.3" height="173.9"/>
<g>
	<path class="st1" d="M201.2,154.7h-1.3v6h1.3c2,0,3.3-1.1,3.3-3l0,0C204.5,155.8,203.2,154.7,201.2,154.7z"/>
	<path class="st1" d="M297.2,154.5c-1.8,0-3,1.5-3,3.2l0,0c0,1.7,1.2,3.2,3,3.2s3-1.5,3-3.2l0,0C300.2,156,299,154.5,297.2,154.5z"
		/>
	<path class="st1" d="M21.3,147.5v20.4h379v-20.4H21.3z M101,154.7h-6.2v2h5.6v2.7h-5.6v4.2h-3.3v-11.8h9.4L101,154.7L101,154.7z
		 M128.3,157.7c0,3.4-2.7,6.1-6.4,6.1c-3.6,0-6.3-2.7-6.3-6.1l0,0c0-3.4,2.7-6.1,6.4-6.1C125.6,151.6,128.3,154.3,128.3,157.7
		L128.3,157.7z M154.4,158.3c0,3.8-2.2,5.5-5.5,5.5s-5.4-1.7-5.4-5.4v-6.6h3.3v6.6c0,1.7,0.9,2.5,2.2,2.5s2.2-0.8,2.2-2.4v-6.7h3.3
		v6.5H154.4z M181,163.6h-2.9l-5.1-6.5v6.5h-3.2v-11.8h3.1l4.9,6.2v-6.2h3.2V163.6z M207.8,157.7c0,3.4-2.5,5.9-6.7,5.9h-4.5v-11.8
		h4.6C205.4,151.8,207.8,154.2,207.8,157.7L207.8,157.7z M230.9,163.6l-0.8-2.1h-4.6l-0.8,2.1h-3.4l5-11.9h3.2l5,11.9H230.9z
		 M257.3,154.7h-3.5v8.9h-3.3v-8.9H247v-2.9h10.3V154.7z M275.6,163.6h-3.3v-11.8h3.3V163.6z M303.6,157.7c0,3.4-2.7,6.1-6.4,6.1
		c-3.6,0-6.3-2.7-6.3-6.1l0,0c0-3.4,2.7-6.1,6.4-6.1C300.9,151.6,303.6,154.3,303.6,157.7L303.6,157.7z M329.9,163.6h-2.8l-5.1-6.5
		v6.5h-3.2v-11.8h3.1l4.9,6.2v-6.2h3.2v11.8H329.9z"/>
	<polygon class="st1" points="226.5,158.9 229.1,158.9 227.8,155.6 	"/>
	<path class="st1" d="M122,154.5c-1.8,0-3,1.5-3,3.2l0,0c0,1.7,1.2,3.2,3,3.2s3-1.5,3-3.2l0,0C125,156,123.8,154.5,122,154.5z"/>
</g>
<path class="st1" d="M64.5,95.8L49.3,73.1H37v22.7H21.5V24.9h32.4c16.7,0,26.7,8.8,26.7,23.4v0.2c0,11.4-6.2,18.6-15.2,22l17.3,25.3
	H64.5z M64.8,49.1c0-6.7-4.7-10.1-12.2-10.1H37v20.3h15.8c7.6,0,11.9-4,11.9-10L64.8,49.1L64.8,49.1z"/>
<path class="st1" d="M211.7,95.8V24.9h15.6v70.9H211.7z"/>
<path class="st1" d="M288.4,96.8c-10.7,0-21.6-3.7-30.1-11.3l9.2-11c6.4,5.3,13.1,8.6,21.1,8.6c6.4,0,10.2-2.5,10.2-6.7v-0.2
	c0-3.9-2.4-6-14.3-9c-14.3-3.6-23.5-7.6-23.5-21.7v-0.2c0-12.8,10.3-21.3,24.8-21.3c10.3,0,19.1,3.2,26.3,9L304,44.7
	c-6.3-4.4-12.4-7-18.4-7s-9.1,2.7-9.1,6.2v0.2c0,4.7,3,6.2,15.3,9.3c14.4,3.7,22.5,8.9,22.5,21.2v0.2
	C314.4,88.9,303.7,96.8,288.4,96.8z"/>
<path class="st1" d="M346.2,95.8V24.9h53.4v13.9h-37.9v14.4H395v13.9h-33.4V82h38.5v13.8H346.2L346.2,95.8z"/>
<path class="st1" d="M144.1,43.2l-21.5,52.6h-15.9l37.3-88l37.7,88h-16.3L144.1,43.2z"/>
<polygon class="st1" points="144.3,70.4 134,95.8 154.6,95.8 "/>
<g>
	<path class="st1" d="M407.1,29.5L407.1,29.5c0-2.5,2-4.7,4.6-4.7s4.6,2.1,4.6,4.6l0,0c0,2.5-2,4.6-4.6,4.6
		C409.1,34.2,407.1,32.1,407.1,29.5z M415.8,29.5L415.8,29.5c0-2.3-1.7-4.1-4.1-4.1c-2.3,0-4.1,1.9-4.1,4.1l0,0
		c0,2.3,1.7,4.1,4.1,4.1C414,33.6,415.8,31.8,415.8,29.5z M409.7,27h2.3c1.2,0,2,0.5,2,1.6c0,0.8-0.4,1.3-1,1.5l1.2,1.7h-1.6l-1-1.5
		H411v1.5h-1.4V27H409.7z M412,29.3c0.5,0,0.7-0.2,0.7-0.6s-0.3-0.6-0.7-0.6h-0.9v1.2H412z"/>
</g>
<g>
	<path class="st1" d="M33.8,123.8v8.1h-4.6v-8.1l-7.9-12.3h5.2l4.9,8.3l4.9-8.3h5.1L33.8,123.8z"/>
	<path class="st1" d="M58.6,132.2c-6.2,0-10.8-4.7-10.8-10.5l0,0c0-5.7,4.6-10.6,11-10.6c6.2,0,10.8,4.7,10.8,10.5l0,0
		C69.4,127.5,64.8,132.2,58.6,132.2z M64.8,121.8c0-3.5-2.5-6.4-6.2-6.4c-3.5,0-6.1,2.9-6.1,6.4l0,0c0,3.5,2.5,6.4,6.2,6.4
		C62.3,128.2,64.8,125.3,64.8,121.8L64.8,121.8z"/>
	<path class="st1" d="M87.9,132.2c-5.6,0-8.8-3-8.8-9.1v-11.6h4.6V123c0,3.4,1.7,5.1,4.4,5.1s4.4-1.7,4.4-4.9v-11.6H97v11.5
		C96.8,129.2,93.3,132.2,87.9,132.2z"/>
	<path class="st1" d="M120,131.9l-4.4-6.6H112v6.6h-4.6v-20.4h9.3c4.9,0,7.8,2.5,7.8,6.7l0,0c0,3.4-1.9,5.4-4.4,6.4l5.1,7.3H120z
		 M120.1,118.4c0-1.9-1.3-2.9-3.5-2.9h-4.4v5.9h4.6C118.8,121.4,120.1,120.3,120.1,118.4L120.1,118.4z"/>
	<path class="st1" d="M162,131.9v-8.3h-8.3v8.3h-4.6v-20.4h4.6v8.1h8.3v-8.1h4.6v20.4H162L162,131.9z"/>
	<path class="st1" d="M192.3,131.9l-1.9-4.6h-8.6l-1.9,4.6h-4.7l8.8-20.6h4.2l8.8,20.6H192.3z M186.1,116.7l-2.7,6.6h5.4
		L186.1,116.7z"/>
	<path class="st1" d="M220.1,131.9l-10-13v13h-4.4v-20.4h4.2l9.6,12.7v-12.7h4.4v20.4H220.1z"/>
	<path class="st1" d="M242.9,131.9H235v-20.4h7.9c6.4,0,10.8,4.4,10.8,10.1l0,0C253.9,127.5,249.3,131.9,242.9,131.9z M249.2,121.8
		c0-3.5-2.5-6.1-6.1-6.1h-3.5V128h3.5C246.6,127.8,249.2,125.3,249.2,121.8L249.2,121.8z"/>
	<path class="st1" d="M287.4,115.7v16.4h-4.6v-16.4h-6.2v-4.2h16.9v4.2H287.4z"/>
	<path class="st1" d="M302.8,131.9v-20.4h15.3v4h-11v4.2h9.6v4h-9.6v4.2h11.1v4H302.8L302.8,131.9z"/>
	<path class="st1" d="M341.2,131.9l-4.6-7.1l-4.6,7.1h-5.1l7.1-10.5l-6.7-10h5.2l4.2,6.6l4.4-6.6h5.1l-6.7,10l7.1,10.5H341.2z"/>
	<path class="st1" d="M371.4,131.9l-1.9-4.6H361l-1.9,4.6h-4.6l8.8-20.6h4.2l8.8,20.6H371.4z M365.4,116.7l-2.7,6.6h5.4L365.4,116.7
		z"/>
	<path class="st1" d="M392.5,131.9c-3,0-6.2-1-8.6-3.2l2.7-3.2c1.9,1.5,3.7,2.5,6.1,2.5c1.9,0,2.9-0.7,2.9-1.9l0,0
		c0-1.2-0.7-1.7-4-2.5c-4-1-6.7-2.2-6.7-6.2l0,0c0-3.7,3-6.1,7.1-6.1c3,0,5.6,1,7.6,2.5l-2.4,3.4c-1.9-1.2-3.5-2-5.2-2
		s-2.7,0.8-2.7,1.9l0,0c0,1.3,0.8,1.9,4.4,2.7c4.2,1,6.4,2.5,6.4,6.1l0,0C400.1,129.5,396.9,131.9,392.5,131.9z"/>
</g>
</svg>
