<?xml version="1.0" encoding="utf-8"?>
<!-- Generator: Adobe Illustrator 25.2.3, SVG Export Plug-In . SVG Version: 6.00 Build 0)  -->
<svg version="1.1" id="Layer_1" xmlns="http://www.w3.org/2000/svg" xmlns:xlink="http://www.w3.org/1999/xlink" x="0px" y="0px"
	 viewBox="0 0 786.77 250.91" style="enable-background:new 0 0 786.77 250.91;" xml:space="preserve">
<style type="text/css">
	.st0{fill:#020202;}
	.st1{fill:#F15C22;}
</style>
<g>
	<path class="st0" d="M86.33,82.19c0-13.27-9.24-20.1-24.31-20.1H31.27v40.39h31.35c15.07,0,23.71-8.04,23.71-19.89V82.19
		L86.33,82.19z M85.73,174.83l-30.14-45.01H31.27v45.01H0.33V34.17h64.3c33.15,0,53.04,17.48,53.04,46.42v0.4
		c0,22.71-12.26,36.98-30.14,43.61l34.36,50.24H85.73L85.73,174.83z"/>
	<polygon class="st0" points="378.12,174.83 378.12,34.17 409.07,34.17 409.07,174.83 378.12,174.83 	"/>
	<path class="st0" d="M530.44,176.84c-21.3,0-42.8-7.43-59.68-22.5l18.28-21.91c12.66,10.45,25.92,17.08,42,17.08
		c12.66,0,20.3-5.02,20.3-13.26v-0.4c0-7.84-4.82-11.86-28.33-17.88c-28.33-7.23-46.62-15.07-46.62-43v-0.41
		c0-25.52,20.5-42.4,49.23-42.4c20.49,0,37.98,6.43,52.24,17.88l-16.08,23.31c-12.45-8.64-24.71-13.86-36.57-13.86
		c-11.86,0-18.09,5.43-18.09,12.26v0.41c0,9.24,6.03,12.26,30.34,18.49c28.53,7.43,44.61,17.68,44.61,42.2v0.4
		C582.09,161.16,560.79,176.84,530.44,176.84L530.44,176.84z"/>
	<polygon class="st0" points="645.19,174.83 645.19,34.17 751.29,34.17 751.29,61.69 675.94,61.69 675.94,90.23 742.25,90.23 
		742.25,117.76 675.94,117.76 675.94,147.3 752.29,147.3 752.29,174.83 645.19,174.83 	"/>
	<polygon class="st0" points="243.89,70.33 201.28,174.83 169.73,174.83 243.89,0 318.84,174.83 286.48,174.83 243.89,70.33 	"/>
	<polygon class="st1" points="244.29,124.46 223.75,174.83 264.82,174.83 244.29,124.46 	"/>
	<path class="st0" d="M775.87,42.88c0.95,0,1.48-0.47,1.48-1.16c0-0.73-0.53-1.15-1.48-1.15h-1.73v2.31H775.87L775.87,42.88z
		 M771.4,38.25h4.63c2.36,0,4.05,1,4.05,3.26c0,1.53-0.79,2.58-2,3.05l2.31,3.36h-3.15l-1.94-2.89h-1.16v2.89h-2.74V38.25
		L771.4,38.25z M783.49,43.25v-0.05c0-4.47-3.47-8.15-8.09-8.15c-4.58,0-8.1,3.73-8.1,8.2v0.05c0,4.47,3.47,8.15,8.1,8.15
		C779.97,51.45,783.49,47.72,783.49,43.25L783.49,43.25z M766.25,43.3v-0.05c0-4.99,4.05-9.2,9.15-9.2c5.15,0,9.14,4.15,9.14,9.15
		v0.05c0,4.99-4.05,9.2-9.14,9.2C770.25,52.44,766.25,48.29,766.25,43.3L766.25,43.3z"/>
	<polygon class="st1" points="24.79,230.48 24.79,246.56 15.74,246.56 15.74,230.48 0,206.03 10.38,206.03 20.1,222.44 
		29.81,206.03 39.86,206.03 24.79,230.48 	"/>
	<path class="st1" d="M86.42,226.46c0-7.03-5.03-12.73-12.39-12.73c-7.03,0-12.06,5.69-12.06,12.73l0,0
		c0,7.04,5.02,12.73,12.39,12.73C81.39,239.19,86.42,233.49,86.42,226.46L86.42,226.46L86.42,226.46z M74.03,247.23
		c-12.39,0-21.44-9.38-21.44-20.77l0,0c0-11.39,9.04-21.1,21.77-21.1c12.39,0,21.44,9.38,21.44,20.77l0,0
		C95.46,237.85,86.42,247.23,74.03,247.23L74.03,247.23z"/>
	<path class="st1" d="M132.31,247.23c-11.05,0-17.42-6.03-17.42-18.09v-23.11h9.04v22.78c0,6.7,3.35,10.05,8.71,10.05
		c5.36,0,8.71-3.35,8.71-9.71v-23.11h9.04v22.78C150.06,241.2,143.03,247.23,132.31,247.23L132.31,247.23z"/>
	<path class="st1" d="M196.29,219.76c0-3.68-2.68-5.69-7.03-5.69h-8.71v11.73h9.04C193.61,225.79,196.29,223.45,196.29,219.76
		L196.29,219.76L196.29,219.76z M195.95,246.56l-8.71-13.06h-7.03v13.06h-9.04v-40.53h18.42c9.71,0,15.41,5.02,15.41,13.4l0,0
		c0,6.7-3.68,10.72-8.71,12.73l10.05,14.4H195.95L195.95,246.56z"/>
	<polygon class="st1" points="279.36,246.56 279.36,230.15 262.94,230.15 262.94,246.56 253.9,246.56 253.9,206.03 262.94,206.03 
		262.94,222.11 279.36,222.11 279.36,206.03 288.4,206.03 288.4,246.56 279.36,246.56 279.36,246.56 	"/>
	<path class="st1" d="M327.26,216.41l-5.36,13.06h10.72L327.26,216.41L327.26,216.41z M339.65,246.56l-3.68-9.04h-17.08l-3.68,9.04
		h-9.38l17.42-40.86h8.37l17.42,40.86H339.65L339.65,246.56z"/>
	<polygon class="st1" points="394.91,246.56 375.15,220.77 375.15,246.56 366.45,246.56 366.45,206.03 374.82,206.03 393.91,231.15 
		393.91,206.03 402.62,206.03 402.62,246.56 394.91,246.56 	"/>
	<path class="st1" d="M452.53,226.46c0-7.03-5.02-12.06-12.06-12.06h-7.03v24.45h7.03C447.5,238.52,452.53,233.49,452.53,226.46
		L452.53,226.46L452.53,226.46z M440.14,246.56h-15.74v-40.53h15.74c12.73,0,21.44,8.71,21.44,20.1l0,0
		C461.91,237.85,452.87,246.56,440.14,246.56L440.14,246.56z"/>
	<polygon class="st1" points="528.57,214.4 528.57,246.89 519.52,246.89 519.52,214.4 507.13,214.4 507.13,206.03 540.62,206.03 
		540.62,214.4 528.57,214.4 	"/>
	<polygon class="st1" points="559.05,246.56 559.05,206.03 589.53,206.03 589.53,214.07 567.76,214.07 567.76,222.44 586.85,222.44 
		586.85,230.48 567.76,230.48 567.76,238.86 589.86,238.86 589.86,246.89 559.05,246.56 559.05,246.56 	"/>
	<polygon class="st1" points="635.42,246.56 626.37,232.49 617.33,246.56 607.28,246.56 621.35,225.79 607.95,206.03 618.34,206.03 
		626.71,219.09 635.42,206.03 645.47,206.03 632.07,225.79 646.14,246.56 635.42,246.56 	"/>
	<path class="st1" d="M683.32,216.41l-5.36,13.06h10.72L683.32,216.41L683.32,216.41z M695.37,246.56l-3.68-9.04h-17.08l-3.69,9.04
		h-9.04l17.42-40.86h8.38l17.42,40.86H695.37L695.37,246.56z"/>
	<path class="st1" d="M737.25,246.48c-6.03,0-12.4-2.01-17.08-6.37l5.36-6.36c3.69,3.02,7.37,5.02,12.06,5.02
		c3.68,0,5.69-1.34,5.69-3.68l0,0c0-2.35-1.34-3.35-8.04-5.02c-8.04-2.01-13.4-4.36-13.4-12.39l0,0c0-7.37,6.03-12.06,14.07-12.06
		c6.03,0,11.05,2.01,15.07,5.02l-4.69,6.7c-3.68-2.35-7.03-4.02-10.38-4.02c-3.35,0-5.36,1.67-5.36,3.69l0,0
		c0,2.68,1.67,3.68,8.71,5.36c8.37,2.01,12.73,5.03,12.73,12.06l0,0C752.32,241.79,745.95,246.48,737.25,246.48L737.25,246.48z"/>
</g>
</svg>
