<?xml version="1.0" encoding="utf-8"?>
<!-- Generator: Adobe Illustrator 22.0.1, SVG Export Plug-In . SVG Version: 6.00 Build 0)  -->
<!DOCTYPE svg PUBLIC "-//W3C//DTD SVG 1.1//EN" "http://www.w3.org/Graphics/SVG/1.1/DTD/svg11.dtd">
<svg version="1.1" id="Layer_1" xmlns="http://www.w3.org/2000/svg" xmlns:xlink="http://www.w3.org/1999/xlink" x="0px" y="0px"
	 width="30.3px" height="21.1px" viewBox="0 0 30.3 21.1" style="enable-background:new 0 0 30.3 21.1;" xml:space="preserve">
<style type="text/css">
	.st0{fill:#F26922;}
</style>
<title>texas</title>
<path class="st0" d="M6.2,0h5.3c0,1.2,0,2.5,0,3.7c0,0.1,0.1,0.2,0.1,0.2c0.3,0.2,0.6,0.3,1,0.4s0.7,0.3,1.1,0.3
	c0.2,0,0.3,0.1,0.4,0.2c0.2-0.2,0.3-0.2,0.6-0.2C15.3,4.8,16,4.8,16.6,5c0.1,0,0.2,0.1,0.2,0C17,4.9,17,5,17,5.1
	c0.1,0.1,0.2,0.2,0.2,0.1c0.2-0.2,0.3-0.1,0.5-0.1c0.5,0,1-0.2,1.5-0.1c0.8,0.1,1.7,0.2,2.4,0.6c0.2,0.1,0.2,0.2,0.2,0.2
	c0,1,0,1.9,0,2.8c0,0.1,0,0.2,0,0.2c0.2,0.3,0.3,0.7,0.6,1.1c0.1,0.2,0.2,0.3,0.3,0.5v0.4c0,0.2-0.1,0.4-0.1,0.6
	c-0.1,0.6-0.1,1.3-0.4,1.9c0,0.1-0.1,0.2-0.2,0.2c-0.4,0.2-0.9,0.4-1.3,0.6c-0.1,0-0.1,0-0.2,0l0,0l0.3-0.2h-0.3l0.1-0.5
	c-0.1,0.1-0.2,0.2-0.2,0.2l-0.2,0.1c0,0.1,0.1,0.2,0.2,0.3c0.1,0.2,0.1,0.3-0.2,0.5c-0.1,0.1-0.2,0.1-0.2,0.2c0,0.3-0.2,0.5-0.4,0.6
	c-0.5,0.3-1,0.6-1.5,0.9l0,0l0.1-0.5l0,0c-0.2,0.2-0.5,0.2-0.7,0c-0.1,0.3,0.3,0.2,0.3,0.5l-0.5,0.2L17.2,16L17,16.1
	c0,0.1,0,0.2,0,0.2s0,0.2-0.1,0.3c-0.3,0.5-0.7,0.9-1,1.5c0,0.1-0.1,0.2-0.1,0.2c-0.1,0-0.2,0-0.2,0c-0.1,0-0.2,0-0.2,0
	c0.2,0.2,0.3,0,0.5,0.1c0.1,0.2,0,0.3-0.1,0.5c0,0.1-0.1,0.2-0.1,0.2c0.1,0.5,0.2,0.9,0.3,1.4c0,0.1,0.1,0.1,0.1,0.1
	c0.2,0.1,0.2,0.2,0.2,0.4c-0.2,0-0.5,0-0.7,0c-0.1,0-0.1,0-0.2-0.1c-0.2-0.1-0.5-0.2-0.7-0.2c-0.3-0.1-0.7-0.2-1.1-0.2
	c-0.5-0.1-0.8-0.3-0.9-0.8c-0.1-0.2-0.1-0.4-0.2-0.6c-0.2-0.5-0.6-1-0.8-1.5c-0.5-0.9-1.1-1.7-1.4-2.7c-0.1-0.2-0.3-0.5-0.6-0.6
	c-0.2-0.2-0.5-0.3-0.6-0.6c-0.1-0.2-0.2-0.2-0.4-0.2c-0.3,0-0.6-0.1-1-0.2c-0.2-0.1-0.3,0-0.5,0.1C7.1,13.5,7,13.6,7,13.6
	c-0.2-0.1-0.3,0.2-0.4,0.3c0,0.1-0.1,0.2-0.1,0.3c0,0.3-0.2,0.6-0.4,0.8L6,15.1c-0.2-0.1-0.5-0.2-0.6-0.2c-0.2-0.1-0.4-0.2-0.6-0.4
	c-0.2-0.1-0.3-0.2-0.6-0.2C4,14.1,3.7,14,3.6,13.7c-0.2-0.4-0.3-0.9-0.5-1.3C3,12,2.8,11.8,2.4,11.7c-0.2-0.1-0.4-0.2-0.6-0.4
	s-0.4-0.5-0.6-0.7c-0.1-0.1-0.2-0.2-0.3-0.2s-0.2-0.1-0.2-0.1C0.4,10,0.2,9.9,0,9.6C0,9.4,0,9.2,0,9h6.1L6.2,0z"/>
</svg>
