<?xml version="1.0" encoding="utf-8"?>
<!-- Generator: Adobe Illustrator 25.2.1, SVG Export Plug-In . SVG Version: 6.00 Build 0)  -->
<svg version="1.1" id="Layer_1" xmlns="http://www.w3.org/2000/svg" xmlns:xlink="http://www.w3.org/1999/xlink" x="0px" y="0px"
	 viewBox="0 0 26 22" style="enable-background:new 0 0 26 22;" xml:space="preserve">
<style type="text/css">
	.st0{fill:#F26922;}
</style>
<path class="st0" d="M5.7,1.3h4.9c0,1.1,0,2.3,0,3.4c0,0.1,0.1,0.2,0.1,0.2c0.3,0.2,0.6,0.3,0.9,0.4s0.6,0.3,1,0.3
	c0.2,0,0.3,0.1,0.4,0.2c0.2-0.2,0.3-0.2,0.6-0.2c0.6,0.2,1.2,0.2,1.8,0.4c0.1,0,0.2,0.1,0.2,0c0.2-0.1,0.2,0,0.2,0.1
	c0.1,0.1,0.2,0.2,0.2,0.1C16.1,5.9,16.2,6,16.4,6c0.5,0,0.9-0.2,1.4-0.1C18.5,6,19.3,6.1,20,6.5c0.2,0.1,0.2,0.2,0.2,0.2
	c0,0.9,0,1.8,0,2.6c0,0.1,0,0.2,0,0.2c0.2,0.3,0.3,0.6,0.6,1c0.1,0.2,0.2,0.3,0.3,0.5v0.4c0,0.2-0.1,0.4-0.1,0.6
	c-0.1,0.6-0.1,1.2-0.4,1.8c0,0.1-0.1,0.2-0.2,0.2c-0.4,0.2-0.8,0.4-1.2,0.6c-0.1,0-0.1,0-0.2,0l0,0l0.3-0.2H19l0.1-0.5
	c-0.1,0.1-0.2,0.2-0.2,0.2L18.7,14c0,0.1,0.1,0.2,0.2,0.3c0.1,0.2,0.1,0.3-0.2,0.5c-0.1,0.1-0.2,0.1-0.2,0.2c0,0.3-0.2,0.5-0.4,0.6
	c-0.5,0.3-0.9,0.6-1.4,0.8l0,0l0.1-0.5l0,0c-0.2,0.2-0.5,0.2-0.6,0c-0.1,0.3,0.3,0.2,0.3,0.5L16,16.5l-0.1-0.4l-0.2,0.1
	c0,0.1,0,0.2,0,0.2s0,0.2-0.1,0.3c-0.3,0.5-0.6,0.8-0.9,1.4c0,0.1-0.1,0.2-0.1,0.2c-0.1,0-0.2,0-0.2,0c-0.1,0-0.2,0-0.2,0
	c0.2,0.2,0.3,0,0.5,0.1c0.1,0.2,0,0.3-0.1,0.5c0,0.1-0.1,0.2-0.1,0.2c0.1,0.5,0.2,0.8,0.3,1.3c0,0.1,0.1,0.1,0.1,0.1
	c0.2,0.1,0.2,0.2,0.2,0.4c-0.2,0-0.5,0-0.6,0c-0.1,0-0.1,0-0.2-0.1c-0.2-0.1-0.5-0.2-0.6-0.2c-0.3-0.1-0.6-0.2-1-0.2
	c-0.5-0.1-0.7-0.3-0.8-0.7c-0.1-0.2-0.1-0.4-0.2-0.6c-0.2-0.5-0.6-0.9-0.7-1.4c-0.5-0.8-1-1.6-1.3-2.5c-0.1-0.2-0.3-0.5-0.6-0.6
	c-0.2-0.2-0.5-0.3-0.6-0.6c-0.1-0.2-0.2-0.2-0.4-0.2c-0.3,0-0.6-0.1-0.9-0.2c-0.2-0.1-0.3,0-0.5,0.1c-0.1,0.1-0.2,0.2-0.2,0.2
	c-0.2-0.1-0.3,0.2-0.4,0.3c0,0.1-0.1,0.2-0.1,0.3c0,0.3-0.2,0.6-0.4,0.7l-0.1,0.1c-0.2-0.1-0.5-0.2-0.6-0.2
	c-0.2-0.1-0.4-0.2-0.6-0.4c-0.2-0.1-0.3-0.2-0.6-0.2c-0.2-0.2-0.5-0.3-0.6-0.6c-0.2-0.4-0.3-0.8-0.5-1.2c-0.1-0.4-0.3-0.6-0.6-0.6
	C2,12,1.9,11.9,1.7,11.7c-0.2-0.2-0.4-0.5-0.6-0.6C1,11,0.9,10.9,0.8,10.9s-0.2-0.1-0.2-0.1c-0.3-0.3-0.5-0.4-0.6-0.6
	C0,10,0,9.8,0,9.6h5.6L5.7,1.3z"/>
</svg>
