<?xml version="1.0" encoding="utf-8"?>
<!-- Generator: Adobe Illustrator 25.2.1, SVG Export Plug-In . SVG Version: 6.00 Build 0)  -->
<svg version="1.1" id="Layer_1" xmlns="http://www.w3.org/2000/svg" xmlns:xlink="http://www.w3.org/1999/xlink" x="0px" y="0px"
	 viewBox="0 0 27.8 14" style="enable-background:new 0 0 27.8 14;" xml:space="preserve">
<style type="text/css">
	.st0{fill:#F15C22;fill-opacity:1;stroke:#F15C22;}
	.st1{fill:#1B1D1C;}
	.st2{fill:#FFFFFF;}
</style>
<g id="svg4619" inkscape:version="0.91 r13725" sodipodi:docname="suitcase-15.svg" xmlns:cc="http://creativecommons.org/ns#" xmlns:dc="http://purl.org/dc/elements/1.1/" xmlns:inkscape="http://www.inkscape.org/namespaces/inkscape" xmlns:rdf="http://www.w3.org/1999/02/22-rdf-syntax-ns#" xmlns:sodipodi="http://sodipodi.sourceforge.net/DTD/sodipodi-0.dtd" xmlns:svg="http://www.w3.org/2000/svg">
	<g>
		<circle class="st0" cx="21" cy="7" r="5"/>
	</g>
</g>
<g id="eye">
	<path class="st1" d="M11.2,6.9C10.7,8.1,9.8,9,8.7,9.7c-0.7,0.5-1.4,0.8-2.2,0.9c-1,0.2-2,0.1-3-0.4C2.2,9.7,1.1,8.8,0.3,7.6
		C0.2,7.4,0.1,7.3,0.1,7.1C0,6.9,0,6.7,0.1,6.5c0.2-0.4,0.4-0.7,0.6-1c0.9-1,1.9-1.8,3.3-2.3c1.2-0.4,2.5-0.3,3.7,0.2
		C9,4,10,4.9,10.8,6.1"/>
	<path class="st1" d="M2.8,6.8c0,1.5,1.2,2.8,2.7,2.8c1.6,0,2.8-1.2,2.9-2.7c0-1.6-1.2-2.8-2.8-2.9C4,4,2.8,5.3,2.8,6.8z"/>
	<path class="st2" d="M2.8,6.8C2.8,5.3,4,4,5.6,4.1c1.5,0,2.8,1.3,2.8,2.9c0,1.5-1.3,2.8-2.9,2.7C4,9.6,2.8,8.4,2.8,6.8z M6.2,5.2
		c-0.6-0.3-1.5-0.1-2,0.6C3.7,6.6,3.8,7.5,4.4,8.1C5,8.7,6,8.7,6.6,8.2c0.7-0.5,0.8-1.4,0.5-2C6.7,6.5,6.3,6.6,6,6.2
		C5.9,6.1,5.8,5.6,6.2,5.2z"/>
	<path class="st1" d="M6.2,5.2C5.8,5.6,5.9,6.1,6.1,6.3c0.3,0.3,0.7,0.3,1.1,0c0.3,0.5,0.1,1.4-0.5,2C6,8.7,5,8.7,4.4,8.1
		C3.8,7.5,3.7,6.6,4.1,5.9C4.6,5.1,5.5,4.9,6.2,5.2z"/>
</g>
</svg>
