<?xml version="1.0" encoding="utf-8"?>
<!-- Generator: Adobe Illustrator 22.0.1, SVG Export Plug-In . SVG Version: 6.00 Build 0)  -->
<svg version="1.0"
	 id="svg4619" inkscape:version="0.91 r13725" sodipodi:docname="suitcase-15.svg" xmlns:cc="http://creativecommons.org/ns#" xmlns:dc="http://purl.org/dc/elements/1.1/" xmlns:inkscape="http://www.inkscape.org/namespaces/inkscape" xmlns:rdf="http://www.w3.org/1999/02/22-rdf-syntax-ns#" xmlns:sodipodi="http://sodipodi.sourceforge.net/DTD/sodipodi-0.dtd" xmlns:svg="http://www.w3.org/2000/svg"
	 xmlns="http://www.w3.org/2000/svg" xmlns:xlink="http://www.w3.org/1999/xlink" x="0px" y="0px" width="150px" height="142.1px"
	 viewBox="0 0 150 142.1" enable-background="new 0 0 150 142.1" xml:space="preserve">
<g>
	<path fill="#F15C22" d="M38,91.2L38,91.2L1.8,53.6l48-5.9l2.3-1.3L74.2,2.1l20.9,44.4c0,1.3,1.3,2.3,2.3,2.3l50.3,7.4l-34.9,33.7
		v2.3l8.2,49l-44.4-23.2h-1.3l-44.4,23.5L38,91.2z"/>
	<path fill="#7A3608" d="M74.2,3.4l19.9,42.1c0,1.3,1.3,2.3,2.3,2.3l0,0l48,6.9l-32.9,34.2h-1.3v1.3v1.3l8.4,46.4l-42.1-22.2l0,0
		l0,0h-2.3l0,0l0,0l-42.1,22.2l8.2-46.7v-1.3v-1.3H38L4.1,54.9l45.7-6.9h1.3l0,0l1.3-1.3l0,0l0,0L74.2,3.4 M74.2,0.1
		C74.2,0.1,72.9,0.1,74.2,0.1L50.8,45.8c0,0,0,0-1.3,1.3l-49,6.6c0,0-1.3,1.3,0,1.3l36.2,34.9v1.3l-8.2,49c0,1.3,1.3,1.3,1.3,1.3
		l44.4-23.5h1.3l44.4,23.5c1.3,0,1.3,0,1.3-1.3l-8.2-49v-1.3l36.2-34.9l-1.5-1.3l-50.3-6.9c0,0-1.3,0-1.3-1.3L74.2,0.1
		C75.2,1.1,75.2,0.1,74.2,0.1L74.2,0.1z"/>
</g>
</svg>
