<?xml version="1.0" encoding="utf-8"?>
<!-- Generator: Adobe Illustrator 22.0.1, SVG Export Plug-In . SVG Version: 6.00 Build 0)  -->
<svg version="1.0"
	 id="svg4619" inkscape:version="0.91 r13725" sodipodi:docname="suitcase-15.svg" xmlns:cc="http://creativecommons.org/ns#" xmlns:dc="http://purl.org/dc/elements/1.1/" xmlns:inkscape="http://www.inkscape.org/namespaces/inkscape" xmlns:rdf="http://www.w3.org/1999/02/22-rdf-syntax-ns#" xmlns:sodipodi="http://sodipodi.sourceforge.net/DTD/sodipodi-0.dtd" xmlns:svg="http://www.w3.org/2000/svg"
	 xmlns="http://www.w3.org/2000/svg" xmlns:xlink="http://www.w3.org/1999/xlink" x="0px" y="0px" width="13.4px" height="12.6px"
	 viewBox="0 0 13.4 12.6" enable-background="new 0 0 13.4 12.6" xml:space="preserve">
<g>
	<path fill="#F15C22" d="M3.6,8.1L3.6,8.1L0.5,4.9l4.1-0.5l0.2-0.1l1.9-3.8l1.8,3.8c0,0.1,0.1,0.2,0.2,0.2L13,5.1L10,8v0.2l0.7,4.2
		l-3.8-2H6.8l-3.8,2L3.6,8.1z"/>
	<path fill="#7A3608" d="M6.7,0.6l1.7,3.6c0,0.1,0.1,0.2,0.2,0.2l0,0L12.7,5L9.9,7.9H9.8V8v0.1l0.7,4l-3.6-1.9l0,0l0,0H6.7l0,0l0,0
		l-3.6,1.9l0.7-4V8V7.9H3.6L0.7,5l3.9-0.6h0.1l0,0l0.1-0.1l0,0l0,0L6.7,0.6 M6.7,0.3C6.7,0.3,6.6,0.3,6.7,0.3l-2,3.9
		c0,0,0,0-0.1,0.1L0.4,4.9c0,0-0.1,0.1,0,0.1l3.1,3v0.1l-0.7,4.2c0,0.1,0.1,0.1,0.1,0.1l3.8-2h0.1l3.8,2c0.1,0,0.1,0,0.1-0.1L10,8.1
		V8l3.1-3L13,4.9L8.7,4.3c0,0-0.1,0-0.1-0.1L6.7,0.3C6.8,0.4,6.8,0.3,6.7,0.3L6.7,0.3z"/>
</g>
</svg>
