<?xml version="1.0" encoding="utf-8"?>
<!-- Generator: Adobe Illustrator 22.0.1, SVG Export Plug-In . SVG Version: 6.00 Build 0)  -->
<!DOCTYPE svg PUBLIC "-//W3C//DTD SVG 1.0//EN" "http://www.w3.org/TR/2001/REC-SVG-20010904/DTD/svg10.dtd">
<svg version="1.0"
	 id="svg4619" inkscape:version="0.91 r13725" sodipodi:docname="suitcase-15.svg" xmlns:cc="http://creativecommons.org/ns#" xmlns:dc="http://purl.org/dc/elements/1.1/" xmlns:inkscape="http://www.inkscape.org/namespaces/inkscape" xmlns:rdf="http://www.w3.org/1999/02/22-rdf-syntax-ns#" xmlns:sodipodi="http://sodipodi.sourceforge.net/DTD/sodipodi-0.dtd" xmlns:svg="http://www.w3.org/2000/svg"
	 xmlns="http://www.w3.org/2000/svg" xmlns:xlink="http://www.w3.org/1999/xlink" x="0px" y="0px" width="150px" height="200px"
	 viewBox="0 0 150 200" enable-background="new 0 0 150 200" xml:space="preserve">
<g>
	<g>
		<path fill="#0FAED3" stroke="#0E5763" stroke-width="2" stroke-miterlimit="10" d="M74.9,8.1C33.9,8.1,1,42.3,1,82
			c0,49.2,68.4,104,71.1,106.7c1.4,0,1.4,1.4,2.7,1.4c1.4,0,1.4,0,2.7-1.4c2.7-2.7,71.1-57.4,71.1-106.7
			C148.8,42.3,116,8.1,74.9,8.1z"/>
	</g>
</g>
<path fill="#0E5763" d="M74.9,30c-30.1,0-53.3,24.6-53.3,53.3c0,16.4,8.2,31.5,20.5,41c0,1.4,1.4,2.7,2.7,4.1c0-1.4,0-2.7,0-4.1
	c0-16.4,13.7-30.1,30.1-30.1s30.1,13.7,30.1,30.1c0,1.4,0,2.7,0,4.1c1.4-1.4,2.7-2.7,5.5-4.1c12.3-9.6,19.1-24.6,19.1-41
	C128.3,53.2,103.7,30,74.9,30z"/>
<path fill="#0FAED3" d="M80.4,84.7c-1.4,0-4.1,1.4-5.5,1.4s-4.1,0-5.5-1.4c-8.2-2.7-13.7-9.6-13.7-19.1c0-10.9,8.2-19.1,19.1-19.1
	s19.1,9.6,19.1,19.1S88.6,81.9,80.4,84.7z"/>
</svg>
