<?xml version="1.0" encoding="utf-8"?>
<!-- Generator: Adobe Illustrator 22.0.1, SVG Export Plug-In . SVG Version: 6.00 Build 0)  -->
<svg version="1.0"
	 id="svg4619" inkscape:version="0.91 r13725" sodipodi:docname="suitcase-15.svg" xmlns:cc="http://creativecommons.org/ns#" xmlns:dc="http://purl.org/dc/elements/1.1/" xmlns:inkscape="http://www.inkscape.org/namespaces/inkscape" xmlns:rdf="http://www.w3.org/1999/02/22-rdf-syntax-ns#" xmlns:sodipodi="http://sodipodi.sourceforge.net/DTD/sodipodi-0.dtd" xmlns:svg="http://www.w3.org/2000/svg"
	 xmlns="http://www.w3.org/2000/svg" xmlns:xlink="http://www.w3.org/1999/xlink" x="0px" y="0px" width="150px" height="151.1px"
	 viewBox="0 0 150 151.1" enable-background="new 0 0 150 151.1" xml:space="preserve">
<g>
	<g>
		<circle fill="#A6A4FF" cx="45.3" cy="16.1" r="15.1"/>
		<path fill="#5757A0" d="M45.3,2.2c8.6,0,14,6.5,14,14s-6.5,14-14,14s-14-6.5-14-14S37.8,2.2,45.3,2.2 M45.3,0
			c-8.6,0-16.1,7.5-16.1,16.1s7.5,16.1,16.1,16.1s16.1-7.5,16.1-16.1S55,0,45.3,0L45.3,0z"/>
	</g>
	<g>
		<path fill="#A6A4FF" d="M118.5,57c-7.5,0-12.9-5.4-12.9-12.9s5.4-12.9,12.9-12.9c7.5,0,12.9,5.4,12.9,12.9S126,57,118.5,57z"/>
		<path fill="#5757A0" d="M118.5,32.3c6.5,0,11.8,5.4,11.8,11.8S125,56,118.5,56s-11.8-5.4-11.8-11.8S112,32.3,118.5,32.3
			 M118.5,30.1c-7.5,0-14,6.5-14,14s6.5,14,14,14c7.5,0,14-6.5,14-14S126,30.1,118.5,30.1L118.5,30.1z"/>
	</g>
	<g>
		<path fill="#A6A4FF" d="M130.3,150.7c-2.2,0-4.3-2.2-4.3-4.3v-26.9c0,0,0-1.1-1.1-1.1h-10.8c0,0-1.1,0-1.1,1.1v26.9
			c0,2.2-2.2,4.3-4.3,4.3s-4.3-2.2-4.3-4.3V72.1c0,0,0,0,0-1.1c0,0,0,0-1.1,0l-18.3,1.1c-1.1,0-1.1-1.1-2.2-1.1s-1.1,0-1.1-1.1
			L63.6,47.4c0,0,0,0-1.1,0l0,0c0,0-1.1,1.1,0,1.1l21.5,60.3H62.5c0,0-1.1,0-1.1,1.1v36.6c0,2.2-2.2,3.2-3.2,3.2
			c-3.2,0-4.3-1.1-5.4-3.2v-36.6c0,0,0-1.1-1.1-1.1H41c0,0-1.1,0-1.1,1.1v36.6c0,2.2-2.2,3.2-3.2,3.2c-3.2,0-4.3-1.1-5.4-3.2v-1.1
			v-35.5c0,0,0-1.1-1.1-1.1H9.8l21.5-60.3v-1.1l0,0h-1.1L8.7,74.3l-1.1,1.1c0,1.1-1.1,2.2-3.2,2.2s-2.2,0-3.2-1.1
			c-1.1-4.3,1.1-6.5,2.2-7.5L27,38.7c1.1-1.1,1.1-1.1,3.2-1.1h31.2c1.1,0,3.2,0,3.2,1.1l20.5,24.8l20.5-2.2h26.9
			c2.2,0,3.2,2.2,4.3,4.3l10.8,37.7c1.1,3.2-1.1,5.4-3.2,6.5h-1.1c-2.2,0-3.2-2.2-4.3-4.3l-3.2-11.8c0,0,0-1.1-1.1-1.1l0,0
			c0,0-1.1,0-1.1,1.1v52.7C134.6,148.5,132.5,150.7,130.3,150.7z"/>
		<path fill="#5757A0" d="M61.5,38.7c1.1,0,2.2,0,3.2,0l20.5,24.8l1.1,1.1l0,0l19.4-2.2h26.9c1.1,0,3.2,1.1,3.2,3.2l10.8,37.7
			c1.1,2.2-1.1,4.3-2.2,5.4h-1.1c-1.1,0-3.2-1.1-3.2-3.2l-3.2-11.8c0-1.1-1.1-1.1-2.2-1.1l0,0c-1.1,0-2.2,1.1-2.2,2.2v25.8v26.9
			c0,2.2-1.1,3.2-3.2,3.2s-3.2-1.1-3.2-3.2v-26.9c0-1.1-1.1-2.2-2.2-2.2h-10.8c-1.1,0-2.2,1.1-2.2,2.2v26.9c0,2.2-1.1,3.2-3.2,3.2
			s-3.2-1.1-3.2-3.2v-26.9V72.1c0,0,0-1.1-1.1-1.1h-1.1l0,0H85.1c0,0-1.1-1.1-2.2-1.1l0,0l0,0L63.6,47.4l-1.1-1.1h-1.1
			c-1.1,1.1-1.1,2.2-1.1,3.2l20.5,59.2H62.5c-1.1,0-2.2,1.1-2.2,2.2v35.5v1.1c0,1.1-1.1,2.2-2.2,2.2c-2.2,0-4.3-1.1-4.3-3.2v-36.6
			c0-1.1-1.1-2.2-2.2-2.2H41c-1.1,0-2.2,1.1-2.2,2.2v36.6c0,1.1-1.1,2.2-2.2,2.2c-2.2,0-4.3-1.1-4.3-3.2v-1.1v-35.5
			c0-1.1-1.1-2.2-2.2-2.2H11.9l20.5-59.2c0-1.1,0-2.2-1.1-2.2h-1.1c-1.1,0-1.1,0-1.1,1.1l-20.5,28l-1.1,1.1c-1.1,0-2.2,1.1-2.2,1.1
			c-1.1,0-2.2,0-2.2-1.1c-2.2-3.2-1.1-5.4,0-6.5L27,38.7c0,0,1.1,0,3.2,0L61.5,38.7 M61.5,36.6H30.2c-2.2,0-3.2,0-4.3,1.1L2.2,67.8
			C0.1,70-1,73.2,1.2,76.4c1.1,1.1,2.2,1.1,4.3,1.1s2.2-1.1,4.3-2.2l1.1-1.1l20.5-26.9L9.8,108.7h21.5v35.5v1.1
			c1.1,3.2,3.2,4.3,6.5,4.3c2.2,0,4.3-2.2,4.3-4.3v-36.6h10.8v36.6c1.1,3.2,3.2,4.3,6.5,4.3c2.2,0,4.3-2.2,4.3-4.3v-1.1v-35.5h21.5
			L63.6,47.4L81.9,70C83,71,83,71,84.1,71s1.1,1.1,2.2,1.1l18.3-1.1c0,17.2,0,47.4,0,47.4l0,0v26.9c0,3.2,2.2,5.4,5.4,5.4
			c3.2,0,5.4-2.2,5.4-5.4v-26.9H126v26.9c0,3.2,2.2,5.4,5.4,5.4s5.4-2.2,5.4-5.4v-26.9l0,0c0,0,0-12.9,0-25.8l3.2,11.8
			c1.1,2.2,3.2,4.3,5.4,4.3h1.1c2.2-1.1,4.3-4.3,3.2-7.5l-10.8-37.7c-1.1-2.2-3.2-4.3-5.4-4.3h-26.9l-20.5,3.2L65.8,37.7
			C64.7,36.6,62.5,36.6,61.5,36.6L61.5,36.6z"/>
	</g>
</g>
</svg>
