<?xml version="1.0" encoding="utf-8"?>
<!-- Generator: Adobe Illustrator 22.0.1, SVG Export Plug-In . SVG Version: 6.00 Build 0)  -->
<!DOCTYPE svg PUBLIC "-//W3C//DTD SVG 1.1//EN" "http://www.w3.org/Graphics/SVG/1.1/DTD/svg11.dtd">
<svg version="1.1" xmlns="http://www.w3.org/2000/svg" xmlns:xlink="http://www.w3.org/1999/xlink" x="0px" y="0px" width="28.3px"
	 height="13.8px" viewBox="0 0 28.3 13.8" style="enable-background:new 0 0 28.3 13.8;" xml:space="preserve">
<style type="text/css">
	.st0{fill:#0FAED3;stroke:#0E5763;stroke-width:0.144;stroke-miterlimit:10;}
	.st1{fill:#0E5763;}
	.st2{fill:#0FAED3;}
	.st3{fill:#1B1D1C;}
	.st4{fill:#FFFFFF;}
</style>
<g id="svg4619" inkscape:version="0.91 r13725" sodipodi:docname="suitcase-15.svg" xmlns:cc="http://creativecommons.org/ns#" xmlns:dc="http://purl.org/dc/elements/1.1/" xmlns:inkscape="http://www.inkscape.org/namespaces/inkscape" xmlns:rdf="http://www.w3.org/1999/02/22-rdf-syntax-ns#" xmlns:sodipodi="http://sodipodi.sourceforge.net/DTD/sodipodi-0.dtd" xmlns:svg="http://www.w3.org/2000/svg">
	<g>
		<g>
			<path class="st0" d="M20.6,0.2c-3,0-5.4,2.5-5.4,5.4c0,3.6,5,7.6,5.2,7.8c0.1,0,0.1,0.1,0.2,0.1s0.1,0,0.2-0.1
				C21,13.3,26,9.3,26,5.6C26.1,2.7,23.6,0.2,20.6,0.2z"/>
		</g>
	</g>
	<path class="st1" d="M20.6,1.8c-2.2,0-3.9,1.8-3.9,3.9c0,1.2,0.6,2.3,1.5,3c0,0.1,0.1,0.2,0.2,0.3c0-0.1,0-0.2,0-0.3
		c0-1.2,1-2.2,2.2-2.2c1.2,0,2.2,1,2.2,2.2c0,0.1,0,0.2,0,0.3c0.1-0.1,0.2-0.2,0.4-0.3c0.9-0.7,1.4-1.8,1.4-3
		C24.6,3.5,22.8,1.8,20.6,1.8z"/>
	<path class="st2" d="M21.1,5.8c-0.1,0-0.3,0.1-0.4,0.1c-0.1,0-0.3,0-0.4-0.1c-0.6-0.2-1-0.7-1-1.4c0-0.8,0.6-1.4,1.4-1.4
		c0.8,0,1.4,0.7,1.4,1.4S21.6,5.6,21.1,5.8z"/>
</g>
<g id="eye">
	<path class="st3" d="M11.3,6.9C10.8,8.1,9.9,9,8.8,9.7c-0.7,0.5-1.4,0.8-2.2,0.9c-1,0.2-2,0.1-3-0.4C2.3,9.7,1.2,8.8,0.4,7.6
		C0.3,7.4,0.2,7.3,0.2,7.1c-0.1-0.2-0.1-0.4,0-0.6c0.2-0.4,0.4-0.7,0.6-1c0.9-1,1.9-1.8,3.3-2.3c1.2-0.4,2.5-0.3,3.7,0.2
		c1.3,0.6,2.3,1.5,3.1,2.7"/>
	<path class="st3" d="M2.9,6.8c0,1.5,1.2,2.8,2.7,2.8c1.6,0,2.8-1.2,2.9-2.7c0-1.6-1.2-2.8-2.8-2.9C4.1,4,2.9,5.3,2.9,6.8z"/>
	<path class="st4" d="M2.9,6.8c0-1.5,1.2-2.8,2.8-2.7c1.5,0,2.8,1.3,2.8,2.9c0,1.5-1.3,2.8-2.9,2.7C4.1,9.6,2.9,8.4,2.9,6.8z
		 M6.3,5.2c-0.6-0.3-1.5-0.1-2,0.6C3.8,6.6,3.9,7.5,4.5,8.1c0.6,0.6,1.6,0.6,2.2,0.1c0.7-0.5,0.8-1.4,0.5-2c-0.4,0.3-0.8,0.4-1.1,0
		C6,6.1,5.9,5.6,6.3,5.2z"/>
	<path class="st3" d="M6.3,5.2C5.9,5.6,6,6.1,6.2,6.3c0.3,0.3,0.7,0.3,1.1,0c0.3,0.5,0.1,1.4-0.5,2C6.1,8.7,5.1,8.7,4.5,8.1
		C3.9,7.5,3.8,6.6,4.2,5.9C4.7,5.1,5.6,4.9,6.3,5.2z"/>
</g>
</svg>
