<?xml version="1.0" encoding="utf-8"?>
<!-- Generator: Adobe Illustrator 22.0.1, SVG Export Plug-In . SVG Version: 6.00 Build 0)  -->
<!DOCTYPE svg PUBLIC "-//W3C//DTD SVG 1.1//EN" "http://www.w3.org/Graphics/SVG/1.1/DTD/svg11.dtd">
<svg version="1.1" xmlns="http://www.w3.org/2000/svg" xmlns:xlink="http://www.w3.org/1999/xlink" x="0px" y="0px" width="28px"
	 height="13.6px" viewBox="0 0 28 13.6" style="enable-background:new 0 0 28 13.6;" xml:space="preserve">
<style type="text/css">
	.st0{fill:#37BBA3;}
	.st1{fill:#0D5853;}
	.st2{fill:#1B1D1C;}
	.st3{fill:#FFFFFF;}
</style>
<g id="svg4619" inkscape:version="0.91 r13725" sodipodi:docname="suitcase-15.svg" xmlns:cc="http://creativecommons.org/ns#" xmlns:dc="http://purl.org/dc/elements/1.1/" xmlns:inkscape="http://www.inkscape.org/namespaces/inkscape" xmlns:rdf="http://www.w3.org/1999/02/22-rdf-syntax-ns#" xmlns:sodipodi="http://sodipodi.sourceforge.net/DTD/sodipodi-0.dtd" xmlns:svg="http://www.w3.org/2000/svg">
	<g>
		<circle cx="21" cy="7" r="5" stroke="#99401b" stroke-width="1" fill="#99401b" fill-opacity="1" />
	</g>
</g>
<g id="eye">
	<path class="st2" d="M11,7.2C10.5,8.4,9.6,9.3,8.5,10c-0.7,0.5-1.4,0.8-2.2,0.9c-1,0.2-2,0.1-3-0.4C2,10,0.9,9.1,0.1,7.9
		C0,7.7-0.1,7.6-0.1,7.4c-0.1-0.2-0.1-0.4,0-0.6c0.2-0.4,0.4-0.7,0.6-1c0.9-1,1.9-1.8,3.3-2.3C5,3.1,6.3,3.2,7.5,3.7
		c1.3,0.6,2.3,1.5,3.1,2.7"/>
	<path class="st2" d="M2.6,7.1c0,1.5,1.2,2.8,2.7,2.8c1.6,0,2.8-1.2,2.9-2.7c0-1.6-1.2-2.8-2.8-2.9C3.8,4.3,2.6,5.6,2.6,7.1z"/>
	<path class="st3" d="M2.6,7.1c0-1.5,1.2-2.8,2.8-2.7c1.5,0,2.8,1.3,2.8,2.9c0,1.5-1.3,2.8-2.9,2.7C3.8,9.9,2.6,8.7,2.6,7.1z M6,5.5
		C5.4,5.2,4.5,5.4,4,6.1C3.5,6.9,3.6,7.8,4.2,8.4S5.8,9,6.4,8.5c0.7-0.5,0.8-1.4,0.5-2c-0.4,0.3-0.8,0.4-1.1,0
		C5.7,6.4,5.6,5.9,6,5.5z"/>
	<path class="st2" d="M6,5.5C5.6,5.9,5.7,6.4,5.9,6.6c0.3,0.3,0.7,0.3,1.1,0c0.3,0.5,0.1,1.4-0.5,2C5.8,9,4.8,9,4.2,8.4
		S3.5,6.9,3.9,6.2C4.4,5.4,5.3,5.2,6,5.5z"/>
</g>
</svg>
