<?xml version="1.0" encoding="utf-8"?>
<!-- Generator: Adobe Illustrator 22.0.1, SVG Export Plug-In . SVG Version: 6.00 Build 0)  -->
<!DOCTYPE svg PUBLIC "-//W3C//DTD SVG 1.1//EN" "http://www.w3.org/Graphics/SVG/1.1/DTD/svg11.dtd">
<svg version="1.1" id="Layer_1" xmlns="http://www.w3.org/2000/svg" xmlns:xlink="http://www.w3.org/1999/xlink" x="0px" y="0px"
	 width="27.9px" height="13.5px" viewBox="0 0 27.9 13.5" style="enable-background:new 0 0 27.9 13.5;" xml:space="preserve">
<style type="text/css">
	.st0{fill:#B57AC4;}
	.st1{fill:#46234F;}
	.st2{fill:#1B1D1C;}
	.st3{fill:#FFFFFF;}
</style>
<g id="svg4619" inkscape:version="0.91 r13725" sodipodi:docname="suitcase-15.svg" xmlns:cc="http://creativecommons.org/ns#" xmlns:dc="http://purl.org/dc/elements/1.1/" xmlns:inkscape="http://www.inkscape.org/namespaces/inkscape" xmlns:rdf="http://www.w3.org/1999/02/22-rdf-syntax-ns#" xmlns:sodipodi="http://sodipodi.sourceforge.net/DTD/sodipodi-0.dtd" xmlns:svg="http://www.w3.org/2000/svg">
	<g>
		<g>
			<path class="st0" d="M15.1,13.4V7.9h12.8v5.5H15.1z M19.8,13.1H23V9.4h-3.2V13.1z M25.5,11.5h1.4v-1h-1.4V11.5z M24,11.5h1.4v-1
				H24V11.5z M17.4,11.5h1.4v-1h-1.4V11.5z M15.9,11.5h1.4v-1h-1.4V11.5z M25.5,10.4h1.4V9.3h-1.4V10.4z M24,10.4h1.4V9.3H24V10.4z
				 M17.4,10.4h1.4V9.3h-1.4V10.4z M15.9,10.4h1.4V9.3h-1.4V10.4z"/>
			<path class="st1" d="M27.8,8v5.3h-4.4H23h-3h-0.4h-4.4V8H27.8 M25.5,9.2h-0.2h-1.2h-0.2v0.2v0.9v0.2v0.1v0.8v0.2h0.2h1.2h0.1h0.2
				h1.2H27v-0.2v-0.8v-0.2v-0.1V9.4V9.2h-0.2H25.5L25.5,9.2 M17.4,9.2h-0.2H16h-0.2v0.2v0.9v0.2v0.1v0.8v0.2H16h1.2h0.1h0.2h1.2H19
				v-0.2v-0.8v-0.2v-0.1V9.4V9.2h-0.2H17.4L17.4,9.2 M19.8,13.2H20h3h0.2V13V9.5V9.3H23h-3h-0.2v0.2V13V13.2 M27.9,7.8h-13v5.7h4.6
				h0.4h3h0.4h4.6V7.8L27.9,7.8z M25.6,10.3V9.4h1.2v0.9L25.6,10.3L25.6,10.3z M24.1,10.3V9.4h1.2v0.9L24.1,10.3L24.1,10.3z
				 M17.5,10.3V9.4h1.2v0.9L17.5,10.3L17.5,10.3z M16,10.3V9.4h1.2v0.9L16,10.3L16,10.3z M19.9,13V9.5h3V13H19.9L19.9,13z
				 M25.6,11.4v-0.8h1.2v0.8H25.6L25.6,11.4z M24.1,11.4v-0.8h1.2v0.8H24.1L24.1,11.4z M17.5,11.4v-0.8h1.2v0.8H17.5L17.5,11.4z
				 M16,11.4v-0.8h1.2v0.8H16L16,11.4z"/>
		</g>
		<g>
			<polygon class="st0" points="18.8,7.3 18.8,4.6 21,3.3 21.1,0.8 22.1,0.1 23.3,0.9 24.3,0.2 24.3,1.7 23.3,2.5 22.1,1.6 
				21.8,1.8 21.8,3.2 24,4.7 23.9,7.3 			"/>
			<path class="st1" d="M22.1,0.2l1.1,0.7L23.3,1l0.1-0.1l0.8-0.6v1.3l-0.9,0.8l-1.1-0.8l-0.1-0.1L22,1.6l-0.3,0.2h-0.1v0.1v1.3v0.1
				l0.1,0.1l2.1,1.3v2.5H19V4.7l2.2-1.3l0.1-0.1V3.2V0.9L22.1,0.2 M24.4,0l-1.1,0.8L22.1,0L21,0.8v2.4l-2.3,1.4v2.8H24V4.6l-2.2-1.4
				V1.9l0.3-0.2l1.2,0.9l1.1-0.9V0L24.4,0z"/>
		</g>
		<g>
			<rect x="20.3" y="12.5" class="st0" width="2.4" height="0.1"/>
			<polygon class="st1" points="22.8,12.5 20.1,12.5 20.1,12.7 22.8,12.7 			"/>
		</g>
	</g>
</g>
<g id="eyeball">
	<path class="st2" d="M11.2,6.9C10.7,8.1,9.8,9,8.7,9.7c-0.7,0.5-1.4,0.8-2.2,0.9c-1,0.2-2,0.1-3-0.4C2.2,9.7,1.1,8.8,0.3,7.6
		C0.2,7.4,0.1,7.3,0.1,7.1C0,6.9,0,6.7,0.1,6.5c0.2-0.4,0.4-0.7,0.6-1c0.9-1,1.9-1.8,3.3-2.3c1.2-0.4,2.5-0.3,3.7,0.2
		C9,4,10,4.9,10.8,6.1c0.1,0.2,0.2,0.4,0.3,0.7C11.2,6.8,11.2,6.8,11.2,6.9z M2.8,6.8c0,1.5,1.2,2.8,2.7,2.8c1.6,0,2.8-1.2,2.9-2.7
		c0-1.6-1.2-2.8-2.8-2.9C4,4,2.8,5.3,2.8,6.8z"/>
	<path class="st3" d="M2.8,6.8C2.8,5.3,4,4,5.6,4.1c1.5,0,2.8,1.3,2.8,2.9c0,1.5-1.3,2.8-2.9,2.7C4,9.6,2.8,8.4,2.8,6.8z M6.2,5.2
		c-0.6-0.3-1.5-0.1-2,0.6C3.7,6.6,3.8,7.5,4.4,8.1C5,8.7,6,8.7,6.6,8.2c0.7-0.5,0.8-1.4,0.5-2C6.7,6.5,6.3,6.6,6,6.2
		C5.9,6.1,5.8,5.6,6.2,5.2z"/>
	<path class="st2" d="M6.2,5.2C5.8,5.6,5.9,6.1,6.1,6.3c0.3,0.3,0.7,0.3,1.1,0c0.3,0.5,0.1,1.4-0.5,2C6,8.7,5,8.7,4.4,8.1
		C3.8,7.5,3.7,6.6,4.1,5.9C4.6,5.1,5.5,4.9,6.2,5.2z"/>
</g>
</svg>
