<?xml version="1.0" encoding="utf-8"?>
<!-- Generator: Adobe Illustrator 22.0.1, SVG Export Plug-In . SVG Version: 6.00 Build 0)  -->
<svg version="1.0"
	 id="svg4619" inkscape:version="0.91 r13725" sodipodi:docname="suitcase-15.svg" xmlns:cc="http://creativecommons.org/ns#" xmlns:dc="http://purl.org/dc/elements/1.1/" xmlns:inkscape="http://www.inkscape.org/namespaces/inkscape" xmlns:rdf="http://www.w3.org/1999/02/22-rdf-syntax-ns#" xmlns:sodipodi="http://sodipodi.sourceforge.net/DTD/sodipodi-0.dtd" xmlns:svg="http://www.w3.org/2000/svg"
	 xmlns="http://www.w3.org/2000/svg" xmlns:xlink="http://www.w3.org/1999/xlink" x="0px" y="0px" width="13px" height="13.5px"
	 viewBox="0 0 13 13.5" enable-background="new 0 0 13 13.5" xml:space="preserve">
<g>
	<g>
		<path fill="#B57AC4" d="M0.1,13.4V7.9h12.8v5.5H0.1z M4.9,13.1h3.2V9.4H4.9V13.1z M10.6,11.5H12v-1h-1.4V11.5z M9.1,11.5h1.4v-1
			H9.1V11.5z M2.5,11.5h1.4v-1H2.5V11.5z M1,11.5h1.4v-1H1V11.5z M10.6,10.4H12V9.3h-1.4V10.4z M9.1,10.4h1.4V9.3H9.1V10.4z
			 M2.5,10.4h1.4V9.3H2.5V10.4z M1,10.4h1.4V9.3H1V10.4z"/>
		<path fill="#46234F" d="M12.8,8v5.3H8.4H8H5H4.6H0.2V8H12.8 M10.6,9.2h-0.2H9.2H9v0.2v0.9v0.2v0.1v0.8v0.2h0.2h1.2h0.1h0.2h1.2
			h0.2v-0.2v-0.8v-0.2v-0.1V9.4V9.2h-0.2H10.6L10.6,9.2 M2.5,9.2H2.3H1.1H0.9v0.2v0.9v0.2v0.1v0.8v0.2h0.2h1.2h0.1h0.2h1.2H4v-0.2
			v-0.8v-0.2v-0.1V9.4V9.2H3.8H2.5L2.5,9.2 M4.8,13.2H5h3h0.2V13V9.5V9.3H8H5H4.8v0.2V13V13.2 M13,7.8H0v5.7h4.6H5h3h0.4H13V7.8
			L13,7.8z M10.7,10.3V9.4h1.2v0.9H10.7L10.7,10.3z M9.2,10.3V9.4h1.2v0.9H9.2L9.2,10.3z M2.6,10.3V9.4h1.2v0.9H2.6L2.6,10.3z
			 M1.1,10.3V9.4h1.2v0.9H1.1L1.1,10.3z M5,13V9.5h3V13H5L5,13z M10.7,11.4v-0.8h1.2v0.8H10.7L10.7,11.4z M9.2,11.4v-0.8h1.2v0.8
			H9.2L9.2,11.4z M2.6,11.4v-0.8h1.2v0.8H2.6L2.6,11.4z M1.1,11.4v-0.8h1.2v0.8H1.1L1.1,11.4z"/>
	</g>
	<g>
		<polygon fill="#B57AC4" points="3.9,7.3 3.9,4.6 6.1,3.3 6.2,0.8 7.2,0.1 8.4,0.9 9.4,0.2 9.4,1.7 8.4,2.5 7.2,1.6 6.9,1.8 
			6.8,3.2 9.1,4.7 9,7.3 		"/>
		<path fill="#46234F" d="M7.2,0.2l1.1,0.7L8.4,1l0.1-0.1l0.8-0.6v1.3L8.4,2.4L7.3,1.6L7.2,1.5L7.1,1.6L6.8,1.8H6.7v0.1v1.3v0.1
			l0.1,0.1l2.1,1.3v2.5H4V4.7l2.2-1.3l0.1-0.1V3.2V0.9L7.2,0.2 M9.5,0L8.4,0.8L7.2,0L6.1,0.8v2.4L3.8,4.6v2.8h5.3V4.6L6.9,3.2V1.9
			l0.3-0.2l1.2,0.9l1.1-0.9V0L9.5,0z"/>
	</g>
	<g>
		<rect x="5.3" y="12.5" fill="#B57AC4" width="2.4" height="0.1"/>
		<polygon fill="#46234F" points="7.8,12.5 5.2,12.5 5.2,12.7 7.8,12.7 		"/>
	</g>
</g>
</svg>
