<?xml version="1.0" encoding="utf-8"?>
<!-- Generator: Adobe Illustrator 22.0.1, SVG Export Plug-In . SVG Version: 6.00 Build 0)  -->
<svg version="1.0"
	 id="svg4619" inkscape:version="0.91 r13725" sodipodi:docname="suitcase-15.svg" xmlns:cc="http://creativecommons.org/ns#" xmlns:dc="http://purl.org/dc/elements/1.1/" xmlns:inkscape="http://www.inkscape.org/namespaces/inkscape" xmlns:rdf="http://www.w3.org/1999/02/22-rdf-syntax-ns#" xmlns:sodipodi="http://sodipodi.sourceforge.net/DTD/sodipodi-0.dtd" xmlns:svg="http://www.w3.org/2000/svg"
	 xmlns="http://www.w3.org/2000/svg" xmlns:xlink="http://www.w3.org/1999/xlink" x="0px" y="0px" width="150px" height="155.8px"
	 viewBox="0 0 150 155.8" enable-background="new 0 0 150 155.8" xml:space="preserve">
<g>
	<g>
		<path fill="#B57AC4" d="M1.2,154.6V91.2h147.7v63.5H1.2z M56.5,151.2h36.9v-42.7H56.5V151.2z M122.3,132.7h16.2v-11.5h-16.2V132.7
			z M105,132.7h16.2v-11.5H105V132.7z M28.8,132.7H45v-11.5H28.8V132.7z M11.5,132.7h16.2v-11.5H11.5V132.7z M122.3,120h16.2v-12.7
			h-16.2V120z M105,120h16.2v-12.7H105V120z M28.8,120H45v-12.7H28.8V120z M11.5,120h16.2v-12.7H11.5V120z"/>
		<path fill="#46234F" d="M147.7,92.3v61.2H96.9h-4.6H57.7h-4.6H2.3V92.3H147.7 M122.3,106.2H120h-13.8h-2.3v2.3v10.4v2.3v1.2v9.2
			v2.3h2.3H120h1.2h2.3h13.8h2.3v-2.3v-9.2V120v-1.2v-10.4v-2.3h-2.3H122.3L122.3,106.2 M28.8,106.2h-2.3H12.7h-2.3v2.3v10.4v2.3
			v1.2v9.2v2.3h2.3h13.8h1.2H30h13.8h2.3v-2.3v-9.2V120v-1.2v-10.4v-2.3h-2.3H28.8L28.8,106.2 M55.4,152.3h2.3h34.6h2.3V150v-40.4
			v-2.3h-2.3H57.7h-2.3v2.3V150V152.3 M150,90H0v65.8h53.1h4.6h34.6h4.6H150V90L150,90z M123.5,118.8v-10.4h13.8v10.4L123.5,118.8
			L123.5,118.8z M106.2,118.8v-10.4H120v10.4L106.2,118.8L106.2,118.8z M30,118.8v-10.4h13.8v10.4L30,118.8L30,118.8z M12.7,118.8
			v-10.4h13.8v10.4L12.7,118.8L12.7,118.8z M57.7,150v-40.4h34.6V150H57.7L57.7,150z M123.5,131.5v-9.2h13.8v9.2H123.5L123.5,131.5z
			 M106.2,131.5v-9.2H120v9.2H106.2L106.2,131.5z M30,131.5v-9.2h13.8v9.2H30L30,131.5z M12.7,131.5v-9.2h13.8v9.2H12.7L12.7,131.5z
			"/>
	</g>
	<g>
		<polygon fill="#B57AC4" points="45,84.2 45,53.1 70.4,38.1 71.5,9.2 83.1,1.2 96.9,10.4 108.5,2.3 108.5,19.6 96.9,28.8 
			83.1,18.5 79.6,20.8 78.5,36.9 105,54.2 103.8,84.2 		"/>
		<path fill="#46234F" d="M83.1,2.3l12.7,8.1l1.2,1.2l1.2-1.2l9.2-6.9v15l-10.4,9.2l-12.7-9.2l-1.2-1.2l-1.2,1.2l-3.5,2.3h-1.2v1.2
			v15v1.2l1.2,1.2l24.2,15v28.8H46.2V54.2l25.4-15l1.2-1.2v-1.2V10.4L83.1,2.3 M109.6,0L96.9,9.2L83.1,0L70.4,9.2v27.7L43.8,53.1
			v32.3H105V53.1L79.6,36.9v-15l3.5-2.3L96.9,30l12.7-10.4L109.6,0L109.6,0z"/>
	</g>
	<g>
		<rect x="61.2" y="144.2" fill="#B57AC4" width="27.7" height="1.2"/>
		<polygon fill="#46234F" points="90,144.2 60,144.2 60,146.5 90,146.5 		"/>
	</g>
</g>
</svg>
