<?xml version="1.0" encoding="utf-8"?>
<!-- Generator: Adobe Illustrator 22.0.1, SVG Export Plug-In . SVG Version: 6.00 Build 0)  -->
<svg version="1.0"
	 id="svg4619" inkscape:version="0.91 r13725" sodipodi:docname="suitcase-15.svg" xmlns:cc="http://creativecommons.org/ns#" xmlns:dc="http://purl.org/dc/elements/1.1/" xmlns:inkscape="http://www.inkscape.org/namespaces/inkscape" xmlns:rdf="http://www.w3.org/1999/02/22-rdf-syntax-ns#" xmlns:sodipodi="http://sodipodi.sourceforge.net/DTD/sodipodi-0.dtd" xmlns:svg="http://www.w3.org/2000/svg"
	 xmlns="http://www.w3.org/2000/svg" xmlns:xlink="http://www.w3.org/1999/xlink" x="0px" y="0px" width="150px" height="141.2px"
	 viewBox="0 0 150 141.2" enable-background="new 0 0 150 141.2" xml:space="preserve">
<g>
	<g>
		<polygon fill="#37BBA3" points="1.1,38.6 1.1,34.2 75,1.1 150,35.3 148.9,38.6 		"/>
		<path fill="#0D5853" d="M75,2.2l72.8,33.1v2.2H2.2v-2.2L75,2.2 M75,0L0,34.2v5.5h150v-5.5L75,0L75,0z"/>
	</g>
	<g>
		<path fill="#37BBA3" d="M91.5,140.1V88.2c0-8.8-6.6-16.5-16.5-16.5s-16.5,7.7-16.5,16.5V139H1.1v-13.2l9.9-15.4V49.6H139v60.7
			l9.9,15.4V139H91.5V140.1z M119.1,126.8h12.1V58.5h-12.1V126.8z M99.3,126.8h12.1V58.5H99.3V126.8z M37.5,126.8h12.1V58.5H37.5
			V126.8z M18.8,126.8h12.1V58.5H18.8V126.8z"/>
		<path fill="#0D5853" d="M137.9,51.8v59.6v1.1l0,0l9.9,15.4v12.1H92.6V88.2c0-9.9-7.7-17.6-17.6-17.6s-17.6,7.7-17.6,17.6v49.6H2.2
			v-12.1l9.9-15.4l0,0v-1.1V51.8H137.9 M118,127.9h2.2h9.9h2.2v-2.2V59.6v-2.2h-2.2h-9.9H118v2.2v66.2L118,127.9 M98.2,127.9h2.2
			h9.9h2.2v-2.2V59.6v-2.2h-2.2h-9.9h-2.2v2.2v66.2V127.9 M36.4,127.9h2.2h11v-2.2h1.1V59.6v-2.2h-2.2h-9.9h-2.2v2.2v66.2V127.9
			 M17.6,127.9h2.2h9.9H32v-2.2V59.6v-2.2h-2.2h-9.9h-2.2v2.2v66.2V127.9 M140.1,49.6H9.9v60.7L0,125.7v14.3h59.6V88.2
			c0-8.8,6.6-15.4,15.4-15.4s15.4,6.6,15.4,15.4v52.9H150v-14.3l-9.9-15.4L140.1,49.6L140.1,49.6z M120.2,125.7V59.6h9.9v66.2H120.2
			L120.2,125.7z M100.4,125.7V59.6h9.9v66.2H100.4L100.4,125.7z M38.6,125.7V59.6h9.9v66.2h1.1H38.6L38.6,125.7z M19.9,125.7V59.6
			h9.9v66.2H19.9L19.9,125.7z"/>
	</g>
</g>
</svg>
