<?xml version="1.0" encoding="utf-8"?>
<!-- Generator: Adobe Illustrator 22.0.1, SVG Export Plug-In . SVG Version: 6.00 Build 0)  -->
<!DOCTYPE svg PUBLIC "-//W3C//DTD SVG 1.1//EN" "http://www.w3.org/Graphics/SVG/1.1/DTD/svg11.dtd">
<svg version="1.1" xmlns="http://www.w3.org/2000/svg" xmlns:xlink="http://www.w3.org/1999/xlink" x="0px" y="0px" width="28px"
	 height="13.6px" viewBox="0 0 28 13.6" style="enable-background:new 0 0 28 13.6;" xml:space="preserve">
<style type="text/css">
	.st0{fill:#37BBA3;}
	.st1{fill:#0D5853;}
	.st2{fill:#1B1D1C;}
	.st3{fill:#FFFFFF;}
</style>
<g id="svg4619" inkscape:version="0.91 r13725" sodipodi:docname="suitcase-15.svg" xmlns:cc="http://creativecommons.org/ns#" xmlns:dc="http://purl.org/dc/elements/1.1/" xmlns:inkscape="http://www.inkscape.org/namespaces/inkscape" xmlns:rdf="http://www.w3.org/1999/02/22-rdf-syntax-ns#" xmlns:sodipodi="http://sodipodi.sourceforge.net/DTD/sodipodi-0.dtd" xmlns:svg="http://www.w3.org/2000/svg">
	<g>
		<g>
			<polygon class="st0" points="14.5,3.8 14.5,3.4 21.2,0.4 28,3.5 27.9,3.8 			"/>
			<path class="st1" d="M21.2,0.5l6.6,3v0.2H14.6V3.5L21.2,0.5 M21.2,0.3l-6.8,3.1v0.5H28V3.4L21.2,0.3L21.2,0.3z"/>
		</g>
		<g>
			<path class="st0" d="M22.7,13V8.3c0-0.8-0.6-1.5-1.5-1.5s-1.5,0.7-1.5,1.5v4.6h-5.2v-1.2l0.9-1.4V4.8H27v5.5l0.9,1.4v1.2h-5.2V13
				z M25.2,11.8h1.1V5.6h-1.1V11.8z M23.4,11.8h1.1V5.6h-1.1V11.8z M17.8,11.8h1.1V5.6h-1.1V11.8z M16.1,11.8h1.1V5.6h-1.1V11.8z"/>
			<path class="st1" d="M26.9,5v5.4v0.1l0,0l0.9,1.4V13h-5V8.3c0-0.9-0.7-1.6-1.6-1.6c-0.9,0-1.6,0.7-1.6,1.6v4.5h-5v-1.1l0.9-1.4
				l0,0v-0.1V5H26.9 M25.1,11.9h0.2h0.9h0.2v-0.2v-6V5.5h-0.2h-0.9h-0.2v0.2v6V11.9 M23.3,11.9h0.2h0.9h0.2v-0.2v-6V5.5h-0.2h-0.9
				h-0.2v0.2v6V11.9 M17.7,11.9h0.2h1v-0.2H19v-6V5.5h-0.2h-0.9h-0.2v0.2v6V11.9 M16,11.9h0.2h0.9h0.2v-0.2v-6V5.5h-0.2h-0.9H16v0.2
				v6V11.9 M27.1,4.8H15.3v5.5l-0.9,1.4V13h5.4V8.3c0-0.8,0.6-1.4,1.4-1.4c0.8,0,1.4,0.6,1.4,1.4v4.8H28v-1.3l-0.9-1.4V4.8L27.1,4.8
				z M25.3,11.7v-6h0.9v6H25.3L25.3,11.7z M23.5,11.7v-6h0.9v6H23.5L23.5,11.7z M17.9,11.7v-6h0.9v6h0.1H17.9L17.9,11.7z M16.2,11.7
				v-6h0.9v6H16.2L16.2,11.7z"/>
		</g>
	</g>
</g>
<g id="eye">
	<path class="st2" d="M11,7.2C10.5,8.4,9.6,9.3,8.5,10c-0.7,0.5-1.4,0.8-2.2,0.9c-1,0.2-2,0.1-3-0.4C2,10,0.9,9.1,0.1,7.9
		C0,7.7-0.1,7.6-0.1,7.4c-0.1-0.2-0.1-0.4,0-0.6c0.2-0.4,0.4-0.7,0.6-1c0.9-1,1.9-1.8,3.3-2.3C5,3.1,6.3,3.2,7.5,3.7
		c1.3,0.6,2.3,1.5,3.1,2.7"/>
	<path class="st2" d="M2.6,7.1c0,1.5,1.2,2.8,2.7,2.8c1.6,0,2.8-1.2,2.9-2.7c0-1.6-1.2-2.8-2.8-2.9C3.8,4.3,2.6,5.6,2.6,7.1z"/>
	<path class="st3" d="M2.6,7.1c0-1.5,1.2-2.8,2.8-2.7c1.5,0,2.8,1.3,2.8,2.9c0,1.5-1.3,2.8-2.9,2.7C3.8,9.9,2.6,8.7,2.6,7.1z M6,5.5
		C5.4,5.2,4.5,5.4,4,6.1C3.5,6.9,3.6,7.8,4.2,8.4S5.8,9,6.4,8.5c0.7-0.5,0.8-1.4,0.5-2c-0.4,0.3-0.8,0.4-1.1,0
		C5.7,6.4,5.6,5.9,6,5.5z"/>
	<path class="st2" d="M6,5.5C5.6,5.9,5.7,6.4,5.9,6.6c0.3,0.3,0.7,0.3,1.1,0c0.3,0.5,0.1,1.4-0.5,2C5.8,9,4.8,9,4.2,8.4
		S3.5,6.9,3.9,6.2C4.4,5.4,5.3,5.2,6,5.5z"/>
</g>
</svg>
