<?xml version="1.0" encoding="utf-8"?>
<!-- Generator: Adobe Illustrator 22.0.1, SVG Export Plug-In . SVG Version: 6.00 Build 0)  -->
<svg version="1.0"
	 id="svg4619" inkscape:version="0.91 r13725" sodipodi:docname="suitcase-15.svg" xmlns:cc="http://creativecommons.org/ns#" xmlns:dc="http://purl.org/dc/elements/1.1/" xmlns:inkscape="http://www.inkscape.org/namespaces/inkscape" xmlns:rdf="http://www.w3.org/1999/02/22-rdf-syntax-ns#" xmlns:sodipodi="http://sodipodi.sourceforge.net/DTD/sodipodi-0.dtd" xmlns:svg="http://www.w3.org/2000/svg"
	 xmlns="http://www.w3.org/2000/svg" xmlns:xlink="http://www.w3.org/1999/xlink" x="0px" y="0px" width="13.9px" height="14px"
	 viewBox="0 0 13.9 14" enable-background="new 0 0 13.9 14" xml:space="preserve">
<g>
	<g>
		<circle fill="#A6A4FF" cx="4.2" cy="1.5" r="1.4"/>
		<path fill="#5757A0" d="M4.2,0.2c0.8,0,1.3,0.6,1.3,1.3S4.9,2.8,4.2,2.8S2.9,2.2,2.9,1.5S3.5,0.2,4.2,0.2 M4.2,0
			C3.4,0,2.7,0.7,2.7,1.5S3.4,3,4.2,3s1.5-0.7,1.5-1.5S5.1,0,4.2,0L4.2,0z"/>
	</g>
	<g>
		<path fill="#A6A4FF" d="M11,5.3c-0.7,0-1.2-0.5-1.2-1.2s0.5-1.2,1.2-1.2s1.2,0.5,1.2,1.2S11.7,5.3,11,5.3z"/>
		<path fill="#5757A0" d="M11,3c0.6,0,1.1,0.5,1.1,1.1S11.6,5.2,11,5.2S9.9,4.7,9.9,4.1S10.4,3,11,3 M11,2.8c-0.7,0-1.3,0.6-1.3,1.3
			s0.6,1.3,1.3,1.3s1.3-0.6,1.3-1.3S11.7,2.8,11,2.8L11,2.8z"/>
	</g>
	<g>
		<path fill="#A6A4FF" d="M12.1,14c-0.2,0-0.4-0.2-0.4-0.4v-2.5c0,0,0-0.1-0.1-0.1h-1c0,0-0.1,0-0.1,0.1v2.5c0,0.2-0.2,0.4-0.4,0.4
			s-0.4-0.2-0.4-0.4V6.7c0,0,0,0,0-0.1c0,0,0,0-0.1,0L7.9,6.7c-0.1,0-0.1-0.1-0.2-0.1s-0.1,0-0.1-0.1L5.9,4.4c0,0,0,0-0.1,0l0,0
			c0,0-0.1,0.1,0,0.1l2,5.6h-2c0,0-0.1,0-0.1,0.1v3.4c0,0.2-0.2,0.3-0.3,0.3c-0.3,0-0.4-0.1-0.5-0.3v-3.4c0,0,0-0.1-0.1-0.1h-1
			c0,0-0.1,0-0.1,0.1v3.4c0,0.2-0.2,0.3-0.3,0.3c-0.3,0-0.4-0.1-0.5-0.3v-0.1v-3.3c0,0,0-0.1-0.1-0.1H0.9l2-5.6V4.4l0,0H2.8l-2,2.5
			L0.7,7c0,0.1-0.1,0.2-0.3,0.2s-0.2,0-0.3-0.1C0,6.7,0.2,6.5,0.3,6.4l2.2-2.8c0.1-0.1,0.1-0.1,0.3-0.1h2.9c0.1,0,0.3,0,0.3,0.1
			l1.9,2.3l1.9-0.2h2.5c0.2,0,0.3,0.2,0.4,0.4l1,3.5c0.1,0.3-0.1,0.5-0.3,0.6h-0.1c-0.2,0-0.3-0.2-0.4-0.4l-0.3-1.1
			c0,0,0-0.1-0.1-0.1l0,0c0,0-0.1,0-0.1,0.1v4.9C12.5,13.8,12.3,14,12.1,14z"/>
		<path fill="#5757A0" d="M5.7,3.6c0.1,0,0.2,0,0.3,0l1.9,2.3L8,6l0,0l1.8-0.2h2.5c0.1,0,0.3,0.1,0.3,0.3l1,3.5
			c0.1,0.2-0.1,0.4-0.2,0.5h-0.1c-0.1,0-0.3-0.1-0.3-0.3l-0.3-1.1c0-0.1-0.1-0.1-0.2-0.1l0,0c-0.1,0-0.2,0.1-0.2,0.2v2.4v2.5
			c0,0.2-0.1,0.3-0.3,0.3s-0.3-0.1-0.3-0.3v-2.5c0-0.1-0.1-0.2-0.2-0.2h-1c-0.1,0-0.2,0.1-0.2,0.2v2.5c0,0.2-0.1,0.3-0.3,0.3
			s-0.3-0.1-0.3-0.3v-2.5V6.7c0,0,0-0.1-0.1-0.1H9.5l0,0H7.9c0,0-0.1-0.1-0.2-0.1l0,0l0,0L5.9,4.4L5.8,4.3H5.7
			C5.6,4.4,5.6,4.5,5.6,4.6l1.9,5.5H5.8c-0.1,0-0.2,0.1-0.2,0.2v3.3v0.1c0,0.1-0.1,0.2-0.2,0.2c-0.2,0-0.4-0.1-0.4-0.3v-3.4
			C5,10.1,4.9,10,4.8,10h-1c-0.1,0-0.2,0.1-0.2,0.2v3.4c0,0.1-0.1,0.2-0.2,0.2c-0.2,0-0.4-0.1-0.4-0.3v-0.1v-3.3
			C3,10,2.9,9.9,2.8,9.9H1.1L3,4.4c0-0.1,0-0.2-0.1-0.2H2.8c-0.1,0-0.1,0-0.1,0.1L0.8,6.9L0.7,7C0.6,7,0.5,7.1,0.5,7.1
			c-0.1,0-0.2,0-0.2-0.1c-0.2-0.3-0.1-0.5,0-0.6l2.2-2.8c0,0,0.1,0,0.3,0H5.7 M5.7,3.4H2.8c-0.2,0-0.3,0-0.4,0.1L0.2,6.3
			C0,6.5-0.1,6.8,0.1,7.1c0.1,0.1,0.2,0.1,0.4,0.1S0.7,7.1,0.9,7L1,6.9l1.9-2.5l-2,5.7h2v3.3v0.1c0.1,0.3,0.3,0.4,0.6,0.4
			c0.2,0,0.4-0.2,0.4-0.4v-3.4h1v3.4c0.1,0.3,0.3,0.4,0.6,0.4c0.2,0,0.4-0.2,0.4-0.4v-0.1v-3.3h2l-2-5.7l1.7,2.1
			c0.1,0.1,0.1,0.1,0.2,0.1c0.1,0,0.1,0.1,0.2,0.1l1.7-0.1c0,1.6,0,4.4,0,4.4l0,0v2.5c0,0.3,0.2,0.5,0.5,0.5s0.5-0.2,0.5-0.5V11h1
			v2.5c0,0.3,0.2,0.5,0.5,0.5s0.5-0.2,0.5-0.5V11l0,0c0,0,0-1.2,0-2.4L13,9.7c0.1,0.2,0.3,0.4,0.5,0.4h0.1c0.2-0.1,0.4-0.4,0.3-0.7
			l-1-3.5c-0.1-0.2-0.3-0.4-0.5-0.4H9.9L8,5.8L6.1,3.5C6,3.4,5.8,3.4,5.7,3.4L5.7,3.4z"/>
	</g>
</g>
</svg>
