<?xml version="1.0" encoding="utf-8"?>
<!-- Generator: Adobe Illustrator 22.0.1, SVG Export Plug-In . SVG Version: 6.00 Build 0)  -->
<!DOCTYPE svg PUBLIC "-//W3C//DTD SVG 1.1//EN" "http://www.w3.org/Graphics/SVG/1.1/DTD/svg11.dtd">
<svg version="1.1"
	 id="svg4619" inkscape:version="0.91 r13725" sodipodi:docname="suitcase-15.svg" xmlns:cc="http://creativecommons.org/ns#" xmlns:dc="http://purl.org/dc/elements/1.1/" xmlns:inkscape="http://www.inkscape.org/namespaces/inkscape" xmlns:rdf="http://www.w3.org/1999/02/22-rdf-syntax-ns#" xmlns:sodipodi="http://sodipodi.sourceforge.net/DTD/sodipodi-0.dtd" xmlns:svg="http://www.w3.org/2000/svg"
	 xmlns="http://www.w3.org/2000/svg" xmlns:xlink="http://www.w3.org/1999/xlink" x="0px" y="0px" width="27.9px" height="14px"
	 viewBox="0 0 27.9 14" style="enable-background:new 0 0 27.9 14;" xml:space="preserve">
<style type="text/css">
	.st0{fill:#A6A4FF;}
	.st1{fill:#5757A0;}
	.st2{fill:#1A1B1B;}
	.st3{fill:#FFFFFF;}
</style>
<g>
	<g>
		<circle class="st0" cx="18.2" cy="1.5" r="1.4"/>
		<path class="st1" d="M18.2,0.2c0.8,0,1.3,0.6,1.3,1.3s-0.6,1.3-1.3,1.3s-1.3-0.6-1.3-1.3S17.5,0.2,18.2,0.2 M18.2,0
			c-0.8,0-1.5,0.7-1.5,1.5S17.4,3,18.2,3s1.5-0.7,1.5-1.5S19.1,0,18.2,0L18.2,0z"/>
	</g>
	<g>
		<path class="st0" d="M25,5.3c-0.7,0-1.2-0.5-1.2-1.2s0.5-1.2,1.2-1.2c0.7,0,1.2,0.5,1.2,1.2S25.7,5.3,25,5.3z"/>
		<path class="st1" d="M25,3c0.6,0,1.1,0.5,1.1,1.1S25.6,5.2,25,5.2s-1.1-0.5-1.1-1.1S24.4,3,25,3 M25,2.8c-0.7,0-1.3,0.6-1.3,1.3
			s0.6,1.3,1.3,1.3c0.7,0,1.3-0.6,1.3-1.3S25.7,2.8,25,2.8L25,2.8z"/>
	</g>
	<g>
		<path class="st0" d="M26.1,14c-0.2,0-0.4-0.2-0.4-0.4v-2.5c0,0,0-0.1-0.1-0.1h-1c0,0-0.1,0-0.1,0.1v2.5c0,0.2-0.2,0.4-0.4,0.4
			c-0.2,0-0.4-0.2-0.4-0.4V6.7c0,0,0,0,0-0.1c0,0,0,0-0.1,0l-1.7,0.1c-0.1,0-0.1-0.1-0.2-0.1c-0.1,0-0.1,0-0.1-0.1l-1.7-2.1
			c0,0,0,0-0.1,0l0,0c0,0-0.1,0.1,0,0.1l2,5.6h-2c0,0-0.1,0-0.1,0.1v3.4c0,0.2-0.2,0.3-0.3,0.3c-0.3,0-0.4-0.1-0.5-0.3v-3.4
			c0,0,0-0.1-0.1-0.1h-1c0,0-0.1,0-0.1,0.1v3.4c0,0.2-0.2,0.3-0.3,0.3c-0.3,0-0.4-0.1-0.5-0.3v-0.1v-3.3c0,0,0-0.1-0.1-0.1h-1.9
			l2-5.6V4.4l0,0h-0.1l-2,2.5L14.7,7c0,0.1-0.1,0.2-0.3,0.2s-0.2,0-0.3-0.1c-0.1-0.4,0.1-0.6,0.2-0.7l2.2-2.8
			c0.1-0.1,0.1-0.1,0.3-0.1h2.9c0.1,0,0.3,0,0.3,0.1l1.9,2.3l1.9-0.2h2.5c0.2,0,0.3,0.2,0.4,0.4l1,3.5c0.1,0.3-0.1,0.5-0.3,0.6h-0.1
			c-0.2,0-0.3-0.2-0.4-0.4l-0.3-1.1c0,0,0-0.1-0.1-0.1l0,0c0,0-0.1,0-0.1,0.1v4.9C26.5,13.8,26.3,14,26.1,14z"/>
		<path class="st1" d="M19.7,3.6c0.1,0,0.2,0,0.3,0l1.9,2.3L22,6l0,0l1.8-0.2h2.5c0.1,0,0.3,0.1,0.3,0.3l1,3.5
			c0.1,0.2-0.1,0.4-0.2,0.5h-0.1c-0.1,0-0.3-0.1-0.3-0.3l-0.3-1.1c0-0.1-0.1-0.1-0.2-0.1l0,0c-0.1,0-0.2,0.1-0.2,0.2v2.4v2.5
			c0,0.2-0.1,0.3-0.3,0.3c-0.2,0-0.3-0.1-0.3-0.3v-2.5c0-0.1-0.1-0.2-0.2-0.2h-1c-0.1,0-0.2,0.1-0.2,0.2v2.5c0,0.2-0.1,0.3-0.3,0.3
			c-0.2,0-0.3-0.1-0.3-0.3v-2.5V6.7c0,0,0-0.1-0.1-0.1h-0.1l0,0h-1.6c0,0-0.1-0.1-0.2-0.1l0,0l0,0l-1.8-2.1l-0.1-0.1h-0.1
			c-0.1,0.1-0.1,0.2-0.1,0.3l1.9,5.5h-1.7c-0.1,0-0.2,0.1-0.2,0.2v3.3v0.1c0,0.1-0.1,0.2-0.2,0.2c-0.2,0-0.4-0.1-0.4-0.3v-3.4
			c0-0.1-0.1-0.2-0.2-0.2h-1c-0.1,0-0.2,0.1-0.2,0.2v3.4c0,0.1-0.1,0.2-0.2,0.2c-0.2,0-0.4-0.1-0.4-0.3v-0.1v-3.3
			c0-0.1-0.1-0.2-0.2-0.2h-1.7L17,4.4c0-0.1,0-0.2-0.1-0.2h-0.1c-0.1,0-0.1,0-0.1,0.1l-1.9,2.6L14.7,7c-0.1,0-0.2,0.1-0.2,0.1
			c-0.1,0-0.2,0-0.2-0.1c-0.2-0.3-0.1-0.5,0-0.6l2.2-2.8c0,0,0.1,0,0.3,0L19.7,3.6 M19.7,3.4h-2.9c-0.2,0-0.3,0-0.4,0.1l-2.2,2.8
			c-0.2,0.2-0.3,0.5-0.1,0.8c0.1,0.1,0.2,0.1,0.4,0.1c0.2,0,0.2-0.1,0.4-0.2L15,6.9l1.9-2.5l-2,5.7h2v3.3v0.1
			c0.1,0.3,0.3,0.4,0.6,0.4c0.2,0,0.4-0.2,0.4-0.4v-3.4h1v3.4c0.1,0.3,0.3,0.4,0.6,0.4c0.2,0,0.4-0.2,0.4-0.4v-0.1v-3.3h2l-2-5.7
			l1.7,2.1c0.1,0.1,0.1,0.1,0.2,0.1s0.1,0.1,0.2,0.1l1.7-0.1c0,1.6,0,4.4,0,4.4l0,0v2.5c0,0.3,0.2,0.5,0.5,0.5
			c0.3,0,0.5-0.2,0.5-0.5V11h1v2.5c0,0.3,0.2,0.5,0.5,0.5c0.3,0,0.5-0.2,0.5-0.5V11l0,0c0,0,0-1.2,0-2.4L27,9.7
			c0.1,0.2,0.3,0.4,0.5,0.4h0.1c0.2-0.1,0.4-0.4,0.3-0.7l-1-3.5c-0.1-0.2-0.3-0.4-0.5-0.4h-2.5L22,5.8l-1.9-2.3
			C20,3.4,19.8,3.4,19.7,3.4L19.7,3.4z"/>
	</g>
</g>
<g id="eyeball">
	<path class="st2" d="M11.2,7.1c-0.5,1.2-1.4,2.1-2.5,2.8c-0.7,0.5-1.4,0.8-2.2,0.9c-1,0.2-2,0.1-3-0.4C2.2,9.9,1.1,9,0.3,7.8
		C0.2,7.6,0.1,7.5,0.1,7.3C0,7.1,0,6.9,0.1,6.7c0.2-0.4,0.4-0.7,0.6-1c0.9-1,1.9-1.8,3.3-2.3C5.2,3,6.5,3.1,7.7,3.6
		C9,4.2,10,5.1,10.8,6.3C10.9,6.5,11,6.7,11.1,7C11.2,7,11.2,7,11.2,7.1z M2.8,7c0,1.5,1.2,2.8,2.7,2.8c1.6,0,2.8-1.2,2.9-2.7
		c0-1.6-1.2-2.8-2.8-2.9C4,4.2,2.8,5.5,2.8,7z"/>
	<path class="st3" d="M2.8,7c0-1.5,1.2-2.8,2.8-2.7c1.5,0,2.8,1.3,2.8,2.9c0,1.5-1.3,2.8-2.9,2.7C4,9.8,2.8,8.6,2.8,7z M6.2,5.4
		C5.6,5.1,4.7,5.3,4.2,6C3.7,6.8,3.8,7.7,4.4,8.3C5,8.9,6,8.9,6.6,8.4c0.7-0.5,0.8-1.4,0.5-2C6.7,6.7,6.3,6.8,6,6.4
		C5.9,6.3,5.8,5.8,6.2,5.4z"/>
	<path class="st2" d="M6.2,5.4C5.8,5.8,5.9,6.3,6.1,6.5c0.3,0.3,0.7,0.3,1.1,0c0.3,0.5,0.1,1.4-0.5,2C6,8.9,5,8.9,4.4,8.3
		C3.8,7.7,3.7,6.8,4.1,6.1C4.6,5.3,5.5,5.1,6.2,5.4z"/>
</g>
</svg>
