<?xml version="1.0" encoding="utf-8"?>
<!-- Generator: Adobe Illustrator 22.0.1, SVG Export Plug-In . SVG Version: 6.00 Build 0)  -->
<!DOCTYPE svg PUBLIC "-//W3C//DTD SVG 1.1//EN" "http://www.w3.org/Graphics/SVG/1.1/DTD/svg11.dtd">
<svg version="1.1"
	 id="svg4619" inkscape:version="0.91 r13725" sodipodi:docname="suitcase-15.svg" xmlns:cc="http://creativecommons.org/ns#" xmlns:dc="http://purl.org/dc/elements/1.1/" xmlns:inkscape="http://www.inkscape.org/namespaces/inkscape" xmlns:rdf="http://www.w3.org/1999/02/22-rdf-syntax-ns#" xmlns:sodipodi="http://sodipodi.sourceforge.net/DTD/sodipodi-0.dtd" xmlns:svg="http://www.w3.org/2000/svg"
	 xmlns="http://www.w3.org/2000/svg" xmlns:xlink="http://www.w3.org/1999/xlink" x="0px" y="0px" width="15px" height="15px"
	 viewBox="0 0 15 15" style="enable-background:new 0 0 15 15;" xml:space="preserve">
<style type="text/css">
	.st0{fill:#0FAED3;stroke:#0E5763;stroke-width:0.144;stroke-miterlimit:10;}
	.st1{fill:#0E5763;}
	.st2{fill:#0FAED3;}
</style>
<g>
	<g>
		<path class="st0" d="M7.4,0.8C4.4,0.8,2,3.3,2,6.2c0,3.6,5,7.6,5.2,7.8c0.1,0,0.1,0.1,0.2,0.1s0.1,0,0.2-0.1
			c0.2-0.2,5.2-4.2,5.2-7.8C12.8,3.3,10.4,0.8,7.4,0.8z"/>
	</g>
</g>
<path class="st1" d="M7.4,2.4c-2.2,0-3.9,1.8-3.9,3.9c0,1.2,0.6,2.3,1.5,3c0,0.1,0.1,0.2,0.2,0.3c0-0.1,0-0.2,0-0.3
	c0-1.2,1-2.2,2.2-2.2s2.2,1,2.2,2.2c0,0.1,0,0.2,0,0.3C9.7,9.5,9.8,9.4,10,9.3c0.9-0.7,1.4-1.8,1.4-3C11.3,4.1,9.5,2.4,7.4,2.4z"/>
<path class="st2" d="M7.8,6.4c-0.1,0-0.3,0.1-0.4,0.1S7.1,6.5,7,6.4C6.4,6.2,6,5.7,6,5c0-0.8,0.6-1.4,1.4-1.4S8.8,4.3,8.8,5
	S8.4,6.2,7.8,6.4z"/>
</svg>
