<?xml version="1.0" encoding="utf-8"?>
<!-- Generator: Adobe Illustrator 22.0.1, SVG Export Plug-In . SVG Version: 6.00 Build 0)  -->
<svg version="1.0"
	 id="svg4619" inkscape:version="0.91 r13725" sodipodi:docname="suitcase-15.svg" xmlns:cc="http://creativecommons.org/ns#" xmlns:dc="http://purl.org/dc/elements/1.1/" xmlns:inkscape="http://www.inkscape.org/namespaces/inkscape" xmlns:rdf="http://www.w3.org/1999/02/22-rdf-syntax-ns#" xmlns:sodipodi="http://sodipodi.sourceforge.net/DTD/sodipodi-0.dtd" xmlns:svg="http://www.w3.org/2000/svg"
	 xmlns="http://www.w3.org/2000/svg" xmlns:xlink="http://www.w3.org/1999/xlink" x="0px" y="0px" width="14.8px" height="15px"
	 viewBox="0 0 14.8 15" enable-background="new 0 0 14.8 15" xml:space="preserve">
<g>
	<g>
		<polygon fill="#37BBA3" points="0.7,5.1 0.7,4.7 7.4,1.7 14.2,4.8 14.1,5.1 		"/>
		<path fill="#0D5853" d="M7.4,1.8l6.6,3V5H0.8V4.8L7.4,1.8 M7.4,1.6L0.6,4.7v0.5h13.6V4.7L7.4,1.6L7.4,1.6z"/>
	</g>
	<g>
		<path fill="#37BBA3" d="M8.9,14.3V9.6c0-0.8-0.6-1.5-1.5-1.5S5.9,8.8,5.9,9.6v4.6H0.7V13l0.9-1.4V6.1h11.6v5.5l0.9,1.4v1.2H8.9
			V14.3z M11.4,13.1h1.1V6.9h-1.1V13.1z M9.6,13.1h1.1V6.9H9.6V13.1z M4,13.1h1.1V6.9H4V13.1z M2.3,13.1h1.1V6.9H2.3V13.1z"/>
		<path fill="#0D5853" d="M13.1,6.3v5.4v0.1l0,0l0.9,1.4v1.1H9V9.6C9,8.7,8.3,8,7.4,8S5.8,8.7,5.8,9.6v4.5h-5V13l0.9-1.4l0,0v-0.1
			V6.3H13.1 M11.3,13.2h0.2h0.9h0.2V13V7V6.8h-0.2h-0.9h-0.2V7v6L11.3,13.2 M9.5,13.2h0.2h0.9h0.2V13V7V6.8h-0.2H9.7H9.5V7v6V13.2
			 M3.9,13.2h0.2h1V13h0.1V7V6.8H5H4.1H3.9V7v6V13.2 M2.2,13.2h0.2h0.9h0.2V13V7V6.8H3.3H2.4H2.2V7v6V13.2 M13.3,6.1H1.5v5.5L0.6,13
			v1.3H6V9.6c0-0.8,0.6-1.4,1.4-1.4s1.4,0.6,1.4,1.4v4.8h5.4v-1.3l-0.9-1.4L13.3,6.1L13.3,6.1z M11.5,13V7h0.9v6H11.5L11.5,13z
			 M9.7,13V7h0.9v6H9.7L9.7,13z M4.1,13V7H5v6h0.1H4.1L4.1,13z M2.4,13V7h0.9v6H2.4L2.4,13z"/>
	</g>
</g>
</svg>
